<svg xmlns="http://www.w3.org/2000/svg" width="1621.000000pt" height="1388.000000pt" viewBox="0 0 1621.000000 1388.000000">
  <path d="M5911 13669 c-13 -5 -67 -11 -120 -13 -147 -6 -429 -41 -606 -76
-309 -61 -416 -82 -450 -92 -141 -38 -258 -73 -370 -110 -49 -17 -94 -31 -100
-33 -12 -2 -17 -4 -160 -63 -60 -24 -132 -51 -160 -60 -27 -9 -66 -26 -85 -39
-19 -13 -40 -23 -48 -23 -15 0 -297 -139 -433 -213 -382 -208 -970 -629 -1196
-854 -18 -18 -37 -33 -43 -33 -5 0 -10 -6 -10 -13 0 -7 -25 -32 -56 -57 -30
-24 -60 -52 -65 -62 -5 -10 -16 -18 -24 -18 -8 0 -15 -8 -15 -19 0 -10 -9 -21
-21 -24 -11 -3 -23 -15 -26 -27 -3 -11 -18 -27 -34 -35 -15 -8 -30 -24 -34
-34 -3 -11 -15 -23 -26 -26 -10 -4 -19 -15 -19 -26 0 -10 -6 -19 -14 -19 -8 0
-17 -8 -20 -17 -4 -10 -38 -52 -77 -93 -39 -41 -77 -87 -85 -102 -8 -16 -19
-28 -24 -28 -5 0 -25 -25 -45 -55 -21 -30 -41 -55 -45 -55 -4 0 -19 -19 -33
-42 -14 -24 -39 -59 -56 -78 -44 -50 -161 -208 -161 -217 0 -4 -18 -31 -39
-60 -22 -28 -45 -62 -51 -75 -18 -33 -119 -206 -147 -251 -41 -65 -273 -518
-273 -533 0 -3 -14 -35 -30 -70 -17 -35 -47 -106 -66 -156 -20 -51 -45 -115
-55 -143 -11 -27 -26 -70 -34 -95 -7 -25 -18 -58 -24 -75 -21 -55 -121 -397
-121 -413 0 -8 -6 -38 -14 -66 -8 -28 -20 -76 -26 -106 -7 -30 -18 -84 -26
-120 -17 -74 -32 -151 -39 -195 -3 -16 -10 -54 -16 -84 -6 -29 -8 -66 -5 -82
3 -15 1 -31 -4 -34 -6 -4 -8 -11 -4 -16 3 -5 2 -15 -4 -22 -5 -7 -10 -36 -11
-66 -1 -30 -4 -58 -6 -61 -6 -9 -14 -96 -20 -209 -3 -56 -9 -121 -14 -142 -5
-22 -8 -91 -6 -155 1 -63 -2 -117 -7 -120 -4 -3 -6 -9 -3 -14 3 -5 6 -89 7
-186 0 -195 17 -410 53 -674 9 -63 20 -149 25 -190 10 -84 33 -214 49 -275 35
-142 50 -195 55 -204 4 -5 10 -29 15 -53 12 -60 43 -174 81 -298 18 -58 33
-112 35 -120 2 -8 15 -46 30 -85 14 -38 35 -96 46 -128 46 -136 178 -438 264
-608 62 -121 258 -465 343 -599 22 -36 53 -85 69 -110 32 -52 141 -200 159
-215 6 -5 22 -26 36 -45 182 -257 571 -675 818 -879 41 -34 86 -72 100 -84 89
-81 215 -181 364 -289 117 -85 262 -184 291 -199 17 -8 51 -29 76 -46 175
-120 498 -288 804 -418 316 -134 600 -227 950 -310 177 -43 189 -45 265 -55
41 -5 104 -15 140 -20 36 -6 97 -15 135 -20 39 -5 82 -11 95 -14 123 -28 615
-45 1030 -37 199 4 742 75 925 121 104 26 218 54 295 71 92 21 173 45 205 60
11 5 56 20 100 33 103 31 200 66 333 121 266 109 405 173 572 261 272 145 257
138 299 125 61 -18 91 -13 171 27 127 64 189 101 357 216 295 201 308 211 422
308 24 21 50 38 57 38 7 0 22 -15 33 -33 22 -36 102 -115 162 -160 34 -26 41
-27 105 -21 l69 6 165 -110 c196 -131 276 -199 430 -364 196 -208 250 -290
250 -374 0 -89 51 -163 148 -213 20 -11 52 -32 70 -48 33 -28 33 -28 36 -128
4 -169 21 -193 330 -475 81 -74 171 -155 199 -179 29 -23 99 -86 156 -140 57
-53 114 -103 126 -111 22 -15 327 -293 416 -380 25 -25 69 -66 98 -93 l52 -47
241 0 c215 0 244 2 262 18 20 16 20 16 7 0 -13 -17 5 -18 348 -18 307 0 361 2
361 14 0 8 14 30 31 48 l30 33 -7 -30 c-4 -16 -11 -38 -16 -47 -8 -16 -2 -18
61 -18 55 0 70 3 75 17 11 27 -29 44 -52 21 -6 -6 -15 -8 -19 -4 -4 4 -1 11 6
16 8 4 11 15 8 23 -3 9 0 20 7 26 8 6 11 22 8 37 -4 22 -1 26 19 24 37 -3 40
-1 29 20 -6 11 -16 17 -25 14 -8 -4 -15 -2 -15 4 0 6 6 12 13 15 19 7 -4 39
-41 57 -36 17 -39 25 -15 35 13 4 28 -5 53 -35 19 -22 38 -40 42 -40 4 0 13
19 19 43 11 39 13 40 20 17 l7 -25 7 22 7 23 20 -25 c29 -37 20 -56 -36 -75
-36 -12 -45 -18 -33 -23 9 -3 17 -13 17 -20 0 -8 10 -21 23 -30 32 -21 15 -31
-22 -12 -27 14 -31 14 -31 1 0 -9 14 -23 32 -32 30 -15 32 -15 45 2 7 10 13
23 13 30 0 7 8 17 17 22 26 15 26 100 0 130 -11 12 -16 22 -10 22 6 0 16 -7
23 -15 7 -8 19 -15 27 -15 12 0 13 8 8 39 -6 38 -5 39 35 55 53 21 55 21 30
-11 l-21 -27 20 -8 c12 -4 21 -14 21 -21 0 -20 24 -38 36 -28 5 5 22 11 37 15
24 6 30 3 34 -14 3 -11 12 -19 21 -18 9 2 21 -8 28 -21 10 -20 10 -30 -3 -54
-12 -25 -13 -31 -1 -38 26 -17 33 -9 29 31 -1 10 8 15 29 16 36 1 37 -7 8 -47
l-23 -30 25 -19 c14 -10 21 -22 17 -26 -4 -4 -21 6 -38 22 -25 24 -31 26 -39
14 -11 -17 -13 -60 -4 -60 4 0 12 7 19 16 10 14 15 14 33 3 19 -12 24 -10 48
11 l27 25 -5 -47 -6 -48 33 0 c27 0 32 3 28 18 -3 13 4 22 23 30 36 17 42 7
14 -23 -20 -22 -21 -25 -6 -25 10 0 24 7 32 15 20 19 38 19 30 0 -4 -12 5 -15
50 -15 57 0 60 3 26 42 -10 12 -19 15 -32 8 -17 -9 -40 4 -40 23 0 17 -56 77
-71 77 -9 0 -19 7 -23 15 -3 8 -12 12 -21 9 -10 -4 -15 0 -15 15 0 14 -6 21
-19 21 -12 0 -21 8 -23 22 -3 22 -28 38 -28 18 0 -11 -24 -40 -34 -40 -3 0 2
17 10 37 15 34 15 38 -2 50 -16 12 -45 17 -96 16 -10 0 -18 4 -18 9 0 4 5 8
10 8 6 0 10 13 10 29 0 21 -12 38 -47 70 -49 43 -58 47 -68 31 -12 -20 -25 -9
-25 20 0 17 -5 30 -11 30 -5 0 -7 -5 -4 -11 4 -6 -2 -5 -14 3 -12 7 -21 18
-21 24 0 6 -7 18 -16 25 -14 11 -18 10 -30 -6 -21 -28 -28 -11 -9 25 13 25 14
35 4 46 -16 20 -28 17 -39 -9 -8 -21 -9 -21 -9 -1 -1 12 -12 26 -27 33 -21 9
-24 14 -14 25 9 11 4 20 -24 43 -36 28 -51 32 -51 13 0 -5 -3 -10 -7 -10 -5 0
-13 0 -18 0 -6 0 -5 8 2 21 11 17 10 23 -9 39 -20 16 -27 16 -60 5 -29 -10
-39 -19 -41 -39 -3 -20 -8 -26 -21 -21 -12 4 -22 -3 -31 -22 -8 -16 -15 -29
-16 -31 -1 -2 -12 2 -24 8 -19 10 -21 9 -18 -12 2 -19 -2 -23 -29 -26 -25 -3
-35 2 -48 22 -22 33 -11 51 19 31 27 -18 43 -8 18 11 -15 12 -15 15 -2 23 8 6
11 13 7 17 -4 4 -15 0 -25 -9 -10 -10 -30 -17 -43 -17 -14 0 -30 -5 -36 -11
-8 -8 -19 -8 -42 2 -34 15 -51 46 -51 90 0 20 -4 29 -12 27 -21 -7 -20 -32 4
-86 18 -40 28 -52 46 -52 28 0 28 -11 1 -28 -18 -11 -23 -11 -34 5 -12 17 -14
16 -34 -7 -25 -31 -26 -48 -4 -72 27 -30 7 -32 -34 -2 -61 45 -63 49 -41 94
15 30 26 40 44 40 13 0 24 -4 24 -10 0 -5 5 -10 11 -10 6 0 -4 18 -23 41 -53
66 -53 65 -34 84 18 19 17 36 -3 43 -9 3 -11 -2 -6 -17 5 -16 1 -23 -17 -30
-13 -5 -30 -16 -37 -25 -18 -22 -31 -20 -31 4 0 13 7 20 20 20 12 0 17 5 14
14 -3 7 2 20 10 29 22 21 20 25 -9 25 -20 0 -25 -6 -25 -24 0 -16 -6 -24 -16
-24 -9 0 -23 -8 -30 -17 -11 -15 -15 -16 -23 -4 -13 21 -1 43 20 38 12 -3 19
0 19 9 0 8 4 14 8 14 5 0 8 10 8 23 -1 19 3 22 32 19 24 -2 32 1 29 10 -2 7
-17 14 -33 14 -16 1 -36 2 -44 3 -9 0 -23 14 -33 30 -13 22 -24 29 -44 28 -19
-1 -28 3 -31 16 -5 23 27 60 45 53 8 -3 23 0 35 7 15 8 22 9 25 1 2 -6 10 -20
18 -30 15 -19 15 -19 30 0 17 22 4 46 -24 46 -10 0 -26 6 -36 14 -21 15 -71 2
-91 -23 -14 -18 -44 -7 -51 19 -3 11 -9 18 -13 15 -5 -3 -3 -21 3 -40 8 -28
14 -34 29 -29 15 4 18 0 18 -24 0 -18 9 -36 25 -50 26 -23 33 -56 14 -68 -6
-3 -15 0 -20 7 -6 11 -11 11 -21 1 -6 -6 -17 -12 -24 -12 -16 0 -25 41 -12 57
6 7 7 13 2 13 -15 0 -30 -14 -37 -32 -11 -29 -26 -20 -25 14 0 18 -3 43 -7 56
-6 18 -4 22 14 22 26 0 26 8 2 38 -24 28 -34 28 -51 -2 -14 -27 -39 -41 -50
-29 -4 4 -11 25 -14 45 -5 30 -4 37 7 32 7 -2 19 -17 25 -32 7 -18 9 -19 6 -5
-4 16 4 30 26 50 18 15 37 28 43 28 6 0 12 6 15 13 2 6 -3 12 -12 12 -28 0
-17 17 16 24 29 6 30 7 15 24 -33 36 -11 57 28 28 17 -12 17 -16 5 -30 -12
-15 -11 -16 13 -12 14 2 34 9 44 15 16 9 14 10 -9 11 -16 0 -28 5 -28 10 0 6
9 10 20 10 11 0 20 5 20 10 0 6 -4 10 -9 10 -5 0 -7 9 -4 20 8 30 18 24 19
-10 1 -17 4 -33 7 -36 10 -10 27 6 27 26 0 13 5 17 15 14 23 -9 18 -42 -10
-70 -14 -14 -25 -29 -25 -34 0 -6 -7 -10 -16 -10 -9 0 -14 -6 -12 -12 8 -23
52 -39 92 -33 42 6 66 -7 66 -36 0 -12 7 -19 20 -19 24 0 27 25 4 34 -17 6
-16 48 2 80 9 15 15 16 31 7 12 -6 23 -17 27 -26 6 -17 36 -21 36 -5 0 6 -4
10 -10 10 -5 0 -16 14 -25 30 -9 17 -20 30 -26 30 -6 0 -28 19 -49 42 -33 37
-39 41 -54 29 -16 -14 -20 -9 -16 23 1 11 -3 16 -12 14 -7 -3 -12 -12 -12 -21
1 -14 -2 -15 -25 -3 -14 7 -32 11 -39 9 -8 -3 -10 1 -6 12 4 9 12 14 20 11 7
-3 18 1 24 9 9 10 3 21 -25 49 -40 40 -42 41 -69 21 -27 -20 -39 -8 -16 15 27
27 25 37 -6 44 -29 8 -45 -1 -26 -13 9 -6 8 -12 -7 -25 -33 -30 -44 -9 -19 34
13 21 20 40 18 42 -3 2 -20 16 -38 31 -19 15 -37 27 -41 27 -5 0 -13 -15 -19
-32 l-10 -33 -1 28 c-1 16 4 37 9 48 9 16 7 21 -16 29 -15 6 -35 8 -45 5 -15
-5 -16 -11 -7 -38 20 -65 21 -77 4 -77 -17 0 -29 35 -29 82 0 31 -17 37 -37
13 -10 -12 -10 -18 0 -30 15 -17 5 -35 -20 -35 -41 0 -31 32 27 88 l58 55 -25
16 c-13 9 -41 33 -61 54 -21 20 -42 37 -47 37 -5 0 -14 11 -20 25 -12 27 -42
34 -42 11 0 -8 -5 -16 -11 -18 -8 -3 -7 -17 3 -47 9 -24 18 -39 22 -33 7 13
93 -11 86 -24 -3 -5 -11 -7 -19 -6 -24 6 -61 -8 -61 -22 0 -9 8 -12 26 -8 16
3 24 1 21 -4 -3 -6 -49 -9 -103 -9 -105 1 -111 5 -113 63 -1 30 11 28 32 -7
13 -23 23 -28 52 -27 31 1 54 17 55 37 0 14 -52 16 -65 3 -21 -22 -32 22 -11
45 9 10 16 23 16 29 0 14 -18 48 -38 73 -16 21 -49 14 -57 -12 -4 -10 -11 -19
-16 -19 -5 0 -9 -7 -9 -16 0 -14 3 -14 15 -4 12 10 15 10 15 -3 0 -31 -22 -28
-56 9 -31 32 -39 36 -55 26 -27 -17 -51 -5 -38 19 5 10 16 19 24 19 7 0 16 4
20 9 8 14 -34 81 -51 81 -8 0 -14 7 -14 15 0 8 5 15 11 15 6 0 33 14 60 31 45
30 47 33 34 53 -8 11 -15 31 -15 43 0 32 -15 28 -30 -7 -17 -41 -70 -78 -70
-50 0 6 18 28 40 49 44 42 48 51 23 51 -10 0 -14 4 -8 8 18 13 15 31 -7 43
-16 9 -23 9 -26 1 -2 -7 -16 -9 -35 -6 -26 4 -29 3 -15 -6 10 -6 22 -20 28
-30 9 -17 7 -20 -9 -20 -12 0 -26 12 -35 32 -19 38 -19 38 -3 38 6 0 25 7 41
15 26 14 30 13 56 -5 15 -11 30 -17 32 -14 3 3 16 -12 29 -33 12 -21 23 -39
24 -41 1 -1 15 5 31 13 32 15 108 10 98 -7 -8 -13 16 -38 37 -38 11 0 33 -13
51 -30 17 -16 34 -30 37 -30 4 0 33 -24 65 -54 33 -30 64 -52 71 -50 17 7 47
63 40 74 -3 6 2 18 11 28 17 16 18 16 11 -1 -8 -22 3 -54 13 -37 5 8 15 4 34
-15 l26 -26 -33 6 c-31 6 -34 5 -45 -31 -13 -43 0 -66 65 -113 21 -15 51 -44
66 -64 15 -20 33 -37 38 -37 12 0 76 -58 157 -142 30 -32 61 -58 69 -58 13 0
73 -57 73 -71 0 -7 185 -169 194 -169 3 0 19 13 37 30 18 16 35 27 38 24 3 -3
-10 -17 -27 -33 -29 -24 -31 -29 -18 -40 9 -7 14 -17 11 -21 -2 -4 23 -31 57
-61 34 -30 90 -82 125 -117 36 -34 71 -62 78 -62 18 0 65 -44 65 -60 0 -12 41
-53 101 -100 17 -14 53 -46 79 -72 27 -27 53 -48 59 -48 6 0 17 -13 25 -29 9
-16 39 -45 69 -64 29 -20 70 -56 90 -81 21 -25 47 -48 60 -52 12 -4 37 -25 56
-46 19 -22 52 -48 73 -59 21 -11 37 -24 35 -30 -2 -11 15 -23 46 -33 9 -3 17
-14 17 -24 0 -11 17 -32 38 -48 20 -16 45 -39 56 -52 22 -28 121 -102 136
-102 5 0 10 -10 10 -22 0 -22 52 -68 77 -68 6 0 14 -11 17 -25 l6 -25 138 0
c94 0 142 4 150 12 9 9 12 9 12 0 0 -8 26 -12 85 -12 63 0 85 3 85 13 0 7 -30
38 -67 68 -83 68 -165 141 -268 243 -44 44 -110 103 -147 132 -36 30 -119 102
-182 161 -64 60 -145 132 -179 162 -34 30 -114 103 -177 162 -63 59 -136 124
-161 146 -55 45 -202 177 -279 249 -30 28 -86 80 -125 115 -38 35 -72 67 -73
71 -2 5 -19 19 -38 32 -19 13 -76 61 -126 107 -50 46 -110 100 -132 121 -117
104 -239 213 -336 298 -104 92 -257 234 -403 372 -39 38 -75 68 -79 68 -4 0
-8 6 -9 13 0 18 -152 135 -222 171 -57 29 -67 31 -163 30 -90 -1 -104 1 -109
16 -12 38 -98 108 -158 130 -52 19 -68 21 -106 12 -39 -9 -53 -7 -96 10 -27
12 -57 27 -66 35 -8 7 -19 13 -22 13 -11 0 -161 105 -257 178 -92 71 -272 232
-305 272 -11 13 -31 36 -45 51 -132 140 -156 176 -164 244 -12 107 -33 153
-101 220 -34 33 -79 73 -99 88 -20 16 -36 35 -36 43 0 19 31 80 70 137 39 58
257 495 308 619 62 148 68 190 47 295 l-18 88 57 135 c82 195 80 189 139 375
72 226 90 291 132 480 64 286 100 490 109 620 4 50 9 101 11 115 15 99 27 194
30 245 2 33 7 123 11 200 10 194 8 487 -5 630 -6 66 -14 145 -16 175 -3 30 -7
66 -10 80 -2 14 -9 79 -15 145 -6 66 -15 147 -21 180 -26 148 -31 176 -55 280
-14 61 -30 124 -35 141 -5 17 -9 40 -9 51 0 36 -49 211 -111 398 -32 98 -59
186 -59 195 0 8 -7 24 -15 34 -8 11 -15 27 -15 36 0 9 -30 88 -66 176 -36 87
-72 175 -79 195 -13 37 -169 362 -185 389 -6 8 -27 46 -47 84 -21 37 -53 91
-72 120 -18 28 -45 74 -58 101 -14 28 -39 66 -54 85 -16 19 -29 39 -29 43 0 5
-13 26 -30 47 -16 21 -30 41 -30 45 0 4 -7 13 -15 19 -8 6 -40 53 -72 103 -62
100 -106 160 -165 228 -21 23 -38 45 -38 49 0 3 -13 20 -30 38 -16 17 -30 35
-30 40 0 5 -10 19 -22 32 -45 45 -103 118 -110 137 -4 11 -12 18 -16 15 -9 -5
-66 50 -73 70 -6 18 -109 104 -124 104 -20 0 -30 -21 -14 -31 12 -8 11 -12 -3
-23 -24 -18 -23 -36 3 -36 34 0 59 -19 59 -45 0 -17 6 -25 17 -25 22 0 102
-84 115 -121 5 -16 16 -29 22 -29 19 0 97 -89 94 -107 -2 -10 9 -20 29 -27 43
-15 51 -25 30 -41 -17 -12 -16 -14 10 -35 15 -12 35 -40 44 -63 11 -28 24 -43
40 -47 15 -4 32 -23 49 -55 13 -27 39 -64 57 -82 18 -17 28 -35 23 -38 -13 -8
-12 -16 0 -35 9 -13 13 -12 26 5 16 20 16 20 9 -3 -4 -14 -1 -32 8 -46 16 -23
34 -116 23 -116 -10 0 -30 44 -36 80 -4 29 -9 34 -27 32 -17 -2 -24 6 -38 47
-10 31 -24 52 -36 56 -10 4 -19 11 -19 16 0 5 -7 9 -15 9 -8 0 -15 5 -15 10 0
6 -20 32 -44 57 -25 26 -43 50 -40 55 10 15 -17 48 -39 48 -16 0 -26 9 -34 30
-8 21 -16 28 -27 24 -12 -5 -16 0 -16 17 0 31 -15 53 -29 45 -15 -10 -50 33
-51 61 0 16 -5 20 -20 16 -20 -5 -24 3 -21 40 2 10 -8 21 -23 27 -17 6 -24 14
-20 25 4 10 0 15 -14 15 -15 0 -19 5 -15 20 3 11 1 20 -5 20 -6 0 -23 11 -38
25 -15 14 -35 25 -45 25 -21 0 -41 57 -32 91 4 14 1 20 -8 19 -46 -7 -68 1
-80 29 -11 24 -18 29 -41 26 -30 -4 -35 4 -17 22 9 9 8 16 -4 27 -19 19 -34
20 -40 4 -2 -7 -7 6 -11 29 -7 38 -10 42 -26 33 -27 -15 -33 -12 -27 10 6 24
-1 25 -22 6 -15 -14 -16 -11 -13 23 4 44 -17 61 -44 34 -13 -14 -17 -14 -25
-2 -12 19 -11 26 2 34 6 5 2 13 -12 23 -16 11 -24 12 -27 4 -7 -22 -33 -13
-30 11 2 12 -1 22 -7 22 -5 0 -9 -12 -7 -27 2 -16 -1 -28 -7 -28 -6 0 -10 8
-9 18 4 47 -3 68 -27 78 -29 14 -36 8 -29 -22 5 -18 2 -24 -11 -24 -14 0 -16
6 -11 27 8 31 -5 43 -51 43 -18 0 -33 5 -33 11 0 8 14 9 43 5 27 -5 38 -4 32
3 -5 5 -21 11 -35 13 -20 2 -24 8 -22 27 l2 25 -23 -22 c-31 -29 -39 -28 -31
4 5 18 3 25 -3 21 -6 -4 -14 0 -17 8 -4 12 -16 15 -45 11 -29 -3 -39 -1 -35 8
3 7 0 23 -5 37 -7 16 -10 19 -10 7 -1 -21 -37 -43 -46 -28 -4 6 -4 24 0 41 6
24 11 29 27 23 17 -5 18 -3 9 14 -14 27 -14 32 4 32 8 0 15 -4 15 -9 0 -5 11
-12 24 -15 13 -3 26 -15 29 -26 3 -11 12 -20 21 -20 13 0 13 3 -2 29 -19 34
-103 82 -110 62 -3 -9 -7 -9 -18 0 -19 16 -31 -16 -14 -37 20 -24 0 -36 -38
-23 -35 12 -38 19 -20 37 10 10 5 11 -21 6 l-32 -7 7 39 c7 36 6 38 -10 25
-22 -18 -69 0 -60 24 3 8 1 15 -4 15 -6 0 -14 -9 -17 -20 -3 -11 -11 -20 -17
-20 -6 0 -7 8 -3 18 7 17 13 39 14 55 2 13 36 8 60 -9 19 -14 25 -14 32 -3 8
12 10 12 18 -1 13 -19 20 -11 24 30 4 37 23 51 33 26 3 -9 11 -16 18 -16 15 0
46 -36 46 -54 0 -7 16 -24 35 -37 19 -13 40 -34 46 -47 7 -12 19 -20 26 -18 7
3 23 -4 34 -15 11 -11 23 -17 28 -15 15 10 43 -31 36 -53 -4 -12 -2 -21 4 -21
6 0 11 5 11 10 0 6 7 10 15 10 8 0 15 -4 15 -10 0 -5 7 -7 15 -4 8 4 17 -1 21
-10 3 -9 12 -16 20 -16 7 0 28 -9 46 -20 18 -11 43 -20 54 -20 28 0 40 28 16
37 -9 4 -31 18 -48 32 -17 14 -46 37 -63 51 -17 14 -57 49 -89 78 -31 30 -78
67 -104 84 -27 16 -48 34 -48 39 0 5 -7 9 -16 9 -9 0 -34 16 -55 35 -22 19
-48 35 -58 35 -10 0 -21 6 -24 13 -6 16 -105 85 -287 201 -30 19 -111 65 -180
102 -69 37 -146 80 -172 95 -27 16 -48 27 -48 24 0 -3 -25 9 -55 26 -30 17
-55 28 -55 23 0 -4 -8 0 -17 8 -10 8 -34 21 -53 28 -19 8 -71 31 -114 52 -44
21 -87 38 -97 38 -10 0 -21 5 -24 10 -3 6 -13 10 -22 10 -9 0 -39 11 -67 24
-94 44 -124 56 -136 56 -7 0 -56 15 -109 34 -53 18 -105 36 -116 39 -11 3 -49
14 -85 25 -181 56 -252 74 -407 107 -329 70 -358 77 -374 85 -10 5 -21 4 -27
-2 -8 -8 -19 -8 -39 2 -16 8 -44 15 -63 17 -19 2 -48 4 -65 6 -16 1 -34 5 -40
9 -5 3 -37 5 -70 3 -33 -1 -64 0 -69 3 -17 10 -81 9 -103 -1 -15 -7 -27 -7
-35 0 -7 6 -60 14 -118 18 -165 11 -562 14 -589 4z m-81 -174 c0 -8 10 -25 21
-36 17 -17 19 -23 8 -30 -26 -17 -33 -8 -32 39 1 6 -3 12 -8 12 -5 0 -9 7 -9
15 0 8 5 15 10 15 6 0 10 -7 10 -15z m350 -14 c-15 -29 -30 -35 -30 -12 0 17
11 28 33 30 4 1 3 -8 -3 -18z m-696 -28 c-8 -32 -24 -55 -24 -32 0 26 12 59
21 59 5 0 6 -12 3 -27z m472 5 c-1 -17 -7 -23 -23 -23 -26 0 -26 0 -13 26 15
26 38 24 36 -3z m479 -169 c615 -23 1145 -131 1770 -359 193 -70 578 -257 820
-397 187 -108 455 -290 603 -409 32 -25 64 -51 72 -57 8 -7 33 -26 55 -42 22
-16 47 -36 56 -45 9 -8 56 -51 105 -94 114 -102 340 -330 473 -476 92 -102
136 -154 206 -248 11 -15 47 -61 81 -103 68 -85 264 -373 264 -387 0 -5 7 -15
15 -22 32 -27 232 -397 343 -635 184 -393 360 -958 427 -1370 19 -113 36 -239
45 -329 6 -60 13 -112 15 -115 7 -13 19 -345 19 -521 -1 -179 -18 -499 -29
-550 -3 -14 -7 -59 -10 -100 -4 -63 -28 -217 -65 -410 -54 -282 -171 -686
-293 -1010 -34 -91 -190 -433 -258 -565 -174 -341 -459 -762 -729 -1080 -235
-276 -587 -605 -895 -837 -480 -361 -1006 -643 -1523 -817 -273 -92 -378 -122
-626 -177 -505 -112 -1157 -151 -1646 -100 -158 17 -379 45 -400 51 -8 3 -44
9 -80 14 -58 9 -116 21 -325 66 -126 27 -484 139 -665 208 -227 86 -574 247
-758 354 -399 229 -827 555 -1179 897 -186 181 -420 448 -523 596 -13 19 -27
37 -30 40 -4 3 -22 28 -40 55 -19 28 -38 55 -42 60 -39 50 -59 78 -93 130 -22
33 -44 68 -50 77 -5 9 -46 77 -91 150 -101 165 -182 315 -262 481 -34 71 -62
130 -62 133 0 2 -11 27 -24 56 -112 249 -138 322 -262 738 -9 30 -23 73 -30
95 -7 22 -22 83 -34 135 -11 52 -25 114 -30 136 -19 84 -81 431 -85 479 -3 28
-7 68 -10 90 -11 83 -34 435 -35 545 -1 63 -2 122 -2 130 -4 222 56 823 97
975 7 28 16 73 20 100 7 55 66 302 96 405 198 677 512 1304 929 1854 58 76
114 150 124 165 42 56 223 255 320 353 232 234 424 402 671 588 146 110 441
308 497 334 20 10 42 24 49 32 6 8 17 14 24 14 7 0 39 16 71 36 168 101 546
272 799 362 513 181 1006 284 1495 312 96 6 184 12 195 13 48 5 226 3 430 -4z
m1405 -8 c0 -13 -20 -25 -42 -26 -25 -2 -22 10 5 23 28 14 37 14 37 3z m700
-272 c0 -8 5 -8 15 1 17 14 20 3 6 -19 -8 -12 -12 -12 -25 -2 -18 15 -21 31
-6 31 6 0 10 -5 10 -11z m284 -93 c-11 -25 -22 -46 -26 -46 -12 0 -10 5 14 55
28 57 36 50 12 -9z m104 -23 c-2 -65 -11 -81 -43 -75 l-25 4 25 24 c18 16 25
33 25 59 0 19 4 35 10 35 5 0 9 -21 8 -47z m-38 -7 c0 -16 -37 -32 -48 -21 -7
7 25 35 40 35 4 0 8 -6 8 -14z m121 -37 c32 -22 31 -46 -1 -29 -19 10 -46 50
-34 50 3 0 19 -9 35 -21z m153 -50 c-10 -17 -56 -9 -75 14 -34 41 -22 50 31
21 27 -15 47 -31 44 -35z m-174 16 c0 -8 -3 -15 -8 -15 -4 0 -12 -10 -17 -22
-11 -25 -55 -34 -55 -12 0 8 7 14 15 14 8 0 22 11 31 25 18 28 34 33 34 10z
m40 -45 c0 -35 -25 -90 -41 -90 -7 0 -8 7 -4 18 3 9 9 31 12 47 7 45 11 55 23
55 5 0 10 -14 10 -30z m65 13 c16 -13 17 -15 3 -10 -13 5 -18 1 -18 -14 0 -18
-25 -37 -36 -27 -8 9 9 68 20 68 6 0 20 -8 31 -17z m101 -39 c35 -17 45 -34
20 -34 -8 0 -18 -5 -22 -11 -5 -8 1 -10 19 -5 27 6 39 -4 44 -39 3 -16 1 -17
-7 -5 -7 12 -12 12 -21 3 -10 -10 -8 -14 7 -19 10 -4 30 -17 44 -29 28 -25 80
-41 80 -25 0 5 -13 16 -30 25 -32 17 -33 18 -24 53 8 27 24 29 24 3 0 -10 11
-26 25 -35 31 -20 41 -21 25 -1 -10 12 -10 15 4 15 9 0 16 -5 16 -11 0 -5 12
-26 28 -45 27 -34 57 -44 65 -21 8 21 20 -1 13 -26 -6 -24 -7 -24 -53 -12 -27
7 -56 16 -67 21 -16 6 -17 3 -12 -22 5 -22 2 -32 -11 -40 -23 -14 -83 9 -83
32 0 10 5 14 15 10 8 -3 22 -9 30 -12 8 -3 15 -2 15 4 0 16 -48 24 -71 11 -11
-6 -26 -8 -34 -6 -15 6 -41 74 -50 131 -6 35 -7 37 -20 20 -12 -16 -12 -21 1
-31 13 -9 13 -14 2 -32 -15 -25 -22 -26 -42 -6 -8 8 -20 15 -26 15 -10 0 -9
15 7 58 3 6 0 12 -6 12 -14 0 -14 33 0 47 6 6 18 9 25 6 8 -3 14 0 14 6 0 15
16 14 56 -5z m-116 -61 c0 -10 -32 -43 -42 -43 -15 0 -8 29 10 39 20 12 32 14
32 4z m2123 -1938 c22 -27 24 -34 12 -39 -10 -3 -15 1 -15 14 0 18 -16 35 -34
35 -5 0 -11 6 -13 13 -9 24 22 10 50 -23z m107 -194 c0 -17 -12 -41 -21 -41
-5 0 -9 11 -9 25 0 16 6 25 15 25 8 0 15 -4 15 -9z m495 -1162 c4 -11 4 -23 1
-27 -8 -7 -36 30 -30 40 9 14 23 8 29 -13z m65 -374 c24 -8 26 -30 4 -39 -26
-10 -31 -7 -37 17 -2 12 -8 31 -13 42 -7 19 -7 19 9 3 9 -9 26 -20 37 -23z
m30 -313 c0 -8 7 -11 18 -8 19 6 50 -9 39 -20 -4 -4 -21 -7 -38 -7 -26 0 -30
-3 -25 -23 4 -14 1 -24 -10 -28 -24 -9 -28 -7 -15 8 9 11 9 15 -1 18 -10 4
-10 8 1 21 9 11 11 29 7 54 -6 35 -5 37 9 19 8 -11 15 -26 15 -34z m125 -191
c3 -5 2 -12 -3 -15 -12 -7 -52 4 -52 15 0 12 47 12 55 0z m-14 -191 c23 -19
23 -19 4 -20 -21 0 -45 17 -45 32 0 14 17 9 41 -12z m25 -224 c20 -20 17 -28
-18 -56 l-31 -24 7 24 c4 14 10 35 13 48 6 26 10 27 29 8z m-59 -31 c3 -9 3
-18 0 -21 -10 -10 -47 7 -47 22 0 19 39 18 47 -1z m-11474 -334 c2 -68 0 -124
-4 -127 -4 -2 -5 -21 -2 -41 7 -57 11 -225 6 -250 -5 -22 -33 -33 -33 -13 0 6
4 10 10 10 13 0 0 93 -14 102 -7 4 -6 15 4 33 9 16 10 29 4 35 -12 12 -8 269
6 304 5 15 10 39 10 53 0 15 2 24 5 21 3 -3 7 -60 8 -127z m11573 -125 c9 -37
-6 -54 -22 -25 -18 32 -17 49 1 49 8 0 17 -11 21 -24z m-22 -126 c18 -6 18 -7
-2 -12 -12 -4 -25 -2 -28 3 -3 5 -14 9 -25 9 -10 0 -19 5 -19 10 0 10 30 6 74
-10z m-11531 -237 c7 -29 3 -208 -5 -210 -26 -9 -30 0 -26 47 3 33 1 50 -6 50
-6 0 -5 4 3 9 10 6 11 13 2 29 -12 23 -15 75 -4 85 12 13 32 7 36 -10z m11520
-185 c2 -7 -1 -21 -7 -31 -8 -13 -8 -20 4 -27 13 -9 13 -10 0 -10 -8 0 -22 5
-30 10 -12 7 -12 12 -2 22 6 6 12 20 12 30 0 20 16 24 23 6z m-69 -47 c4 -5 0
-11 -6 -14 -18 -5 -48 3 -48 14 0 12 47 12 54 0z m-11441 -32 c14 -16 16 -24
6 -35 -12 -15 -33 -9 -24 7 4 5 0 12 -9 15 -8 3 -17 12 -20 20 -8 22 27 17 47
-7z m11491 -138 c7 -10 -33 -23 -47 -14 -10 6 11 23 30 23 6 0 14 -4 17 -9z
m-11438 -150 c1 -28 9 -47 21 -56 10 -8 14 -15 9 -15 -5 0 -3 -7 4 -15 10 -12
10 -18 0 -30 -15 -18 -8 -62 19 -120 10 -22 29 -80 41 -130 40 -164 45 -183
53 -191 4 -4 7 -20 7 -35 0 -15 5 -31 10 -34 6 -3 10 -19 10 -36 0 -16 4 -37
9 -47 27 -50 40 -92 35 -106 -4 -11 -1 -16 11 -16 13 0 16 -6 12 -21 -3 -11 2
-34 11 -52 8 -18 21 -44 28 -58 8 -14 11 -29 7 -32 -7 -7 6 -42 52 -142 18
-38 36 -81 40 -95 7 -27 32 -82 114 -252 28 -59 51 -113 51 -121 0 -8 7 -20
15 -27 19 -16 19 -30 -1 -30 -8 0 -12 -4 -9 -10 3 -5 14 -10 23 -10 12 0 39
-41 87 -132 205 -388 605 -920 950 -1263 368 -366 772 -680 1202 -936 131 -77
456 -244 566 -290 722 -301 1304 -435 2047 -470 276 -12 680 6 910 41 36 6
110 17 165 25 239 35 516 100 870 205 64 19 336 125 495 192 637 270 1337 765
1850 1309 360 382 573 670 857 1164 60 103 163 308 163 323 0 7 5 18 11 25 6
7 39 66 73 132 35 69 67 120 75 120 14 0 48 -101 38 -111 -2 -2 -18 1 -36 7
-35 12 -52 6 -33 -13 19 -19 14 -30 -7 -18 -22 11 -37 -2 -25 -21 3 -6 0 -15
-7 -20 -12 -8 -12 -10 0 -18 16 -11 5 -34 -12 -25 -8 5 -9 4 -2 -4 6 -6 21
-12 35 -15 24 -4 24 -5 4 -12 -14 -4 -20 -13 -17 -24 4 -15 -38 -77 -92 -138
-42 -48 -107 -150 -135 -213 -18 -41 -51 -101 -72 -133 -22 -32 -44 -71 -50
-87 -5 -17 -14 -30 -18 -30 -5 0 -11 -13 -15 -28 -3 -15 -26 -48 -50 -72 -29
-30 -46 -57 -50 -81 -4 -23 -22 -52 -53 -84 -25 -27 -47 -56 -47 -65 -1 -9
-15 -34 -32 -56 -47 -60 -115 -152 -143 -193 -26 -38 -39 -54 -100 -125 -20
-23 -53 -63 -75 -91 -63 -79 -197 -215 -206 -210 -4 3 -15 -8 -23 -24 -36 -68
-424 -410 -627 -551 -51 -36 -122 -86 -158 -112 -36 -26 -82 -59 -101 -73 -19
-13 -62 -38 -96 -55 -39 -19 -76 -48 -102 -79 -23 -27 -52 -53 -65 -57 -12 -4
-63 -31 -114 -60 -50 -30 -96 -54 -102 -54 -6 0 -31 -15 -56 -34 -44 -34 -53
-38 -108 -50 -17 -4 -31 -16 -37 -32 -7 -17 -15 -24 -26 -20 -8 3 -17 0 -19
-7 -3 -6 -17 -13 -30 -13 -14 -1 -42 -14 -61 -29 -25 -19 -38 -24 -43 -16 -5
7 -20 2 -47 -19 -21 -16 -44 -30 -51 -30 -18 0 -83 -33 -83 -41 0 -5 -16 -11
-36 -15 -20 -4 -60 -16 -88 -26 -28 -11 -60 -22 -71 -25 -11 -4 -29 -12 -40
-20 -11 -7 -26 -13 -35 -13 -8 0 -27 -6 -41 -14 -14 -7 -43 -16 -65 -20 -21
-5 -58 -16 -81 -27 -23 -10 -51 -19 -62 -19 -11 0 -30 -4 -43 -9 -56 -23 -326
-101 -350 -101 -14 0 -55 -9 -90 -21 -63 -20 -100 -27 -253 -49 -79 -11 -249
-36 -313 -45 -18 -3 -42 0 -54 6 -14 7 -23 8 -27 1 -15 -24 -585 -37 -791 -17
-47 4 -119 9 -160 10 -41 2 -100 8 -130 13 -30 6 -58 8 -61 6 -4 -2 -51 3
-105 12 -126 20 -136 21 -209 29 -33 4 -105 18 -160 32 -55 13 -113 26 -130
28 -16 2 -71 15 -122 29 -51 14 -99 26 -108 26 -9 0 -32 8 -53 19 -20 10 -61
24 -89 30 -64 13 -232 68 -247 80 -6 5 -27 12 -46 16 -19 4 -53 15 -75 24 -22
10 -58 24 -80 31 -22 7 -68 26 -102 42 -34 15 -65 28 -70 28 -9 0 -105 48
-168 83 -16 10 -64 33 -105 51 -41 19 -91 44 -110 55 -19 11 -87 48 -150 82
-63 34 -128 72 -145 85 -16 12 -46 29 -65 38 -19 8 -62 36 -95 61 -33 25 -67
48 -75 52 -8 4 -41 25 -73 47 -33 23 -70 48 -83 57 -13 9 -45 37 -70 62 -25
26 -54 47 -65 47 -10 0 -60 35 -110 78 -50 42 -122 102 -158 133 -36 31 -123
114 -194 184 -94 94 -126 132 -122 146 3 9 1 20 -5 24 -5 3 -10 1 -10 -4 0
-23 -26 -9 -72 36 -26 26 -48 54 -48 62 0 18 -29 51 -45 51 -14 0 -56 46 -120
130 -27 36 -74 95 -104 132 -83 100 -185 235 -196 261 -5 13 -27 38 -47 56
-21 18 -38 41 -38 50 0 9 -34 68 -75 131 -41 63 -93 142 -114 175 -22 33 -65
112 -96 175 -31 63 -65 131 -75 150 -32 60 -117 243 -135 290 -9 25 -23 52
-30 60 -7 8 -16 31 -20 50 -4 19 -20 61 -36 92 -16 32 -29 65 -29 75 -1 10 -9
36 -20 58 -11 22 -19 43 -20 48 0 4 -8 26 -19 50 -10 23 -24 62 -30 87 -7 25
-18 59 -26 75 -23 50 -28 69 -26 97 2 16 -6 39 -18 54 -11 14 -23 42 -26 63
-14 80 -29 147 -38 165 -5 11 -11 39 -13 63 -2 24 -9 53 -16 66 -6 12 -11 38
-9 58 1 21 -2 40 -8 44 -6 3 -11 19 -11 34 0 15 -4 31 -9 37 -15 16 -43 153
-35 177 18 60 47 59 50 -2z m11295 -1 c5 0 9 -7 9 -15 0 -19 -34 -20 -49 -2
-13 16 -3 30 17 22 7 -3 18 -5 23 -5z m115 -85 c10 -8 14 -15 7 -15 -6 0 -15
5 -18 10 -4 6 -18 2 -36 -10 -33 -24 -38 -20 -11 9 21 24 33 25 58 6z m-78
-157 c7 -7 12 -19 12 -27 0 -11 -4 -10 -20 4 -21 19 -26 35 -12 35 4 0 13 -5
20 -12z m-108 -18 c18 -18 18 -21 5 -26 -19 -8 -28 0 -32 26 -4 25 2 25 27 0z
m-23 -104 c-15 -23 -15 -25 1 -28 13 -3 9 -8 -16 -22 -36 -19 -52 -17 -27 4 8
7 15 19 15 28 0 17 30 55 38 47 3 -2 -3 -15 -11 -29z m-11 -493 c17 -23 18
-56 2 -51 -12 4 -31 68 -20 68 2 0 11 -8 18 -17z m-151 -188 c0 -28 -29 -25
-33 3 -3 19 0 23 15 20 10 -2 18 -12 18 -23z m106 -27 c-10 -28 -34 -43 -55
-35 -21 8 -12 27 14 27 10 0 20 7 24 15 3 8 10 15 15 15 6 0 7 -9 2 -22z
m-150 -87 c16 -13 21 -23 14 -30 -19 -18 -69 -40 -79 -34 -5 4 5 12 24 18 19
6 36 17 38 23 6 19 -37 14 -69 -9 -36 -26 -37 -18 -1 21 32 35 42 36 73 11z
m45 -136 c-26 -20 -41 -7 -20 16 13 14 21 16 28 9 8 -8 6 -15 -8 -25z m-26
-92 c0 -42 -16 -61 -24 -30 -7 28 1 57 15 57 5 0 9 -12 9 -27z m-550 -889
c-12 -13 -11 -17 1 -25 12 -7 11 -9 -3 -9 -9 0 -19 4 -22 8 -6 10 24 56 31 48
3 -3 0 -13 -7 -22z m210 -49 c0 -6 -17 -9 -40 -7 -52 5 -52 23 0 20 22 -2 40
-8 40 -13z m-152 -43 c36 36 35 14 -1 -26 -35 -38 -47 -38 -47 0 0 12 -7 24
-15 28 -8 3 -15 11 -15 18 0 6 13 0 28 -15 l28 -27 22 22z m-94 -88 c9 -3 13
-10 10 -16 -3 -5 -12 -4 -20 3 -12 10 -13 9 -8 -5 5 -12 2 -15 -10 -10 -19 7
-21 20 -3 27 6 3 13 6 14 6 1 1 8 -2 17 -5z m6 -106 c-1 -17 -28 -53 -35 -46
-8 7 16 58 27 58 4 0 8 -6 8 -12z m-6 -88 c29 -30 30 -60 1 -60 -18 0 -20 16
-2 24 6 3 1 3 -11 0 -21 -5 -23 -3 -18 14 10 29 -9 35 -46 15 -73 -39 -84 -42
-84 -22 0 13 7 19 21 19 11 0 38 9 60 20 22 11 42 20 45 20 3 0 18 -14 34 -30z
m-214 0 c11 -6 17 -17 14 -25 -8 -19 -44 -2 -44 20 0 18 5 18 30 5z m172 -76
c5 -43 -5 -52 -21 -18 -7 17 -17 24 -26 20 -10 -4 -15 1 -15 14 0 15 7 20 29
20 26 0 29 -4 33 -36z m-61 -84 c-12 -11 -27 -17 -32 -14 -17 10 -9 23 19 27
15 2 29 5 32 5 3 1 -6 -7 -19 -18z m319 -67 c0 -9 10 -8 36 4 32 16 37 16 47
2 7 -8 26 -21 44 -28 32 -13 32 -14 18 -42 -10 -18 -11 -30 -5 -34 6 -4 -9
-27 -35 -52 -42 -44 -55 -72 -19 -42 15 12 17 12 12 -1 -2 -8 -25 -26 -50 -40
-49 -27 -98 -75 -98 -96 0 -18 -61 -63 -77 -57 -8 3 -13 -2 -13 -13 0 -26 -37
-84 -58 -90 -41 -14 -62 -29 -62 -46 0 -25 -16 -23 -24 5 -9 34 -7 42 14 64
16 18 17 22 5 27 -23 8 -18 29 5 23 13 -3 20 0 20 9 0 8 -9 14 -20 14 -24 0
-24 0 -5 36 17 34 12 43 -12 22 -10 -9 -29 -19 -42 -23 -13 -4 -19 -10 -13
-14 9 -5 16 -41 13 -65 -1 -4 -10 2 -20 15 -18 21 -22 23 -41 11 -19 -12 -19
-9 6 26 37 51 222 279 252 310 12 12 22 27 22 32 0 5 6 13 13 17 8 4 22 20 31
35 15 23 20 25 37 15 10 -6 19 -17 19 -24z m-489 -127 c12 7 11 -13 -2 -37
-11 -21 -29 -17 -29 7 0 9 5 12 11 8 8 -4 9 1 5 17 -3 13 -3 18 0 11 3 -6 10
-10 15 -6z m730 -185 c16 -16 29 -33 29 -37 0 -4 15 -22 33 -39 17 -18 52 -54
77 -81 116 -125 405 -379 453 -397 9 -3 17 -16 17 -27 0 -11 7 -20 15 -20 8 0
38 -16 65 -35 28 -20 55 -33 59 -30 5 2 14 -2 21 -10 7 -8 21 -15 32 -15 12 0
22 -9 25 -20 4 -16 8 -18 19 -9 28 23 15 -41 -18 -89 -80 -118 -388 -452 -418
-452 -9 0 -27 11 -40 25 -12 13 -27 22 -31 19 -5 -3 -9 0 -9 6 0 6 8 9 18 6 9
-3 30 -8 46 -12 28 -7 28 -6 21 27 -4 19 -12 39 -17 46 -6 8 -3 15 11 23 12 6
21 19 21 28 0 10 7 28 16 40 12 18 13 26 4 37 -6 8 -17 12 -25 9 -7 -3 -16 -1
-20 5 -3 6 -18 11 -31 11 -34 0 -26 -24 9 -28 40 -5 33 -29 -10 -37 -33 -6
-40 -3 -61 20 -13 15 -25 25 -28 23 -2 -3 7 -17 21 -32 14 -15 25 -36 25 -47
0 -10 5 -19 12 -19 6 0 8 3 5 7 -9 8 12 33 28 33 11 0 10 -7 -2 -32 -9 -18
-17 -34 -19 -36 -6 -9 -44 20 -38 29 3 6 -6 28 -20 49 -14 22 -26 42 -26 46 0
3 18 27 40 52 27 30 37 49 31 55 -7 7 -15 6 -25 -2 -12 -10 -17 -8 -26 9 -6
11 -15 18 -20 15 -12 -7 -1 -43 15 -47 7 -2 -13 -30 -48 -68 -39 -43 -62 -60
-65 -51 -2 7 -13 22 -23 32 -17 17 -17 18 2 24 27 9 24 25 -6 25 -34 0 -31 16
5 29 28 9 29 12 18 31 -17 26 -24 25 -32 -5 -11 -45 -31 -30 -26 20 2 23 -8
16 -24 -17 -6 -12 -17 -23 -24 -26 -11 -3 -12 7 -7 50 6 45 4 56 -13 71 -18
16 -20 16 -26 2 -5 -15 -9 -14 -36 5 -29 21 -29 22 -15 50 20 38 19 50 -1 22
-11 -16 -25 -22 -51 -22 l-35 0 17 26 c16 25 16 28 0 65 -19 41 -31 42 -46 1
-7 -18 -13 -22 -20 -15 -18 18 1 54 32 65 16 5 29 16 29 24 0 27 -37 14 -84
-31 -26 -24 -45 -36 -41 -27 4 9 11 32 16 49 6 18 15 36 22 40 7 5 23 25 36
46 16 26 30 37 47 37 16 0 22 4 18 14 -8 21 -44 -1 -94 -55 -39 -43 -40 -43
-40 -17 0 15 -4 30 -10 33 -5 3 -10 15 -10 26 0 10 -4 19 -10 19 -5 0 -10 -15
-10 -34 0 -19 5 -38 10 -41 12 -8 13 -42 1 -49 -5 -3 -8 2 -7 12 1 11 -6 17
-22 17 -13 0 -28 8 -33 18 -6 9 -19 17 -29 17 -22 0 -26 10 -9 27 9 9 5 14
-14 18 -14 4 -30 4 -36 1 -5 -4 -12 -2 -16 4 -6 10 0 11 70 14 31 1 42 6 50
23 5 13 14 24 20 26 20 8 55 -13 55 -32 0 -21 26 -36 36 -20 8 13 -33 57 -60
64 -12 4 -31 11 -44 17 -17 9 -25 9 -34 0 -8 -8 -15 -9 -25 -1 -16 14 -17 30
0 28 29 -4 38 2 32 20 -3 12 0 21 11 25 21 8 34 -1 27 -20 -7 -18 25 -44 45
-36 9 3 12 14 8 33 -3 15 -1 29 4 31 5 2 7 13 3 26 -3 14 -11 21 -19 18 -40
-17 -45 -15 -11 4 34 19 51 50 27 50 -20 0 -9 28 17 45 21 14 30 15 45 6 23
-15 28 -14 28 4 0 9 -10 15 -26 15 -16 0 -24 5 -21 13 2 7 19 11 41 11 35 -2
36 -1 21 16 -10 11 -14 26 -10 37 6 19 81 83 97 83 5 0 23 -13 39 -29z m-9333
-148 c2 -9 -7 -13 -27 -13 -31 0 -42 14 -18 23 19 8 40 3 45 -10z m8765 -13
c3 -11 2 -20 -2 -20 -5 0 -16 9 -26 20 -18 19 -17 20 2 20 12 0 23 -8 26 -20z
m16 -57 c18 -15 18 -19 5 -37 -8 -11 -14 -28 -14 -37 0 -12 -6 -16 -20 -12
-24 6 -26 28 -4 37 12 4 14 14 9 36 -8 34 -3 37 24 13z m-543 -29 c13 -19 14
-28 5 -37 -8 -8 -11 -6 -11 10 0 11 -10 28 -22 36 -19 13 -20 16 -6 16 10 1
25 -10 34 -25z m776 -25 c-24 -17 -45 -29 -48 -27 -5 6 66 56 80 57 6 1 -9
-13 -32 -30z m-574 -226 c2 -8 -5 -13 -17 -13 -12 0 -21 -5 -21 -12 0 -8 -3
-9 -10 -2 -16 16 0 45 23 42 11 -2 22 -9 25 -15z m131 -50 c-6 -7 -17 -13 -25
-13 -7 0 -15 -9 -19 -19 -8 -28 -44 -71 -58 -71 -13 0 -47 54 -47 75 0 9 6 12
16 8 13 -5 15 -2 9 15 -7 25 -2 27 26 12 15 -9 19 -7 19 5 0 13 6 15 30 10 25
-5 30 -3 30 12 1 17 1 17 15 -1 11 -14 12 -23 4 -33z m-8019 -53 c-33 -26 -60
-26 -29 0 13 10 31 19 39 19 10 1 6 -6 -10 -19z m8640 -139 c0 -10 -10 -27
-23 -39 -22 -21 -23 -21 -35 -2 -11 18 -9 22 13 30 14 5 25 17 25 25 0 9 5 13
10 10 6 -3 10 -14 10 -24z m-484 5 c4 -10 15 -13 40 -9 29 5 34 3 34 -14 0
-29 -7 -32 -48 -21 -38 10 -65 34 -56 49 8 14 24 11 30 -5z m1639 -36 c-5 -16
-2 -20 18 -20 14 0 28 6 31 13 3 8 8 7 16 -5 6 -10 19 -18 29 -18 22 0 51 -40
51 -70 0 -32 -16 -56 -102 -156 -43 -51 -78 -95 -78 -99 0 -16 -349 -403 -389
-431 -9 -6 -27 -14 -41 -18 -22 -6 -21 -3 12 27 27 24 34 37 27 44 -15 15 -3
34 16 27 15 -6 29 29 23 56 -2 7 8 16 22 20 33 8 40 40 8 40 -35 0 -68 11 -68
22 0 6 8 7 18 3 43 -18 63 -17 78 4 8 11 22 21 30 21 8 0 14 6 14 14 0 8 9 21
20 29 25 17 19 62 -11 77 -19 11 -37 -4 -19 -15 18 -11 10 -23 -20 -30 -38 -8
-46 -21 -20 -35 11 -6 20 -15 20 -20 0 -16 -22 -11 -45 10 l-22 21 -73 -86
c-40 -47 -76 -85 -80 -85 -4 0 -11 12 -15 27 -5 22 1 34 46 79 29 29 57 50 62
47 6 -3 7 -1 3 5 -8 13 34 82 49 82 6 0 30 26 55 57 25 31 83 100 129 152 46
53 92 110 103 128 10 17 26 34 34 37 9 3 14 11 12 18 -4 10 30 35 60 47 2 0 0
-8 -3 -19z m-1465 -31 c19 -18 36 -27 38 -20 5 15 22 14 22 -1 0 -7 5 -20 10
-28 9 -13 11 -13 21 0 8 12 9 9 5 -11 -4 -17 -1 -31 9 -39 12 -10 15 -9 15 4
0 9 5 16 10 16 6 0 10 -6 10 -14 0 -8 12 -17 28 -21 15 -3 35 -14 44 -22 16
-14 18 -14 24 1 7 17 34 22 34 6 0 -5 -7 -10 -16 -10 -11 0 -14 -8 -12 -27 2
-23 8 -28 32 -28 21 0 31 -6 37 -22 8 -21 29 -29 66 -24 7 1 19 -11 27 -27 8
-16 23 -32 32 -36 16 -6 15 -8 -3 -29 -10 -12 -24 -34 -30 -48 -10 -24 -15
-26 -45 -20 -43 9 -47 33 -12 78 24 32 29 34 39 19 17 -23 28 -20 13 4 -21 34
-35 30 -64 -16 -15 -24 -31 -44 -35 -44 -14 0 -30 30 -27 52 2 19 -1 22 -20
20 -25 -4 -62 23 -62 44 0 22 -28 42 -52 37 -17 -3 -27 3 -40 24 -22 37 -108
121 -108 105 0 -7 -4 -12 -10 -12 -5 0 -10 6 -10 14 0 8 -10 18 -22 22 -42 13
-59 64 -22 64 8 0 14 5 14 10 0 19 26 10 60 -21z m357 -11 c13 -12 23 -25 23
-29 0 -11 -38 1 -51 17 -9 11 -13 11 -25 -1 -8 -7 -11 -21 -7 -31 4 -12 3 -15
-5 -10 -19 12 -14 44 10 60 28 20 27 20 55 -6z m109 -55 c-3 -8 -1 -11 4 -8 6
3 10 -4 10 -16 0 -23 -3 -22 -53 20 -18 15 -18 16 5 22 29 7 41 1 34 -18z
m1539 -110 c-11 -7 -22 -13 -27 -13 -14 0 -8 19 9 29 25 13 40 1 18 -16z
m-201 -15 c7 -5 3 -17 -12 -35 -56 -71 -73 -103 -62 -123 5 -10 10 -21 10 -24
0 -12 -24 -6 -42 11 -17 15 -18 14 -18 -17 0 -38 -35 -103 -79 -143 -26 -24
-31 -25 -39 -12 -12 23 -3 78 12 66 19 -16 76 14 76 40 0 21 -1 21 -18 6 -20
-19 -42 -22 -42 -8 0 5 11 18 25 29 14 11 25 26 25 33 0 8 23 37 51 64 28 28
60 72 72 99 12 28 23 43 25 35 3 -8 10 -17 16 -21z m-1340 -75 c4 -13 5 -23 2
-23 -8 0 -36 56 -36 72 0 16 25 -20 34 -49z m1486 45 c0 -7 -9 -24 -20 -38
-16 -21 -20 -22 -20 -7 0 23 18 57 30 57 6 0 10 -6 10 -12z m143 -25 c4 -3 2
-12 -3 -18 -11 -13 -60 -8 -60 5 0 5 9 6 20 3 11 -3 20 0 20 6 0 12 13 15 23
4z m-4088 -81 c-3 -3 -11 1 -19 7 -12 10 -13 16 -3 32 11 18 12 18 19 -8 4
-15 5 -29 3 -31z m3963 -9 c17 -13 32 -31 32 -39 0 -10 -15 -2 -45 23 -25 20
-45 41 -45 46 0 10 13 3 58 -30z m96 12 c4 -14 13 -25 21 -25 8 0 15 -5 15
-10 0 -11 29 -24 75 -36 20 -5 27 -1 34 17 8 20 10 17 10 -23 1 -50 -11 -62
-29 -29 -6 12 -33 26 -64 35 -30 9 -58 21 -61 27 -5 7 -14 4 -26 -7 -23 -21
-25 -7 -7 43 14 39 24 42 32 8z m-1438 -10 c8 -8 22 -19 31 -23 9 -5 13 -15 9
-21 -5 -7 -17 -1 -37 18 -16 16 -29 32 -29 35 0 10 11 7 26 -9z m-111 -44 c30
-22 39 -35 40 -57 0 -22 5 -29 20 -29 11 -1 19 -6 18 -13 -2 -7 -4 -34 -5 -62
-2 -39 2 -53 17 -64 11 -9 14 -16 8 -16 -7 0 -13 -5 -13 -11 0 -17 19 0 36 33
11 22 13 33 5 41 -8 8 -11 4 -11 -13 0 -23 0 -23 -21 -4 l-20 18 23 9 c12 4
25 13 29 19 4 6 10 1 14 -13 4 -13 15 -35 24 -49 l16 -24 5 29 c7 37 30 46 26
10 -2 -19 -16 -36 -46 -56 -51 -34 -63 -36 -90 -9 -11 11 -26 20 -34 20 -22 0
-36 74 -20 104 7 15 9 28 3 31 -15 10 -29 -5 -29 -31 0 -24 -3 -25 -32 -19
-43 10 -48 13 -48 34 0 9 -5 22 -12 29 -8 8 -8 15 2 27 11 13 10 14 -4 9 -27
-10 -19 17 16 53 18 18 34 33 37 33 4 -1 24 -14 46 -29z m-2735 -68 c0 -25
-30 -13 -46 18 l-16 31 31 -18 c17 -10 31 -24 31 -31z m60 43 c0 -12 -13 -36
-20 -36 -4 0 -10 9 -13 20 -4 15 0 20 14 20 10 0 19 -2 19 -4z m-128 -66 c8 0
6 -7 -5 -17 -9 -9 -20 -13 -24 -9 -5 5 -2 11 4 13 10 4 9 8 -2 20 -8 8 -15 22
-15 31 1 11 6 8 16 -10 8 -16 20 -28 26 -28z m4593 -20 c9 15 22 12 29 -5 4
-12 -1 -15 -27 -14 -17 1 -41 -2 -52 -6 l-20 -8 20 20 c13 14 24 17 32 11 7
-5 14 -5 18 2z m4 -71 c29 16 38 13 15 -4 -23 -18 -56 -19 -72 -3 -21 21 -13
29 12 13 19 -13 29 -14 45 -6z m-513 -40 c-3 -15 -1 -31 4 -34 17 -10 11 -41
-12 -61 -12 -10 -18 -13 -14 -6 4 7 8 42 7 78 0 43 3 63 10 58 6 -3 8 -19 5
-35z m614 -5 c0 -8 -4 -14 -10 -14 -5 0 -10 4 -10 10 0 5 -8 6 -17 3 -16 -6
-16 -5 -5 10 15 18 42 12 42 -9z m-695 -34 c9 -15 -16 -43 -27 -32 -10 10 0
42 12 42 5 0 12 -5 15 -10z m-4554 -14 c-9 -11 -9 -19 1 -35 17 -28 5 -36 -31
-20 l-31 14 28 26 c28 28 53 39 33 15z m4479 -28 c0 -4 -11 -6 -25 -2 -15 4
-25 2 -25 -5 0 -6 7 -11 16 -11 8 0 12 -4 9 -10 -19 -31 -40 9 -23 45 11 24
12 24 30 9 10 -10 18 -21 18 -26z m740 22 c0 -11 7 -23 15 -26 8 -4 13 -10 10
-15 -8 -12 -45 23 -45 43 0 10 5 18 10 18 6 0 10 -9 10 -20z m-5144 -10 c21
-8 29 -8 36 2 6 10 8 8 8 -4 0 -20 -4 -21 -49 -12 -17 4 -31 10 -31 15 0 11 3
11 36 -1z m5296 -65 c11 -14 29 -25 41 -26 20 0 20 -1 5 -11 -14 -11 -15 -14
-1 -37 l15 -26 -21 24 c-14 15 -28 21 -41 18 -11 -3 -20 -1 -20 4 0 5 12 9 28
9 l27 0 -32 26 c-18 14 -33 30 -33 35 0 16 11 10 32 -16z m-702 -7 c0 -6 15
-24 33 -39 17 -15 29 -31 24 -35 -4 -4 -21 5 -37 21 -19 18 -30 24 -30 15 0
-8 12 -25 27 -37 14 -13 23 -26 19 -30 -3 -4 -12 -1 -18 5 -7 7 -24 12 -38 12
-14 0 -35 7 -46 15 -17 13 -17 15 -1 16 37 3 42 5 39 18 -4 19 8 51 19 51 5 0
9 -5 9 -12z m-1020 -5 c-8 -3 -23 -15 -34 -25 -18 -19 -18 -21 0 -74 10 -30
22 -54 26 -54 17 0 47 36 64 75 l18 40 7 -40 c5 -31 3 -42 -10 -52 -15 -12
-15 -14 2 -24 9 -5 17 -15 17 -21 0 -6 -8 -4 -18 5 -15 14 -23 15 -50 5 -18
-7 -32 -18 -32 -24 0 -24 -29 -38 -56 -25 -42 19 -94 65 -94 83 0 23 80 114
97 110 7 -2 16 4 19 13 4 8 17 15 33 14 15 0 20 -3 11 -6z m-3887 -45 c11 -9
17 -22 15 -28 -4 -14 -68 42 -68 60 0 13 11 6 53 -32z m4631 25 c10 -25 -10
-39 -23 -15 -10 19 -6 32 10 32 4 0 10 -8 13 -17z m-594 -67 c-11 -14 -50 -29
-50 -19 0 9 29 33 39 33 6 0 12 8 12 18 1 16 2 16 6 -1 3 -10 0 -24 -7 -31z
m684 18 c46 -26 59 -44 32 -44 -8 0 -18 5 -21 10 -3 6 -16 10 -28 10 -12 0
-30 12 -40 25 -24 34 -4 33 57 -1z m-389 -21 c-10 -15 -45 -50 -78 -78 -89
-73 -106 -84 -67 -39 51 55 154 153 158 149 2 -2 -4 -16 -13 -32z m840 -23 c8
0 17 -5 20 -11 8 -12 -23 -49 -42 -49 -7 0 -13 -4 -13 -10 0 -5 -5 -10 -12
-10 -6 0 -3 9 8 21 11 12 18 33 17 52 -1 18 1 26 3 20 3 -7 12 -13 19 -13z
m-185 -20 c0 -21 -24 -28 -35 -10 -8 14 3 30 21 30 8 0 14 -9 14 -20z m80 -16
c7 -13 19 -24 27 -24 7 0 13 -7 13 -16 0 -9 8 -22 17 -29 15 -11 15 -13 -5
-24 -19 -10 -26 -8 -46 14 -27 29 -36 31 -36 10 0 -8 5 -15 10 -15 6 0 10 -5
10 -11 0 -6 -6 -9 -12 -6 -7 2 -21 -3 -31 -11 -9 -8 -35 -16 -57 -17 -38 -2
-40 -1 -40 29 0 30 0 30 -16 8 -15 -22 -41 -32 -28 -11 4 7 7 21 8 32 1 21 26
37 26 17 0 -7 7 -10 15 -6 8 3 19 -3 25 -13 13 -26 48 -33 59 -13 6 11 4 20
-7 29 -11 8 -12 12 -4 13 6 0 12 5 12 11 0 6 -9 8 -22 4 l-23 -7 20 20 c11 12
26 28 33 36 15 19 35 12 52 -20z m-345 10 c29 -19 40 -44 20 -44 -8 0 -15 6
-15 14 0 8 -6 16 -12 19 -16 5 -65 -18 -71 -35 -3 -7 -6 -3 -6 9 -1 20 31 53
52 53 4 0 18 -7 32 -16z m37 -86 c-6 -6 -24 -12 -39 -13 -15 -1 -36 -5 -47
-10 -16 -7 -17 -6 -6 14 9 18 19 22 45 20 19 -2 37 0 41 4 4 4 10 5 13 2 2 -3
0 -10 -7 -17z m1178 12 c0 -16 -50 -34 -97 -34 -35 -1 -43 2 -43 17 0 9 5 17
10 17 6 0 10 -5 10 -11 0 -14 89 -4 104 11 13 13 16 13 16 0z m36 -50 c-1 -16
-4 -30 -7 -30 -9 0 -19 42 -13 52 11 17 21 7 20 -22z m-7579 -16 c3 -9 -2 -32
-13 -51 -10 -19 -20 -30 -22 -24 -2 7 2 18 8 26 7 8 9 26 6 40 -7 28 11 35 21
9z m6409 -6 c-4 6 -2 12 3 12 6 0 11 -9 11 -20 0 -23 -10 -26 -28 -8 -18 18
-14 32 5 17 11 -10 14 -10 9 -1z m-6256 -9 c0 -5 5 -7 10 -4 13 8 13 3 0 -30
-5 -14 -14 -23 -20 -20 -13 8 -13 65 0 65 6 0 10 -5 10 -11z m-220 -44 c0 -11
-38 -4 -49 8 -19 24 8 38 30 16 10 -10 19 -21 19 -24z m316 34 c6 -10 -11 -28
-28 -29 -5 0 -4 19 1 38 2 7 21 1 27 -9z m6507 -30 c-5 -18 -2 -20 23 -17 23
2 29 -1 29 -16 0 -30 -39 -38 -70 -14 l-26 20 22 24 c27 29 29 29 22 3z m182
6 c12 -3 22 -16 22 -28 2 -17 0 -19 -8 -7 -8 13 -11 12 -24 -4 -8 -11 -15 -26
-15 -33 0 -21 -28 -15 -35 7 -8 26 11 51 33 43 13 -5 14 -3 5 7 -8 8 -21 10
-40 5 -43 -12 -71 -5 -58 15 7 11 79 8 120 -5z m-378 -30 c3 -9 3 -18 0 -21
-7 -8 -47 15 -47 26 0 16 40 11 47 -5z m101 -64 c-10 -21 -29 -47 -40 -57 -21
-18 -21 -17 1 14 13 18 21 36 17 39 -9 9 13 43 28 43 10 0 9 -9 -6 -39z m200
17 c18 -18 14 -28 -11 -28 -23 0 -47 17 -47 32 0 12 45 9 58 -4z m110 -36 c6
-2 12 1 12 7 0 6 7 11 15 11 10 0 15 -10 15 -27 0 -33 8 -46 34 -60 18 -10 18
-12 -9 -39 -18 -18 -32 -45 -37 -73 -9 -48 -1 -61 38 -61 12 0 24 -7 28 -15
12 -32 -97 -9 -121 25 -8 11 -21 20 -29 20 -8 0 -14 4 -14 9 0 5 -9 11 -20 14
-11 3 -20 12 -20 21 0 18 36 40 51 30 15 -9 0 36 -17 54 -8 7 -12 18 -8 23 3
5 -5 18 -18 29 l-23 19 25 0 c14 1 35 -10 48 -23 25 -28 29 -41 7 -32 -8 3
-15 2 -15 -3 0 -16 49 -22 70 -9 22 14 23 18 14 42 -4 10 -18 16 -40 16 -37 0
-40 6 -22 46 l13 27 5 -23 c3 -13 11 -25 18 -28z m-468 8 c32 -32 23 -44 -10
-13 -16 15 -30 29 -30 30 0 10 23 0 40 -17z m560 -5 c7 -8 20 -15 28 -15 13 0
12 -3 -4 -15 -26 -20 -1 -19 42 1 19 9 38 14 41 10 4 -3 15 1 25 11 10 9 21
13 24 10 12 -11 -5 -37 -31 -47 -42 -16 -25 -39 28 -40 20 -1 39 -18 81 -75
15 -20 15 -20 16 2 0 12 4 24 9 28 12 7 32 -29 27 -47 -2 -7 -7 -25 -10 -40
-4 -16 -11 -28 -17 -28 -6 0 -7 5 -4 10 12 19 -5 30 -31 18 -33 -16 -54 3 -36
32 17 28 15 48 -7 60 -33 17 -46 12 -26 -10 25 -27 12 -37 -14 -11 -12 12 -29
21 -40 21 -26 0 -54 -62 -46 -102 9 -40 -12 -34 -38 12 -21 39 -16 76 7 44 8
-10 18 -16 22 -11 4 4 -2 21 -15 37 -26 36 -19 54 16 45 18 -4 24 -2 21 7 -3
7 -15 15 -29 16 -30 5 -79 50 -79 74 0 22 23 24 40 3z m-286 -31 c-9 -13 -20
-24 -25 -24 -13 0 -11 8 9 35 22 30 37 21 16 -11z m-66 4 c20 -20 13 -32 -7
-14 -18 17 -20 16 -26 -3 -3 -12 -11 -21 -16 -21 -10 0 -5 13 14 38 12 15 20
15 35 0z m9 -65 c-13 -13 -20 -14 -29 -5 -9 9 -6 14 13 21 31 11 37 5 16 -16z
m1126 -12 c-5 -19 -31 -36 -40 -27 -7 7 29 56 37 51 5 -3 6 -14 3 -24z m-1017
-47 c-37 -35 -40 -29 -9 18 22 32 29 37 31 23 2 -10 -7 -28 -22 -41z m-167
-14 c-23 -30 -39 -39 -39 -20 0 16 54 73 58 61 2 -5 -7 -24 -19 -41z m-129 30
c13 -9 12 -12 -4 -25 -23 -17 -86 -20 -86 -4 0 6 14 9 33 7 25 -2 32 1 31 15
-2 19 4 21 26 7z m518 -24 c5 -23 -14 -44 -28 -30 -12 12 -1 56 14 51 6 -2 13
-12 14 -21z m-1065 -37 c7 -27 -7 -43 -23 -24 -7 8 -19 15 -26 15 -8 0 -14 6
-14 13 0 21 58 17 63 -4z m1220 -3 c23 -18 22 -36 -3 -36 -20 0 -44 32 -33 44
9 9 16 7 36 -8z m-423 -4 c0 -14 -39 -46 -47 -39 -3 4 2 16 12 27 19 21 35 26
35 12z m120 -54 c0 -29 -1 -31 -16 -17 -16 16 -64 14 -64 -2 0 -5 -7 -9 -15
-9 -8 0 -15 5 -15 10 0 12 47 33 72 32 10 0 20 3 23 9 11 16 15 10 15 -23z
m304 -13 c16 -20 22 -35 15 -35 -19 0 -79 43 -79 58 0 25 38 11 64 -23z
m-1083 -34 c-6 -11 -21 -26 -32 -32 -18 -9 -17 -5 7 25 30 37 43 41 25 7z
m1906 -1 c-3 -12 1 -24 11 -29 9 -5 14 -13 10 -16 -11 -11 -25 3 -36 35 -9 25
-8 30 5 30 10 0 14 -6 10 -20z m-1157 4 c0 -3 -5 -15 -11 -26 -9 -16 -13 -18
-20 -7 -4 8 -3 19 3 26 11 13 28 18 28 7z m151 -4 c10 0 19 -4 19 -9 0 -14
-43 -21 -57 -9 -18 15 -16 31 3 24 9 -3 24 -6 35 -6z m125 -9 l24 -19 -20 -23
c-10 -13 -19 -19 -20 -13 0 5 5 15 12 22 9 9 8 12 -8 12 -20 0 -44 17 -44 32
0 14 31 8 56 -11z m-233 -34 c-13 -24 -18 -28 -21 -15 -4 22 16 60 28 53 6 -4
3 -20 -7 -38z m1253 19 c10 -8 16 -17 12 -21 -7 -7 -48 16 -48 27 0 12 14 9
36 -6z m-1061 -26 c8 -12 -5 -60 -16 -60 -5 0 -9 7 -9 15 0 8 5 15 10 15 6 0
10 5 10 10 0 6 -7 10 -15 10 -8 0 -15 -7 -15 -15 0 -16 -12 -20 -23 -8 -9 8
22 43 39 43 7 0 15 -4 19 -10z m-111 -25 c7 -19 -3 -73 -15 -81 -5 -3 -9 18
-9 45 0 49 12 67 24 36z m-419 -5 c10 -16 -41 -43 -67 -34 -22 8 -22 8 7 14
17 3 29 11 28 18 -3 14 23 16 32 2z m-555 -40 c11 -20 -3 -30 -15 -10 -4 6
-11 8 -16 5 -10 -7 -12 8 -2 18 11 12 22 8 33 -13z m105 -32 c-6 -18 27 -43
39 -30 4 4 12 -1 17 -11 7 -12 17 -15 35 -11 20 5 24 2 24 -15 0 -26 -7 -26
-45 -1 -16 11 -37 20 -45 20 -14 0 -60 46 -60 61 0 4 9 7 20 6 14 -1 18 -6 15
-19z m1067 -73 c6 -31 0 -37 -23 -24 -16 8 -17 13 -6 29 16 26 24 25 29 -5z
m1158 18 c0 -5 -9 -21 -20 -38 -15 -22 -20 -25 -20 -12 0 23 18 57 30 57 6 0
10 -3 10 -7z m-1224 -109 c-3 -8 -10 -14 -16 -14 -14 0 -13 26 3 51 12 20 12
20 15 -1 2 -12 1 -28 -2 -36z m1332 26 c13 0 22 -6 22 -15 0 -25 -22 -27 -62
-6 -38 19 -40 37 -3 27 11 -3 30 -6 43 -6z m-1018 -22 c0 -23 -17 -40 -34 -36
-15 3 -15 5 -1 26 18 24 35 29 35 10z m-152 -51 c-24 -23 -47 -40 -52 -38 -10
5 70 81 85 81 5 0 -10 -19 -33 -43z m102 -5 c0 -14 -23 -32 -41 -32 -28 0 -33
19 -7 29 29 12 48 13 48 3z m-61 -78 c1 -1 0 -7 -3 -13 -8 -12 -46 7 -46 22 0
7 38 0 49 -9z m-983 -16 c7 -11 -14 -38 -31 -38 -13 0 -28 38 -20 51 6 9 43 0
51 -13z m1037 15 c4 -3 2 -12 -5 -20 -8 -10 -8 -17 0 -25 9 -9 18 -6 35 10 25
24 37 28 37 13 0 -5 -14 -19 -31 -31 -29 -22 -31 -22 -44 -4 -14 18 -16 18
-36 -6 -22 -26 -22 -27 3 43 9 26 27 35 41 20z m1257 -10 c1 -24 34 -63 54
-63 22 0 28 -16 12 -29 -11 -10 -22 -5 -50 19 -19 17 -33 37 -30 45 3 7 0 16
-5 20 -6 3 -9 11 -6 16 10 15 25 10 25 -8z m-1090 -28 c0 -9 -9 -15 -25 -15
-26 0 -34 15 -12 23 23 10 37 7 37 -8z m510 4 c0 -6 -9 -13 -20 -16 -11 -3
-20 -12 -20 -19 0 -8 -9 -23 -21 -35 -22 -22 -19 -39 4 -20 11 9 17 8 27 -4
13 -15 5 -20 -27 -16 -14 2 -38 -38 -29 -47 4 -3 20 2 36 11 28 17 29 17 53
-5 16 -15 27 -39 31 -65 6 -42 6 -42 -29 -49 -29 -5 -35 -11 -35 -30 0 -43
-37 -46 -92 -8 -26 18 -53 34 -60 36 -19 7 2 30 22 25 14 -3 17 -1 13 11 -7
16 -39 52 -48 52 -11 0 -4 -29 7 -32 9 -3 8 -10 -5 -23 -13 -12 -15 -21 -8
-28 13 -13 14 -37 3 -37 -11 0 -36 51 -33 65 2 6 4 29 6 52 5 62 13 67 44 36
15 -16 39 -36 54 -47 15 -10 24 -22 21 -27 -3 -5 3 -6 12 -2 12 4 15 2 12 -8
-3 -8 -14 -13 -26 -11 -30 4 -28 -19 2 -48 32 -29 52 -21 65 27 6 21 20 45 31
53 14 10 19 22 14 33 -9 23 -30 21 -37 -3 -6 -24 -55 -28 -63 -5 -4 8 -12 15
-18 15 -7 0 -25 14 -41 30 -26 27 -27 30 -8 30 20 0 73 42 73 58 0 9 70 62 82
62 5 0 8 -5 8 -11z m-1509 -41 c11 3 12 7 -11 -58 l-20 -55 2 54 c2 52 0 56
-27 67 -26 11 -27 12 -9 22 15 9 22 7 38 -11 10 -12 23 -21 27 -19z m1233 -33
c32 -29 29 -54 -11 -85 -33 -26 -40 -25 -47 5 -6 24 13 105 25 105 3 0 18 -11
33 -25z m313 -1 c3 -8 -1 -23 -10 -32 -15 -14 -17 -14 -23 1 -8 21 1 47 16 47
6 0 13 -7 17 -16z m616 -21 c8 -7 -11 -33 -24 -33 -5 0 -9 9 -9 20 0 19 20 27
33 13z m-1179 -18 c3 -9 -1 -18 -10 -22 -19 -7 -28 2 -21 22 8 19 23 19 31 0z
m581 -43 c-6 -14 -8 -13 -16 7 -7 18 -6 27 3 32 15 10 23 -14 13 -39z m695 35
c0 -8 -13 -26 -30 -40 -35 -32 -40 -18 -7 23 24 32 37 37 37 17z m-2167 -27
c-5 -26 -3 -29 12 -23 13 4 16 3 11 -5 -9 -14 -42 -16 -51 -2 -5 8 21 60 31
60 2 0 1 -14 -3 -30z m1553 6 c11 -8 15 -18 10 -23 -5 -4 -11 -2 -13 5 -3 6
-9 12 -14 12 -6 0 -7 -4 -4 -10 3 -5 1 -10 -4 -10 -6 0 -11 9 -11 20 0 24 9
25 36 6z m-625 -17 c6 -12 23 -32 38 -45 14 -12 23 -26 18 -30 -4 -4 -18 3
-31 15 -14 13 -29 20 -34 17 -6 -3 -8 2 -5 13 3 10 0 22 -6 25 -14 9 -14 26
-1 26 5 0 14 -10 21 -21z m124 -11 c-16 -56 -23 -91 -19 -102 3 -7 -7 -23 -21
-36 -28 -27 -32 -21 -9 15 9 13 13 28 10 33 -4 7 -1 25 20 100 2 6 9 12 15 12
7 0 9 -8 4 -22z m468 -29 c3 -12 13 -20 24 -19 32 4 43 0 43 -14 0 -8 17 -16
43 -21 23 -4 36 -9 29 -12 -13 -5 -170 15 -184 23 -7 5 23 64 33 64 4 0 9 -9
12 -21z m743 3 c-3 -6 -22 -19 -41 -31 -26 -15 -35 -17 -35 -7 0 8 17 23 38
34 38 20 49 21 38 4z m-748 -91 c2 -1 -4 -11 -12 -23 -20 -28 -21 -52 -2 -45
21 8 49 -28 41 -52 -9 -30 -24 -26 -36 9 l-11 30 -31 -18 c-17 -9 -39 -26 -48
-36 -21 -25 -49 -15 -49 18 0 19 9 30 38 45 37 19 43 21 62 21 6 0 10 6 10 14
0 16 -48 28 -56 14 -3 -4 -10 -5 -16 -2 -29 18 57 37 110 25z m119 -49 c10
-11 17 -12 25 -4 8 8 17 8 30 1 26 -14 22 -30 -6 -23 -21 5 -24 3 -19 -14 7
-29 -12 -35 -52 -16 -37 17 -47 44 -17 44 11 0 13 3 6 8 -8 5 -9 14 -1 32 9
22 11 23 15 6 2 -11 11 -26 19 -34z m-600 -12 c-9 -25 -27 -42 -27 -26 0 15
21 56 29 56 5 0 4 -13 -2 -30z m182 11 c9 -6 23 -5 37 1 35 16 70 -11 77 -59
4 -21 16 -49 27 -61 20 -21 20 -22 2 -22 -21 0 -42 38 -42 75 0 30 -16 41 -36
24 -11 -9 -18 -9 -32 4 -9 8 -26 17 -36 18 -11 2 -21 10 -24 17 -4 14 7 15 27
3z m638 -8 c5 -15 -28 -26 -41 -13 -8 8 -7 14 4 20 17 11 32 8 37 -7z m612
-89 c-18 -19 -35 -32 -37 -30 -8 8 50 76 60 70 5 -4 -5 -21 -23 -40z m-2246
19 c-6 -16 -45 -14 -50 3 -2 6 9 11 26 11 21 0 28 -4 24 -14z m92 -43 l-17
-33 34 7 c43 8 56 -3 22 -20 -18 -10 -31 -10 -48 -3 l-23 11 19 40 c11 22 22
38 24 35 3 -3 -2 -20 -11 -37z m999 -30 c8 -62 3 -73 -29 -58 -24 11 -34 28
-16 28 5 0 11 18 15 40 9 55 22 50 30 -10z m106 -33 c0 -19 -37 -50 -49 -42
-17 10 -13 25 5 18 10 -4 17 1 21 16 6 23 23 29 23 8z m-1036 -13 c4 -9 4 -19
1 -22 -6 -6 -35 18 -35 29 0 16 28 10 34 -7z m1256 -13 c13 -25 13 -30 -2 -27
-29 6 -48 19 -48 32 0 21 38 17 50 -5z m-1300 -26 c10 -12 16 -13 26 -4 16 13
18 1 5 -20 -7 -11 -13 -10 -35 5 -26 19 -33 34 -17 34 5 0 14 -7 21 -15z m206
-20 c17 -13 17 -15 2 -16 -10 -1 -23 -2 -29 -3 -6 0 -17 -10 -25 -20 -18 -26
-18 -17 2 22 18 36 22 38 50 17z m1642 -52 c9 -7 12 -16 9 -20 -10 -10 -34 17
-41 47 -6 23 -6 23 5 5 6 -11 18 -26 27 -32z m469 11 c-29 -25 -47 -31 -47
-15 0 11 63 50 70 44 3 -3 -8 -16 -23 -29z m148 -24 c6 -10 -42 -59 -57 -60
-17 0 -7 29 12 35 11 3 20 13 20 21 0 16 16 19 25 4z" fill="#1C2826"/>
  <path d="M6108 13145 c-2 -1 -77 -5 -168 -9 -599 -22 -1286 -176 -1835 -411
-33 -14 -78 -33 -100 -42 -82 -33 -451 -226 -573 -300 -286 -172 -503 -329
-782 -567 -146 -124 -474 -456 -602 -608 -490 -581 -854 -1259 -1068 -1988
-12 -41 -28 -95 -35 -120 -18 -60 -52 -205 -60 -255 -3 -22 -10 -53 -15 -70
-5 -16 -17 -77 -26 -135 -9 -58 -20 -125 -25 -150 -13 -71 -49 -394 -57 -515
-11 -164 -6 -642 7 -780 27 -262 73 -583 105 -725 83 -360 139 -542 268 -870
84 -212 96 -237 210 -465 125 -247 202 -379 343 -590 326 -486 695 -884 1145
-1238 74 -59 149 -117 165 -130 51 -41 384 -261 491 -325 146 -87 448 -242
470 -242 11 0 25 -5 31 -11 14 -14 95 -49 288 -126 163 -64 268 -100 420 -142
61 -17 126 -36 145 -41 214 -61 455 -104 890 -160 47 -6 206 -14 355 -17 341
-7 525 4 927 56 349 46 946 216 1291 368 498 221 872 448 1301 792 523 420
986 964 1331 1566 66 114 206 393 255 505 18 41 41 95 53 120 23 53 37 91 122
340 54 157 96 299 136 460 9 34 37 173 79 390 19 97 41 273 55 444 3 37 8 73
12 78 9 16 12 632 2 738 -4 52 -10 118 -13 145 -4 51 -35 304 -41 340 -2 11
-8 56 -14 100 -6 44 -13 86 -16 95 -3 8 -7 29 -9 45 -7 51 -65 305 -92 400
-68 241 -78 274 -147 465 -43 119 -45 123 -75 190 -13 30 -40 93 -59 139 -19
46 -39 91 -43 100 -5 9 -39 77 -76 151 -98 197 -163 308 -313 535 -36 55 -70
107 -76 116 -24 38 -157 218 -203 274 -307 381 -634 701 -992 971 -58 43 -120
89 -138 101 -18 13 -38 28 -45 34 -13 12 -237 159 -241 159 -2 0 -52 30 -112
66 -101 62 -476 257 -569 296 -272 114 -503 199 -593 218 -24 6 -47 12 -52 15
-12 7 -383 100 -455 114 -121 22 -423 69 -495 77 -179 18 -670 39 -682 29z
m245 -92 c8 -7 7 -7 152 -17 164 -12 473 -48 605 -71 19 -4 71 -13 115 -20
236 -40 620 -152 925 -269 247 -95 576 -259 830 -414 58 -35 115 -68 128 -73
12 -5 22 -13 22 -19 0 -5 4 -10 10 -10 5 0 39 -20 76 -45 36 -25 69 -45 74
-45 5 0 15 -8 22 -18 7 -10 38 -35 68 -57 30 -22 61 -47 68 -57 7 -10 19 -18
26 -18 8 0 20 -7 27 -17 8 -9 50 -45 94 -81 151 -121 435 -390 435 -412 0 -5
6 -10 14 -10 16 0 143 -137 260 -280 47 -58 92 -112 99 -121 8 -9 25 -32 38
-50 13 -19 27 -36 30 -39 3 -3 29 -39 58 -80 28 -41 87 -127 131 -190 127
-182 243 -385 358 -622 107 -220 118 -247 210 -493 58 -153 153 -453 166 -522
3 -11 9 -38 15 -59 16 -55 69 -312 86 -414 48 -294 70 -582 70 -915 0 -257 -8
-394 -35 -606 -32 -252 -39 -297 -71 -449 -111 -528 -283 -1013 -513 -1448
-293 -556 -543 -898 -949 -1305 -270 -270 -624 -561 -865 -711 -45 -28 -101
-63 -125 -78 -277 -175 -559 -317 -924 -463 -234 -94 -644 -211 -928 -264
-332 -63 -977 -99 -1272 -72 -179 16 -459 50 -513 61 -25 5 -81 14 -125 21
-181 26 -583 137 -860 239 -360 133 -745 327 -1048 528 -164 110 -197 133
-286 200 -492 370 -845 728 -1161 1177 -47 66 -89 128 -95 137 -5 10 -26 41
-46 70 -56 83 -109 166 -109 172 0 3 -13 25 -30 49 -64 96 -311 600 -364 744
-7 21 -33 88 -56 148 -165 429 -294 1013 -325 1465 -8 117 -18 307 -17 345 0
341 25 641 77 930 9 50 25 140 36 200 50 288 192 749 327 1065 207 485 507
976 814 1333 40 47 106 123 146 170 142 165 458 459 697 648 240 190 546 385
851 540 671 342 1350 527 2109 575 174 10 285 11 291 2 3 -5 11 -5 17 0 7 6
31 9 55 7 23 -1 45 2 48 6 6 11 28 12 37 2z m2944 -920 c-1 -14 -9 -29 -16
-31 -10 -3 -12 0 -8 12 4 10 7 24 7 32 0 8 4 14 9 14 6 0 9 -12 8 -27z" fill="#1C2826"/>
  <path d="M5896 12514 c-9 -8 -16 -19 -16 -24 0 -17 22 -65 32 -72 11 -6 28
-58 47 -143 54 -244 74 -340 97 -455 16 -82 33 -142 43 -153 21 -21 125 -40
166 -29 28 8 31 14 66 138 20 71 49 176 64 234 15 58 29 114 32 124 8 29 19 2
28 -64 8 -68 62 -352 76 -402 11 -42 14 -43 120 -53 47 -4 69 -2 76 7 6 7 47
128 93 268 45 140 97 302 116 359 22 67 43 112 59 127 25 23 32 58 16 82 -6 9
-44 15 -124 19 l-116 6 -12 -25 c-9 -21 -8 -33 7 -64 10 -21 17 -47 16 -59 -3
-34 -112 -428 -118 -423 -2 3 -25 124 -74 398 -21 113 -36 169 -49 171 -39 7
-137 7 -150 0 -9 -5 -23 -33 -30 -63 -15 -61 -95 -356 -118 -437 -16 -57 -33
-55 -33 4 0 16 -9 74 -19 130 -52 266 -52 264 -35 297 8 16 14 44 12 61 -3 32
-3 32 -73 39 -184 19 -183 19 -199 2z" fill="#1C2826"/>
  <path d="M5166 12403 c-64 -20 -110 -41 -113 -50 -4 -9 3 -35 15 -57 12 -23
22 -52 22 -66 0 -37 -42 -230 -50 -230 -4 0 -47 45 -94 101 -83 96 -86 102
-81 139 4 28 1 42 -11 54 -19 19 -21 19 -169 -22 l-100 -28 0 -34 c0 -29 6
-38 41 -62 22 -15 79 -67 125 -115 46 -48 111 -114 144 -148 72 -72 78 -83
108 -205 22 -88 23 -98 9 -128 -18 -37 -4 -82 25 -82 31 0 207 51 231 67 30
19 23 57 -18 93 -37 32 -84 189 -77 253 8 74 96 411 118 450 22 40 19 91 -5
100 -7 3 -61 -11 -120 -30z" fill="#1C2826"/>
  <path d="M7276 12371 c-15 -17 -17 -30 -11 -82 4 -37 3 -70 -3 -83 -6 -11 -29
-84 -52 -161 -110 -369 -110 -369 -148 -387 -14 -7 -31 -26 -37 -42 -8 -25 -6
-31 18 -52 16 -13 35 -24 44 -24 8 0 88 -23 177 -51 298 -94 315 -98 337 -72
24 26 51 117 47 155 -3 29 -7 33 -35 36 -18 2 -43 -4 -55 -12 -12 -9 -38 -16
-58 -16 -47 0 -181 43 -193 61 -6 10 1 47 23 118 27 84 35 101 49 96 9 -4 53
-17 99 -31 46 -13 88 -26 93 -30 24 -14 49 9 66 62 22 70 14 78 -93 104 -150
35 -147 33 -112 139 31 96 30 96 128 65 68 -21 92 -34 120 -64 36 -40 67 -55
86 -42 13 8 44 110 44 145 0 13 -6 29 -13 36 -8 6 -78 29 -158 51 -79 22 -182
52 -229 66 -47 14 -92 27 -101 30 -9 2 -24 -5 -33 -15z" fill="#1C2826"/>
  <path d="M4220 12094 c-52 -24 -159 -74 -237 -111 l-143 -68 3 -35 c2 -30 8
-38 40 -54 41 -19 44 -26 224 -406 24 -52 51 -108 60 -123 11 -21 13 -43 8
-87 -6 -55 -5 -59 18 -74 24 -16 31 -13 253 92 126 59 243 115 259 123 18 9
31 23 33 38 5 34 -64 171 -86 171 -29 0 -60 -28 -67 -60 -4 -16 -21 -42 -38
-56 -30 -26 -175 -99 -182 -92 -12 13 -95 183 -95 194 0 10 41 35 104 65 58
27 107 53 111 58 3 5 -5 35 -17 65 -21 51 -26 56 -55 56 -17 0 -35 -5 -38 -11
-11 -17 -157 -80 -174 -74 -9 3 -33 42 -53 87 -28 64 -34 86 -25 94 7 7 50 28
96 48 72 32 88 35 114 26 41 -14 51 -13 77 8 l22 18 -27 59 c-30 68 -51 95
-74 94 -9 0 -59 -20 -111 -45z" fill="#1C2826"/>
  <path d="M8080 12103 c-17 -22 -20 -36 -16 -64 5 -31 -10 -67 -125 -295 -123
-244 -161 -304 -194 -304 -20 0 -38 -38 -31 -65 5 -18 33 -37 113 -78 60 -30
140 -71 178 -91 39 -20 78 -36 87 -36 9 0 19 -4 22 -9 10 -16 96 -22 150 -11
95 19 171 106 192 215 7 41 -17 117 -49 153 l-20 22 33 0 c101 0 203 134 179
237 -24 110 -63 144 -295 258 -107 52 -196 95 -198 95 -3 0 -14 -12 -26 -27z
m218 -217 c26 -13 58 -36 71 -50 45 -47 24 -128 -41 -165 -24 -14 -32 -13 -97
13 -55 22 -71 32 -71 48 0 18 78 178 87 178 2 0 25 -11 51 -24z m-143 -317
c51 -24 93 -63 107 -99 13 -34 -15 -102 -55 -136 -27 -23 -37 -25 -77 -20 -51
7 -133 53 -138 78 -3 16 46 131 75 175 19 28 31 29 88 2z" fill="#1C2826"/>
  <path d="M3308 11561 c-40 -28 -89 -63 -108 -80 -34 -29 -35 -30 -20 -57 8
-15 34 -39 57 -53 32 -20 70 -64 151 -181 197 -283 224 -327 221 -364 -4 -39
24 -86 50 -86 11 0 77 42 148 93 70 51 166 120 213 153 108 76 112 92 43 182
-26 34 -54 62 -63 62 -21 0 -60 -41 -60 -64 0 -35 -32 -76 -95 -121 -36 -26
-72 -45 -80 -42 -7 3 -47 54 -87 113 -250 367 -248 363 -242 392 7 35 -9 78
-35 91 -16 9 -32 3 -93 -38z" fill="#1C2826"/>
  <path d="M9254 11306 c-67 -30 -144 -138 -144 -202 0 -23 -2 -24 -82 -23 -59
0 -93 -5 -118 -17 -87 -42 -160 -150 -160 -235 0 -65 46 -154 112 -215 58 -56
103 -81 185 -108 51 -17 51 -18 58 -66 4 -27 12 -55 18 -63 29 -36 130 -118
140 -114 8 2 14 44 17 121 l5 118 80 32 c45 17 105 46 135 62 75 42 76 62 11
125 -28 27 -58 49 -66 49 -8 0 -26 -16 -41 -35 -31 -41 -83 -75 -114 -75 l-23
0 6 198 c4 108 11 214 17 234 12 40 51 78 82 78 28 0 78 -54 78 -84 0 -29 -48
-69 -95 -80 -43 -11 -55 -24 -55 -61 0 -49 25 -65 105 -65 88 0 148 32 176 93
21 47 23 116 6 164 -18 49 -80 118 -134 148 -58 33 -152 43 -199 21z m-151
-521 c2 -158 -2 -166 -68 -125 -113 70 -120 195 -15 252 19 10 45 17 58 16 22
-3 22 -6 25 -143z" fill="#1C2826"/>
  <path d="M2842 11114 c-83 -37 -137 -81 -271 -224 l-124 -131 23 -24 c16 -17
34 -25 59 -25 32 0 51 -16 253 -222 195 -200 218 -226 218 -256 0 -33 36 -82
61 -82 14 0 95 80 207 203 50 55 94 115 118 164 35 69 39 83 38 147 -1 39 -9
91 -18 115 -47 129 -163 259 -285 319 -64 31 -85 37 -150 38 -62 2 -86 -2
-129 -22z m155 -179 c73 -37 140 -99 194 -183 56 -86 65 -117 49 -182 -13 -52
-79 -140 -106 -140 -21 0 -404 379 -404 400 0 21 77 99 115 116 46 20 96 17
152 -11z" fill="#1C2826"/>
  <path d="M10089 10296 c-68 -21 -126 -72 -158 -141 -25 -53 -27 -132 -6 -220
8 -33 15 -90 15 -126 0 -56 -4 -70 -25 -93 -32 -34 -74 -34 -115 0 -63 53 -95
157 -66 215 21 42 20 82 -2 102 -24 22 -41 21 -72 -3 -14 -11 -30 -20 -37 -20
-6 0 -28 -15 -48 -34 -33 -31 -35 -37 -30 -77 19 -134 127 -305 227 -355 101
-51 213 -38 300 37 76 64 92 153 58 314 -5 28 -13 77 -16 111 -6 54 -4 63 17
87 13 15 38 30 55 33 25 5 38 0 67 -26 20 -17 44 -51 53 -77 15 -38 16 -52 6
-89 -17 -63 -15 -88 8 -109 19 -17 22 -17 59 0 64 29 111 77 111 115 0 46 -72
194 -124 255 -76 88 -186 128 -277 101z" fill="#1C2826"/>
  <path d="M2118 10280 c-9 -6 -23 -23 -31 -38 -7 -15 -29 -51 -47 -80 -37 -59
-36 -70 23 -133 33 -37 123 -147 212 -263 63 -80 106 -135 165 -206 19 -23 41
-60 48 -83 35 -105 74 -102 148 12 16 24 37 55 46 70 10 14 18 34 18 43 0 24
-46 53 -81 50 -21 -2 -35 7 -59 35 -48 59 -48 72 8 150 27 38 55 79 61 92 10
18 18 21 44 16 76 -15 96 -26 115 -63 22 -43 59 -54 84 -25 26 30 128 203 128
218 0 7 -13 23 -29 34 -24 18 -32 19 -59 9 -24 -9 -45 -9 -94 1 -69 14 -644
156 -668 165 -8 3 -23 1 -32 -4z m222 -240 c105 -24 160 -40 160 -46 0 -8 -48
-98 -63 -118 -19 -25 -30 -17 -130 96 -79 90 -90 106 -59 93 9 -4 51 -16 92
-25z" fill="#1C2826"/>
  <path d="M4262 9653 c-12 -22 -14 -193 -3 -211 4 -8 57 -36 117 -63 59 -27
123 -61 141 -75 40 -30 83 -93 88 -126 1 -13 8 -55 15 -95 18 -113 26 -550 24
-1343 -2 -739 -12 -1098 -34 -1200 -17 -76 -54 -140 -100 -173 -22 -15 -85
-48 -141 -72 -57 -25 -106 -50 -111 -57 -4 -7 -8 -59 -8 -115 0 -88 2 -102 18
-107 9 -2 339 -5 732 -5 393 0 740 -2 770 -5 81 -8 90 4 90 119 0 115 -4 121
-125 172 -199 86 -215 110 -238 358 -8 88 -15 259 -16 380 -1 121 -3 307 -5
413 -3 187 -2 194 18 206 17 10 171 13 731 11 391 -1 715 -4 721 -7 5 -4 8
-63 7 -140 -11 -823 -22 -1010 -66 -1090 -22 -39 -37 -49 -161 -113 -76 -38
-141 -77 -146 -85 -4 -8 -10 -55 -13 -103 -4 -71 -2 -91 11 -103 13 -14 61
-16 381 -13 201 1 553 1 781 0 370 -2 416 0 426 14 8 10 11 51 10 112 -2 88
-4 96 -27 114 -13 10 -29 19 -35 19 -17 0 -171 77 -205 102 -73 54 -105 159
-116 383 -15 308 -5 2131 13 2315 9 93 36 162 83 214 25 27 152 96 177 96 26
0 97 46 106 69 10 28 5 191 -7 210 -5 9 -58 10 -218 5 -258 -9 -984 -9 -1198
1 -195 9 -188 13 -182 -122 4 -95 6 -99 36 -125 17 -15 54 -35 81 -44 125 -41
199 -94 223 -160 26 -71 44 -358 47 -742 1 -186 -2 -246 -12 -254 -19 -16 -47
-18 -287 -17 -121 1 -231 1 -245 0 -22 0 -167 0 -315 2 -27 0 -115 0 -195 -2
-307 -5 -397 -2 -410 14 -26 32 -6 828 25 981 13 60 127 147 241 183 54 17 93
49 99 81 11 59 9 178 -4 193 -11 14 -44 15 -259 10 -360 -8 -887 -8 -1119 1
-190 7 -202 7 -211 -11z m3081 -1781 c3 -4 -6 -21 -19 -37 -13 -17 -24 -25
-24 -18 0 6 4 14 9 17 5 3 7 15 4 26 -4 14 0 20 10 20 9 0 18 -3 20 -8z" fill="#1C2826"/>
  <path d="M10586 9596 c-27 -29 -61 -51 -101 -66 -33 -12 -80 -31 -105 -42 -64
-29 -296 -117 -354 -135 -37 -11 -55 -12 -73 -4 -26 12 -76 -6 -85 -31 -5 -12
19 -101 33 -123 4 -5 26 -59 49 -120 23 -60 50 -132 61 -159 10 -27 19 -54 19
-61 0 -7 10 -25 21 -40 19 -23 27 -26 58 -20 63 11 140 47 147 69 7 22 -34 66
-62 66 -19 0 -106 183 -102 213 2 17 23 29 98 58 52 21 98 35 102 33 14 -9 41
-66 63 -134 26 -80 51 -94 114 -65 22 9 42 24 46 33 3 9 -13 60 -36 114 -33
78 -39 101 -29 112 6 8 46 26 88 40 92 31 92 31 132 -83 28 -81 29 -82 12
-127 -17 -45 -17 -46 6 -64 25 -21 31 -20 115 18 31 15 60 35 63 45 3 11 -7
50 -25 90 -81 192 -121 289 -121 296 0 4 -6 21 -14 37 -8 16 -19 41 -25 55
-17 46 -49 44 -95 -5z" fill="#1C2826"/>
  <path d="M1721 9581 c-12 -16 -21 -33 -21 -38 0 -5 -22 -65 -48 -134 -27 -68
-56 -146 -66 -174 -10 -27 -25 -68 -33 -89 -14 -38 -13 -41 9 -58 26 -20 49
-23 65 -7 14 14 72 -5 298 -98 272 -112 313 -132 335 -170 15 -25 26 -33 48
-33 40 0 43 4 105 170 14 36 48 127 77 202 29 75 50 144 47 152 -4 9 -40 32
-81 53 -74 36 -76 37 -96 18 -24 -22 -25 -36 -4 -77 16 -30 15 -36 -11 -118
-15 -47 -35 -96 -45 -108 l-18 -21 -90 35 c-50 19 -96 42 -103 50 -9 12 -5 31
26 102 53 124 53 126 13 150 -18 11 -48 22 -67 24 -40 4 -46 -4 -82 -119 -36
-112 -36 -112 -116 -78 -75 31 -103 51 -103 72 0 36 69 161 103 187 73 56 56
92 -60 122 -30 8 -56 14 -58 14 -2 0 -13 -13 -24 -29z" fill="#1C2826"/>
  <path d="M1458 8810 c-9 -6 -19 -29 -23 -53 -3 -23 -13 -77 -22 -121 -16 -76
-16 -79 2 -92 25 -18 60 -18 79 1 17 17 24 17 166 -11 41 -8 76 -17 79 -20 4
-4 -4 -55 -31 -197 l-11 -59 -65 7 c-95 10 -157 32 -192 66 -19 19 -36 29 -46
25 -9 -3 -19 -6 -24 -6 -4 0 -11 -24 -14 -52 -4 -29 -14 -85 -22 -124 -8 -39
-12 -79 -8 -88 8 -21 58 -21 93 0 25 15 35 14 157 -11 71 -15 152 -31 179 -35
44 -7 164 -32 278 -59 21 -5 49 -21 62 -35 25 -27 49 -32 74 -17 8 5 20 54 31
127 17 117 17 119 -2 136 -20 18 -59 16 -85 -4 -14 -11 -133 3 -218 24 -58 15
-57 9 -28 161 24 128 19 125 147 99 120 -25 156 -39 156 -58 0 -15 38 -28 67
-22 15 3 22 25 40 127 17 93 20 127 12 138 -15 17 -69 17 -95 -2 -19 -13 -39
-11 -190 19 -93 19 -232 46 -309 60 -115 22 -144 31 -160 50 -24 29 -54 39
-77 26z" fill="#1C2826"/>
  <path d="M10512 8774 c-154 -33 -278 -120 -330 -232 -24 -50 -27 -69 -27 -162
0 -97 3 -110 31 -170 72 -152 187 -220 375 -220 215 0 380 83 450 226 30 61
32 72 32 167 -1 72 -6 115 -18 147 -41 105 -119 186 -218 227 -69 28 -207 36
-295 17z m266 -209 c72 -31 112 -86 112 -157 0 -122 -151 -209 -366 -212 -94
-1 -103 1 -142 26 -54 36 -74 68 -79 126 -5 63 19 108 81 150 100 67 309 102
394 67z" fill="#1C2826"/>
  <path d="M2133 6443 c-22 -36 -54 -62 -74 -63 -9 0 -61 -18 -115 -41 -55 -23
-142 -57 -194 -76 -85 -31 -99 -33 -131 -23 -27 9 -41 9 -58 1 -26 -14 -26
-31 -2 -79 10 -20 22 -50 25 -67 4 -16 15 -41 25 -54 24 -31 58 -21 76 23 14
33 31 43 185 104 41 17 92 37 113 46 20 9 37 14 37 11 0 -9 -75 -108 -201
-267 -107 -134 -117 -150 -109 -175 14 -48 39 -101 51 -108 6 -4 74 20 152 53
308 130 397 162 423 150 33 -15 74 4 74 34 0 13 -14 56 -32 96 -28 65 -35 73
-57 70 -15 -2 -31 -14 -41 -33 -13 -24 -39 -39 -126 -76 -192 -80 -200 -83
-184 -64 8 10 19 25 25 35 5 10 57 77 115 150 175 219 161 196 146 238 -38
107 -58 142 -82 142 -15 0 -30 -10 -41 -27z" fill="#1C2826"/>
  <path d="M10820 6309 c-31 -20 -41 -20 -269 -10 -130 6 -268 13 -307 16 -54 3
-75 1 -84 -9 -14 -18 -50 -115 -50 -138 0 -9 47 -54 108 -103 326 -260 387
-315 394 -350 2 -15 12 -21 39 -23 32 -3 37 0 47 25 5 15 20 54 32 86 22 55
22 58 5 77 -11 13 -31 20 -52 20 -21 0 -47 10 -68 26 l-34 25 32 92 c18 51 35
91 40 90 4 -2 27 -3 51 -3 35 0 46 -4 51 -19 6 -21 44 -35 69 -25 8 3 18 20
22 37 3 18 17 58 31 91 13 32 23 67 21 78 -5 32 -40 40 -78 17z m-303 -163 c7
-7 -16 -80 -32 -102 -9 -13 -20 -8 -71 33 -34 27 -72 56 -85 66 -23 17 -21 17
79 13 57 -2 106 -7 109 -10z" fill="#1C2826"/>
  <path d="M9983 5828 c-31 -35 -83 -133 -83 -157 0 -12 53 -87 121 -173 87
-110 117 -154 106 -156 -9 -2 -60 6 -114 17 -183 37 -253 46 -271 35 -9 -6
-39 -48 -65 -92 -47 -80 -48 -82 -31 -108 16 -23 22 -25 56 -20 36 6 49 0 171
-76 259 -161 266 -165 281 -202 10 -24 23 -37 42 -42 32 -8 47 9 90 99 34 71
27 91 -35 95 -29 2 -71 21 -144 64 -56 34 -122 72 -147 85 l-45 24 50 -6 c52
-6 148 -19 250 -34 72 -10 97 -1 118 43 11 24 12 37 4 52 -12 21 -138 187
-188 247 -17 20 -28 37 -23 37 10 0 189 -97 252 -136 34 -22 52 -41 52 -54 0
-11 12 -26 29 -34 36 -19 42 -13 101 102 42 81 42 83 24 103 -15 17 -26 19
-62 14 -33 -5 -50 -2 -75 13 -17 11 -72 41 -122 67 -199 104 -255 139 -255
156 0 16 -43 59 -60 59 -3 0 -16 -10 -27 -22z" fill="#1C2826"/>
  <path d="M2240 5668 c-119 -42 -235 -147 -266 -240 -36 -111 5 -249 100 -335
78 -71 122 -86 226 -81 74 3 98 9 156 38 82 40 170 124 204 195 55 114 22 256
-81 356 -65 63 -105 80 -199 85 -61 4 -87 0 -140 -18z m258 -155 c36 -27 56
-82 47 -129 -14 -78 -160 -194 -268 -214 -143 -27 -224 88 -144 206 88 131
277 202 365 137z" fill="#1C2826"/>
  <path d="M6122 5509 c-130 -22 -234 -79 -325 -180 -148 -164 -177 -383 -82
-635 39 -102 151 -314 237 -445 70 -107 247 -339 258 -338 8 0 162 197 221
284 75 108 148 233 199 335 125 255 156 386 125 535 -46 221 -218 393 -440
440 -77 16 -114 17 -193 4z m258 -34 c22 -8 28 -13 15 -13 -11 0 -36 6 -55 13
-22 8 -28 13 -15 13 11 0 36 -6 55 -13z m178 -97 c15 -15 16 -58 1 -58 -6 0
-8 9 -4 20 4 13 1 22 -9 26 -16 6 -22 24 -8 24 4 0 13 -5 20 -12z m-709 -31
c-19 -17 -52 -58 -73 -89 -43 -67 -58 -77 -24 -16 28 50 105 138 121 138 7 0
-4 -15 -24 -33z m449 -128 c14 -5 22 -12 19 -15 -3 -3 -14 -1 -25 5 -29 15
-119 13 -167 -4 -48 -17 -45 -17 -45 -6 0 10 42 28 80 35 31 5 105 -3 138 -15z
m396 -15 c3 -9 6 -17 6 -18 0 -1 -9 -2 -20 -2 -20 0 -27 16 -13 29 11 11 20 8
27 -9z m-376 -23 c107 -55 163 -198 118 -305 -22 -53 -83 -113 -134 -133 -211
-80 -407 130 -304 327 63 122 204 170 320 111z m-323 9 c3 -5 1 -10 -4 -10 -6
0 -11 -5 -11 -10 0 -15 31 -25 39 -13 8 14 51 36 50 26 -1 -13 -69 -66 -69
-54 0 6 -6 11 -14 11 -14 0 -29 37 -20 52 7 11 21 10 29 -2z m397 -24 c20 -19
38 -30 40 -24 5 15 28 1 28 -18 0 -21 -16 -17 -52 14 -18 16 -44 36 -58 45
-16 11 -19 17 -9 17 8 0 31 -15 51 -34z m-452 4 c0 -11 -4 -20 -9 -20 -5 0 -7
-9 -4 -20 4 -14 0 -20 -11 -20 -12 0 -16 10 -16 40 0 33 3 40 20 40 13 0 20
-7 20 -20z m-245 -111 c-5 -20 -3 -34 5 -39 8 -5 7 -11 -4 -22 -8 -9 -12 -20
-8 -24 4 -5 0 -3 -8 5 -11 10 -12 15 -3 18 8 3 10 15 6 33 -5 29 1 60 12 60 4
0 4 -14 0 -31z m0 -148 c-5 -36 -2 -57 9 -79 9 -18 12 -33 7 -37 -11 -6 -19
15 -31 90 -10 59 -7 75 12 75 6 0 7 -18 3 -49z m244 -9 c-5 -2 -9 -10 -9 -18
0 -8 -8 -14 -17 -14 -13 0 -14 3 -5 12 7 7 12 20 12 30 0 16 2 17 14 6 8 -7
10 -14 5 -16z m581 -41 c0 -26 -9 -30 -40 -20 -19 7 -26 15 -23 28 6 24 63 16
63 -8z m-532 -32 c9 -14 10 -25 4 -31 -11 -11 -21 1 -27 32 -5 26 7 26 23 -1z
m295 -129 c-11 -13 -19 -16 -24 -9 -4 6 -16 8 -28 4 -11 -3 -21 -3 -21 2 0 5
14 10 32 11 18 2 34 5 37 7 14 15 18 2 4 -15z m-103 -12 c0 -13 -5 -30 -10
-38 -8 -12 -10 -11 -10 7 0 12 -3 28 -6 37 -4 11 -1 16 10 16 10 0 16 -8 16
-22z m-300 -264 c0 -9 14 -39 31 -66 16 -28 29 -52 27 -54 -5 -4 -78 119 -78
129 0 4 5 7 10 7 6 0 10 -7 10 -16z" fill="#1C2826"/>
  <path d="M2807 5152 c-10 -10 -17 -28 -17 -38 0 -25 -19 -43 -190 -179 -74
-59 -149 -121 -166 -137 -24 -23 -37 -28 -57 -23 -27 7 -67 -22 -67 -47 0 -16
137 -172 154 -176 20 -4 48 34 50 68 1 24 13 40 56 75 30 25 60 45 66 45 6 0
19 -9 29 -20 17 -19 17 -22 0 -67 -10 -27 -36 -90 -58 -141 -45 -105 -46 -103
24 -185 59 -69 112 -60 106 19 -2 25 27 124 65 218 11 28 13 28 67 23 78 -9
127 9 183 64 90 90 73 204 -52 338 -18 19 -55 64 -83 100 -67 89 -80 96 -110
63z m118 -248 c52 -69 43 -124 -25 -159 -49 -25 -79 -19 -122 25 -21 23 -38
47 -38 54 0 7 19 29 43 48 23 20 53 45 67 57 14 11 28 20 32 21 4 0 23 -21 43
-46z" fill="#1C2826"/>
  <path d="M9384 4920 c-70 -76 -69 -72 -31 -143 30 -55 91 -161 224 -386 23
-40 43 -84 43 -96 0 -37 10 -55 41 -71 29 -14 29 -14 82 42 78 83 85 98 62
123 -10 12 -28 21 -41 21 -22 0 -74 51 -74 72 0 12 88 119 115 140 18 14 25
14 57 1 23 -9 41 -25 48 -44 8 -18 23 -32 38 -36 23 -5 34 3 89 62 35 37 66
79 70 93 8 34 -19 54 -66 46 -40 -6 -68 3 -271 86 -213 88 -321 130 -335 130
-8 0 -31 -18 -51 -40z m217 -186 c46 -20 87 -39 91 -43 10 -9 -61 -91 -78 -91
-8 0 -18 10 -23 23 -5 12 -25 46 -45 76 -49 73 -48 71 -38 71 5 0 46 -16 93
-36z" fill="#1C2826"/>
  <path d="M3224 4671 c-17 -10 -40 -31 -52 -46 -18 -22 -19 -30 -9 -48 17 -31
27 -37 64 -37 23 0 37 -7 52 -29 12 -16 21 -32 21 -35 0 -3 -52 -62 -115 -131
-63 -70 -132 -146 -152 -171 -26 -30 -45 -44 -63 -44 -30 -1 -55 -18 -64 -45
-5 -16 7 -33 52 -76 31 -31 70 -63 85 -73 26 -16 30 -16 53 -1 20 13 24 22 19
44 -5 22 0 36 22 62 53 65 231 264 262 293 l31 30 30 -29 c17 -16 30 -34 30
-41 0 -18 40 -64 56 -64 24 0 94 70 94 94 0 14 -18 37 -48 63 -26 23 -111 100
-188 172 -76 72 -141 131 -144 131 -3 0 -19 -9 -36 -19z" fill="#1C2826"/>
  <path d="M9058 4529 c-21 -5 -55 -20 -75 -33 -70 -47 -258 -211 -261 -230 -5
-24 36 -66 65 -66 27 0 35 -8 194 -198 124 -147 141 -172 135 -194 -5 -23 21
-58 43 -58 27 0 250 197 293 259 34 49 38 61 38 115 0 73 -19 112 -74 156 -45
35 -67 42 -116 38 -33 -3 -35 -1 -32 25 8 71 -59 168 -128 187 -19 5 -37 9
-40 9 -3 -1 -22 -5 -42 -10z m31 -154 c58 -29 56 -82 -4 -142 -24 -25 -48 -43
-54 -41 -5 1 -29 28 -54 58 -51 61 -51 63 17 112 45 32 56 34 95 13z m206
-207 c40 -31 57 -76 40 -108 -26 -49 -125 -123 -125 -93 0 4 -23 35 -51 68
l-51 59 53 48 c61 54 92 60 134 26z" fill="#1C2826"/>
  <path d="M3696 4254 c-9 -9 -16 -32 -16 -56 0 -23 -6 -49 -14 -57 -8 -9 -70
-100 -139 -203 -68 -103 -127 -185 -130 -181 -13 12 -57 -28 -57 -52 0 -20 16
-35 86 -81 82 -54 86 -55 110 -40 19 13 24 25 24 57 0 22 7 54 16 71 18 35 84
128 90 128 12 0 184 -122 181 -128 -60 -109 -94 -156 -124 -168 -34 -15 -58
-47 -50 -68 7 -17 156 -116 175 -116 30 0 51 30 45 64 -7 42 9 71 145 271 61
90 120 165 134 172 35 17 61 50 55 67 -3 8 -25 27 -49 42 -24 15 -55 35 -69
45 -15 10 -38 21 -52 24 -33 9 -58 -26 -50 -67 4 -18 0 -35 -9 -46 -9 -9 -28
-38 -43 -64 -15 -27 -31 -48 -37 -48 -8 0 -111 68 -164 110 -20 15 -21 18 -6
46 26 49 83 114 102 114 10 0 23 7 30 14 24 30 6 59 -69 113 -80 57 -91 61
-115 37z" fill="#1C2826"/>
  <path d="M8384 4055 c-28 -19 -57 -41 -64 -50 -13 -16 -15 -5 50 -290 53 -232
65 -298 61 -348 -3 -44 12 -67 44 -67 20 0 114 50 150 80 16 13 21 60 7 60 -4
0 -22 13 -40 29 -24 23 -32 38 -32 65 0 32 5 38 73 80 41 25 78 46 84 46 22 0
62 -42 68 -73 7 -33 31 -67 47 -67 5 0 32 15 61 33 29 18 65 39 81 47 37 19
54 54 36 75 -7 8 -29 19 -49 25 -34 10 -114 70 -384 293 -65 53 -123 97 -130
97 -7 0 -35 -16 -63 -35z m169 -239 l78 -73 -56 -37 c-38 -25 -57 -33 -60 -24
-13 38 -51 208 -46 208 3 -1 41 -34 84 -74z" fill="#1C2826"/>
  <path d="M4317 3873 c-4 -3 -7 -29 -7 -56 0 -41 -12 -75 -73 -201 -40 -83 -84
-178 -98 -210 -18 -44 -33 -65 -62 -83 -57 -36 -48 -59 38 -105 39 -21 104
-52 145 -69 41 -17 103 -45 137 -62 33 -16 68 -27 77 -24 9 4 28 31 43 62 37
75 28 90 -55 91 -43 0 -78 8 -123 28 -35 16 -65 30 -66 31 -7 4 54 150 73 173
4 5 122 -57 129 -68 3 -5 20 -10 36 -10 26 0 33 6 51 46 11 25 16 50 11 54 -4
4 -42 22 -83 40 -41 19 -79 37 -84 41 -9 8 39 135 55 144 16 10 123 -50 164
-92 50 -53 64 -50 98 20 21 44 23 55 13 72 -13 20 -366 185 -397 185 -8 0 -19
-3 -22 -7z" fill="#1C2826"/>
  <path d="M7795 3743 c-22 -8 -59 -22 -82 -30 -55 -20 -77 -45 -69 -78 4 -14
14 -29 24 -32 20 -7 61 -53 62 -69 0 -5 34 -91 76 -189 62 -146 75 -186 71
-216 -4 -28 0 -43 17 -62 l21 -26 170 73 c193 83 235 103 235 114 0 22 -33
119 -45 131 -23 23 -68 5 -90 -37 -21 -39 -105 -94 -138 -89 -13 1 -33 36 -69
117 -109 250 -120 282 -113 326 11 73 -8 90 -70 67z" fill="#1C2826"/>
  <path d="M5036 3566 c-33 -34 -202 -279 -272 -394 -23 -37 -57 -78 -78 -91
-42 -28 -56 -65 -34 -87 16 -16 102 -44 160 -51 33 -4 39 -2 47 20 6 14 7 42
4 62 -5 29 -1 41 17 60 13 14 31 25 39 25 24 0 143 -39 158 -52 20 -16 16 -81
-7 -108 -21 -24 -27 -65 -11 -74 14 -9 179 -56 195 -56 7 0 19 7 26 15 10 13
9 29 -8 88 -17 57 -25 130 -36 341 -17 307 -12 292 -110 319 l-59 16 -31 -33z
m44 -378 c-5 -6 -105 24 -115 34 -2 2 22 44 53 93 l57 91 5 -106 c3 -58 3
-108 0 -112z" fill="#1C2826"/>
  <path d="M7285 3574 c-61 -13 -106 -28 -114 -38 -9 -10 -29 -226 -47 -486 -3
-47 -15 -113 -27 -147 -21 -60 -21 -63 -4 -80 16 -17 22 -16 115 8 l97 26 -2
32 c0 18 -11 43 -22 55 -21 22 -27 59 -15 90 3 9 35 24 73 35 120 35 114 35
144 -11 21 -33 25 -49 21 -78 -9 -55 11 -67 84 -50 178 40 193 57 113 127 -29
25 -69 71 -90 102 -273 408 -283 423 -299 420 -4 -1 -16 -3 -27 -5z m58 -287
c26 -43 47 -81 47 -85 0 -9 -110 -36 -117 -28 -3 3 -2 51 2 106 4 56 11 98 15
93 4 -4 28 -43 53 -86z" fill="#1C2826"/>
  <path d="M5622 3459 c-49 -14 -118 -86 -131 -137 -30 -111 24 -195 176 -271
111 -55 141 -103 93 -151 -42 -42 -190 -14 -190 36 0 26 -38 54 -74 54 -43 0
-47 -7 -54 -85 l-5 -63 42 -27 c54 -36 160 -65 236 -65 114 0 203 66 227 169
24 106 -29 186 -174 261 -83 44 -131 90 -121 118 14 38 35 52 83 52 41 0 56
-6 106 -45 31 -25 63 -45 70 -45 29 0 44 31 44 91 0 58 -1 59 -37 78 -75 37
-214 52 -291 30z" fill="#1C2826"/>
  <path d="M6250 3430 c-107 -4 -196 -7 -197 -8 -2 -1 -3 -33 -3 -72 0 -66 1
-70 25 -76 16 -4 37 1 60 15 20 12 53 21 74 21 l38 0 7 -77 c3 -42 6 -147 6
-233 0 -128 -3 -160 -15 -170 -18 -15 -20 -61 -3 -78 8 -8 48 -12 115 -12 102
0 103 0 109 26 5 18 0 34 -17 57 -22 31 -24 42 -30 257 -4 123 -5 228 -3 232
8 13 78 9 99 -6 33 -22 72 -28 88 -12 16 16 12 111 -5 134 -11 13 -7 13 -348
2z" fill="#1C2826"/>
  <path d="M9227 12613 c-14 -13 -7 -53 8 -53 12 0 14 7 9 28 -8 33 -9 34 -17
25z" fill="#1C2826"/>
  <path d="M11448 3384 c-8 -7 2 -44 12 -44 11 0 21 30 14 41 -6 10 -18 12 -26
3z" fill="#1C2826"/>
  <path d="M11265 3329 c-9 -26 -2 -33 24 -24 25 8 28 30 5 39 -22 8 -22 8 -29
-15z" fill="#1C2826"/>
  <path d="M11500 3291 c0 -12 29 -41 41 -41 5 0 9 11 9 25 0 20 -5 25 -25 25
-14 0 -25 -4 -25 -9z" fill="#1C2826"/>
  <path d="M11290 3151 c0 -8 -7 -10 -20 -6 -16 5 -20 2 -20 -14 0 -12 4 -21 8
-21 14 0 46 39 39 47 -4 3 -7 1 -7 -6z" fill="#1C2826"/>
  <path d="M11307 3093 c-4 -3 -7 -15 -7 -26 0 -16 3 -17 15 -7 8 7 15 19 15 26
0 15 -12 19 -23 7z" fill="#1C2826"/>
  <path d="M11130 3016 c0 -22 29 -41 42 -28 8 8 6 15 -5 26 -19 20 -37 21 -37
2z" fill="#1C2826"/>
  <path d="M11426 3012 c-4 -10 -16 -29 -27 -41 -14 -15 -18 -26 -12 -32 10 -10
63 49 63 70 0 19 -19 21 -24 3z" fill="#1C2826"/>
  <path d="M11388 2896 c-29 -26 -28 -37 2 -29 10 3 20 16 23 29 2 13 4 24 3 24
0 0 -13 -11 -28 -24z" fill="#1C2826"/>
  <path d="M11454 2885 c-16 -12 -17 -16 -4 -24 10 -7 20 -5 32 6 35 31 10 47
-28 18z" fill="#1C2826"/>
  <path d="M11410 2825 c-7 -9 -11 -17 -9 -19 7 -7 49 13 49 24 0 15 -26 12 -40
-5z" fill="#1C2826"/>
  <path d="M11525 2712 c-3 -3 0 -11 5 -18 12 -14 53 -7 47 9 -3 11 -43 17 -52
9z" fill="#1C2826"/>
  <path d="M11750 2707 c0 -14 35 -39 44 -30 7 7 -23 43 -36 43 -4 0 -8 -6 -8
-13z" fill="#1C2826"/>
  <path d="M11911 2601 c-12 -8 -12 -12 -2 -25 10 -12 9 -17 -10 -26 -18 -10
-19 -14 -7 -26 12 -12 18 -12 46 2 38 18 39 25 10 58 -17 19 -27 23 -37 17z" fill="#1C2826"/>
  <path d="M11660 2574 c0 -14 3 -14 15 -4 12 10 15 10 15 -4 0 -9 -8 -16 -20
-16 -13 0 -18 -5 -14 -15 4 -8 1 -22 -6 -30 -7 -9 -9 -19 -5 -23 4 -4 10 -1
12 6 3 7 16 18 30 23 20 7 23 12 14 23 -8 10 -9 16 -1 21 20 12 10 35 -15 35
-16 0 -25 -6 -25 -16z" fill="#1C2826"/>
  <path d="M11990 2521 c0 -6 -9 -11 -20 -11 -11 0 -20 -7 -20 -15 0 -17 16 -20
25 -5 3 6 15 10 26 10 12 0 19 5 17 12 -5 15 -28 23 -28 9z" fill="#1C2826"/>
  <path d="M12230 2330 c0 -23 4 -30 20 -30 25 0 36 25 20 45 -21 25 -40 18 -40
-15z" fill="#1C2826"/>
  <path d="M11488 2306 c-20 -15 -25 -31 -7 -20 7 4 19 -3 29 -16 l18 -23 11 21
c9 16 8 24 -5 36 -19 19 -24 19 -46 2z" fill="#1C2826"/>
  <path d="M13290 1385 c-7 -19 -7 -39 1 -67 5 -22 12 -38 14 -36 7 7 8 118 2
125 -4 3 -11 -7 -17 -22z" fill="#1C2826"/>
  <path d="M9577 12480 c-9 -11 -24 -20 -32 -20 -16 0 -21 -25 -6 -34 11 -7 71
47 71 63 0 17 -14 13 -33 -9z" fill="#1C2826"/>
  <path d="M10110 12136 c0 -15 8 -31 20 -38 11 -7 20 -17 20 -23 0 -6 14 -21
31 -35 17 -14 42 -35 55 -46 14 -12 40 -32 59 -45 19 -13 40 -34 47 -47 10
-20 55 -52 73 -52 3 0 3 16 1 35 -3 26 -16 45 -52 77 -27 24 -64 60 -83 81
-19 20 -42 37 -51 37 -9 0 -28 17 -41 38 -16 25 -33 38 -52 40 -23 3 -27 0
-27 -22z" fill="#1C2826"/>
  <path d="M13011 2054 c-19 -18 -31 -36 -27 -43 4 -6 12 -9 17 -6 5 4 9 2 9 -3
0 -11 39 -21 58 -14 17 5 15 32 -2 32 -8 0 -18 -5 -21 -10 -4 -6 -11 -7 -17
-4 -7 5 -5 11 6 20 10 7 16 22 14 36 -3 23 -3 23 -37 -8z" fill="#1C2826"/>
  <path d="M12990 1975 c0 -8 4 -15 9 -15 15 0 19 -35 5 -48 -16 -14 -8 -42 12
-42 29 0 36 38 14 80 -21 40 -40 53 -40 25z" fill="#1C2826"/>
  <path d="M13106 1982 c-11 -2 -26 -11 -34 -18 -17 -18 -8 -48 13 -40 8 3 15 1
15 -4 0 -19 19 -10 26 13 4 12 11 25 16 28 14 9 -15 26 -36 21z" fill="#1C2826"/>
  <path d="M13156 1908 c11 -54 36 -97 50 -91 22 8 16 45 -11 86 -32 46 -49 48
-39 5z" fill="#1C2826"/>
  <path d="M13165 1780 c-18 -20 -17 -20 20 -20 30 0 36 3 31 16 -3 9 -6 18 -6
20 0 12 -29 1 -45 -16z" fill="#1C2826"/>
  <path d="M13896 1173 c-3 -4 -2 -11 2 -17 10 -13 32 -87 32 -106 0 -9 -5 -8
-19 4 -17 16 -19 15 -33 -6 -23 -36 -29 -68 -12 -68 8 0 25 -9 37 -20 18 -17
20 -24 9 -40 -18 -29 -15 -42 11 -38 19 3 22 8 20 41 -3 42 12 50 21 12 8 -30
26 -33 26 -5 0 10 6 23 14 27 7 4 16 32 19 61 5 47 4 52 -13 52 -14 0 -23 -12
-33 -47 -14 -48 -19 -48 -31 -2 -4 19 -1 29 9 33 8 3 15 17 15 32 0 26 1 26
19 10 13 -12 27 -15 41 -11 19 6 21 3 18 -45 -3 -44 0 -54 17 -64 11 -6 22
-14 25 -17 16 -20 36 -12 52 20 20 39 11 59 -18 43 -23 -11 -44 -5 -44 13 0
18 30 28 46 14 8 -6 14 -7 14 -2 0 6 -8 17 -17 25 -21 17 -107 58 -123 58 -6
0 -31 11 -55 24 -24 14 -46 22 -49 19z m34 -178 c0 -16 -6 -25 -16 -25 -11 0
-14 5 -10 16 3 9 6 20 6 25 0 5 5 9 10 9 6 0 10 -11 10 -25z" fill="#1C2826"/>
  <path d="M13750 1039 c0 -5 4 -9 10 -9 5 0 25 -16 45 -37 19 -20 35 -32 35
-27 0 6 -6 16 -12 23 -10 11 -10 13 0 7 6 -4 12 -4 12 1 -1 11 -90 52 -90 42z" fill="#1C2826"/>
  <path d="M14203 957 c-4 -6 -6 -32 -6 -58 1 -57 -23 -75 -69 -52 -32 17 -37
28 -8 20 23 -6 45 16 36 38 -8 22 -25 18 -19 -5 6 -21 -11 -28 -23 -9 -4 8 -8
8 -13 0 -11 -17 -51 -1 -51 21 0 11 -5 18 -12 16 -7 -3 -13 -16 -13 -29 0 -20
6 -25 33 -27 50 -5 27 -22 -29 -22 -27 0 -49 -4 -49 -10 0 -5 17 -10 38 -10
20 0 47 -3 60 -6 25 -7 30 -24 7 -24 -27 0 -16 -25 16 -37 28 -11 33 -9 56 13
17 17 34 24 52 22 24 -3 26 -6 23 -40 -3 -29 0 -38 12 -38 8 0 18 5 21 10 3 6
15 10 26 10 13 0 19 7 19 23 1 14 15 32 41 50 39 27 40 29 23 42 -27 21 -41
18 -48 -7 -6 -27 -39 -50 -59 -42 -18 6 -41 54 -27 54 6 0 10 -6 10 -14 0 -24
29 -26 50 -4 17 19 18 23 5 31 -8 4 -15 18 -15 30 0 32 -12 46 -48 56 -22 7
-34 6 -39 -2z" fill="#1C2826"/>
  <path d="M14040 750 c0 -26 38 -47 46 -25 7 18 -12 45 -32 45 -8 0 -14 -9 -14
-20z" fill="#1C2826"/>
  <path d="M14708 276 c-10 -7 -18 -24 -19 -37 0 -13 -4 -33 -8 -44 -5 -11 -4
-25 1 -33 13 -16 -65 -89 -104 -98 l-27 -6 29 -29 c24 -24 37 -29 78 -29 43 0
51 3 56 23 6 25 54 57 86 57 30 0 16 -17 -21 -25 -17 -4 -33 -14 -36 -23 -4
-10 -11 -20 -17 -24 -6 -4 7 -8 29 -8 27 0 35 3 26 9 -11 7 -10 11 7 20 26 14
52 14 52 1 0 -6 -10 -15 -22 -20 -17 -6 -6 -9 45 -9 l68 -1 -16 31 c-14 25
-21 30 -48 27 -28 -3 -32 0 -32 20 -1 26 -21 43 -43 34 -10 -3 -13 0 -10 9 5
14 26 16 63 5 35 -10 54 14 46 59 -6 34 -8 37 -17 22 -10 -17 -13 -16 -57 8
-26 15 -55 37 -66 51 -22 28 -21 27 -43 10z m57 -66 c32 -36 -4 -69 -39 -35
-8 8 -19 15 -25 15 -19 0 -12 15 12 26 31 16 32 16 52 -6z m-52 -37 c3 -5 8
-23 12 -40 5 -27 2 -37 -20 -58 -19 -16 -26 -31 -22 -45 3 -13 0 -20 -9 -20
-8 0 -14 6 -14 14 0 7 -3 27 -6 44 -6 27 -4 30 14 26 15 -5 22 2 31 28 8 22 8
34 1 36 -5 2 -10 8 -10 13 0 11 17 12 23 2z" fill="#1C2826"/>
  <path d="M14481 91 c-12 -22 -5 -31 24 -31 12 0 25 3 28 6 10 10 -12 44 -28
44 -8 0 -19 -8 -24 -19z" fill="#1C2826"/>
  <path d="M13976 5494 c-38 -7 -74 -10 -80 -7 -6 3 -8 3 -4 -1 4 -5 -24 -23
-62 -42 -37 -19 -92 -58 -122 -86 -29 -28 -57 -51 -61 -49 -5 1 -6 -2 -3 -7 3
-5 -8 -28 -25 -53 -81 -122 -98 -272 -55 -481 16 -72 171 -367 279 -529 88
-132 223 -308 238 -309 19 -1 257 330 341 475 40 68 126 245 156 320 39 98 38
91 40 168 1 34 6 46 14 41 7 -5 8 -3 3 6 -5 7 -10 36 -12 64 -5 75 -37 173
-77 236 -19 30 -32 59 -29 64 3 5 2 6 -3 3 -13 -8 -96 77 -86 88 4 4 1 5 -6 1
-7 -4 -32 7 -60 27 -92 67 -252 97 -386 71z m189 -291 c105 -37 172 -140 168
-257 -4 -90 -97 -202 -188 -225 -99 -25 -158 -9 -233 63 -62 58 -86 109 -85
176 1 67 22 117 70 171 74 81 168 107 268 72z" fill="#E07B3C"/>
</svg>