<svg xmlns="http://www.w3.org/2000/svg" width="2699.000000pt" height="1536.000000pt" viewBox="0 0 2699.000000 1536.000000">
  <path d="M9019 8736 c-2 -2 -107 -7 -234 -11 -126 -3 -234 -10 -239 -15 -10
-10 -35 -189 -28 -207 2 -6 38 -24 79 -39 65 -24 77 -32 89 -61 12 -27 14
-154 12 -728 -2 -790 7 -717 -94 -736 -32 -6 -65 -15 -71 -21 -15 -12 -18
-194 -4 -203 5 -3 173 -6 373 -7 l363 -2 0 109 0 110 -69 12 c-119 22 -107
-82 -105 911 0 475 -3 867 -7 872 -11 9 -59 21 -65 16z" fill="#1C2826"/>
  <path d="M16945 8733 c-33 -2 -136 -7 -229 -11 -135 -6 -170 -10 -176 -22 -15
-28 -32 -192 -21 -203 5 -5 36 -18 68 -29 32 -11 68 -29 81 -41 l23 -22 -2
-843 c-1 -463 0 -844 2 -847 10 -9 308 -15 313 -6 4 5 11 33 16 62 6 29 12 54
14 56 2 3 26 -12 53 -33 26 -20 82 -53 123 -72 70 -33 83 -36 196 -40 161 -6
243 19 348 106 145 120 227 349 227 632 0 310 -85 516 -261 635 -88 59 -166
79 -290 72 -109 -6 -181 -28 -264 -81 -31 -20 -61 -36 -66 -36 -6 0 -10 127
-10 348 0 191 -4 353 -8 360 -10 15 -56 20 -137 15z m468 -937 c44 -18 102
-87 121 -144 62 -182 31 -477 -62 -589 -45 -54 -81 -68 -167 -67 -76 1 -117
15 -180 61 l-40 29 3 317 3 316 35 28 c74 56 213 80 287 49z" fill="#1C2826"/>
  <path d="M7795 8723 c-44 -2 -84 -8 -90 -14 -12 -12 -35 -187 -28 -206 3 -7
28 -20 57 -28 28 -8 65 -24 83 -35 l32 -19 3 -198 c2 -109 2 -200 0 -203 -2
-2 -11 1 -20 7 -59 41 -116 68 -182 84 -336 84 -618 -125 -685 -507 -46 -262
-1 -567 106 -725 50 -75 98 -115 188 -157 70 -34 83 -36 193 -40 171 -6 271
27 380 127 31 28 58 51 61 51 4 0 9 -17 12 -37 9 -58 25 -113 33 -113 10 -1
445 -1 460 -1 9 1 12 29 12 105 0 71 -4 107 -12 114 -7 5 -37 12 -66 14 -30 3
-60 12 -69 20 -13 14 -15 124 -16 889 l-2 874 -185 1 c-102 0 -221 -1 -265 -3z
m-49 -932 c25 -11 58 -30 74 -41 l30 -21 0 -310 0 -309 -56 -44 c-64 -50 -109
-66 -186 -66 -73 0 -118 20 -162 72 -44 51 -63 111 -78 246 -13 122 -1 247 34
339 26 67 86 133 138 150 48 16 151 8 206 -16z" fill="#1C2826"/>
  <path d="M19065 8720 c-96 -20 -155 -43 -216 -83 -35 -24 -63 -49 -61 -56 1
-7 -2 -10 -7 -7 -15 10 -69 -53 -101 -119 -93 -186 -50 -359 123 -498 50 -41
58 -57 28 -57 -42 0 -166 -74 -238 -143 -57 -54 -82 -88 -113 -151 -92 -186
-94 -399 -5 -581 42 -87 122 -188 142 -181 8 3 12 2 9 -3 -3 -5 10 -23 28 -39
87 -76 268 -150 425 -172 125 -19 343 -8 462 23 314 82 526 312 546 594 8 117
-17 199 -93 304 -19 26 -34 51 -34 56 0 5 29 14 65 20 36 6 93 24 128 41 68
32 151 107 143 129 -3 8 -1 11 4 8 6 -4 25 24 43 62 29 62 32 77 32 163 0 117
-24 177 -95 244 -68 64 -108 79 -210 79 -100 0 -142 -17 -189 -77 -34 -43 -46
-88 -38 -148 17 -125 200 -161 268 -51 21 34 23 88 4 151 -6 19 -4 22 17 22
30 0 49 -15 82 -64 32 -47 34 -101 6 -155 -49 -97 -166 -145 -390 -161 -80 -6
-183 -21 -246 -36 -189 -45 -291 -119 -361 -262 -36 -71 -38 -82 -38 -166 1
-105 20 -158 82 -227 121 -134 354 -110 417 43 9 21 16 47 16 58 0 18 -3 19
-20 10 -16 -9 -20 -8 -20 5 0 8 5 14 12 12 20 -4 21 35 3 70 -19 34 -84 73
-123 73 -12 0 -40 -7 -62 -16 -47 -19 -73 -60 -75 -116 -1 -47 -4 -50 -44 -42
-24 5 -30 11 -26 24 3 10 1 21 -5 25 -15 9 -12 90 4 129 33 80 122 129 236
130 107 1 165 -18 220 -73 61 -61 84 -133 78 -240 -4 -62 -11 -88 -38 -139
-61 -116 -188 -204 -353 -247 -52 -13 -87 -16 -145 -11 -140 12 -120 8 -217
51 -114 51 -221 163 -260 273 -23 64 -32 247 -15 310 44 162 165 276 315 297
79 12 86 14 101 26 8 6 14 28 14 48 -1 40 -15 119 -23 127 -3 3 -32 9 -66 14
-103 14 -162 68 -190 172 -17 62 -7 161 22 213 33 59 107 105 169 105 59 0
122 -30 141 -67 13 -24 12 -31 -9 -71 -13 -25 -24 -54 -24 -66 0 -28 24 -72
37 -69 6 1 10 -5 9 -15 -2 -25 67 -55 128 -55 61 0 102 19 144 67 41 47 56
104 49 189 -11 134 -90 216 -267 279 -62 23 -265 34 -335 18z m306 -160 c12 0
12 -27 0 -34 -5 -3 -17 6 -26 21 -16 24 -16 26 0 20 9 -4 21 -7 26 -7z m63
-19 c7 -10 -22 -37 -30 -28 -9 8 3 37 15 37 5 0 12 -4 15 -9z m46 -27 c0 -16
-23 -44 -35 -44 -8 0 -15 -6 -15 -14 0 -8 -10 -13 -24 -12 -24 1 -23 3 15 39
37 34 59 46 59 31z m31 -60 c5 -15 7 -29 4 -32 -3 -3 -5 0 -5 6 0 7 -6 12 -14
12 -18 0 -29 16 -21 30 11 17 25 11 36 -16z m-583 -21 c5 -18 -23 -16 -39 3
-11 14 -10 15 11 12 13 -1 25 -9 28 -15z m532 2 c0 -8 5 -15 10 -15 6 0 10 -7
10 -15 0 -8 -6 -15 -14 -15 -20 0 -37 25 -30 44 8 20 24 21 24 1z m-640 -29
c0 -8 -11 -16 -25 -18 -30 -6 -30 -4 -8 21 17 21 33 19 33 -3z m47 -43 c3 -7
-7 -17 -21 -23 -29 -11 -33 -25 -12 -46 20 -19 26 -18 23 7 -1 12 6 26 15 32
23 15 37 -1 15 -18 -10 -7 -17 -17 -16 -21 1 -5 1 -18 0 -28 -1 -16 -4 -17
-13 -8 -7 7 -20 12 -30 12 -10 0 -18 6 -18 13 0 7 -9 18 -20 25 -25 16 -17 32
16 32 18 0 24 5 24 21 0 22 30 24 37 2z m599 6 c10 -17 -13 -36 -27 -22 -12
12 -4 33 11 33 5 0 12 -5 16 -11z m67 -71 c-2 -5 6 -8 19 -9 13 0 17 -3 11 -6
-7 -2 -13 -11 -13 -19 0 -17 -22 -18 -38 -2 -10 10 -17 10 -34 -1 -16 -10 -22
-10 -28 0 -5 8 -22 10 -49 6 -36 -4 -41 -3 -41 14 0 16 8 19 55 19 32 0 55 4
55 11 0 5 -4 8 -9 4 -5 -3 -13 0 -17 6 -4 7 -3 9 4 5 6 -3 13 -2 16 3 7 10 76
-21 69 -31z m-757 -24 c-3 -8 1 -14 9 -14 8 0 15 -7 15 -15 0 -19 -26 -20 -34
0 -3 8 -12 12 -21 9 -20 -8 -19 1 2 25 18 22 38 18 29 -5z m1438 -32 c-13 -13
-17 -13 -24 -1 -13 20 9 43 26 28 11 -9 11 -14 -2 -27z m-1365 -54 c16 -17 23
-19 35 -9 9 7 17 8 20 2 3 -5 0 -11 -6 -14 -10 -3 -10 -7 1 -21 18 -22 6 -34
-19 -18 -24 15 -33 15 -24 1 4 -7 -2 -9 -17 -7 -26 3 -39 28 -15 28 20 0 20 7
1 26 -13 14 -15 14 -15 0 0 -9 -4 -16 -10 -16 -5 0 -10 8 -10 18 0 38 29 43
59 10z m1179 -18 c-1 -39 -2 -40 -40 -40 -46 0 -51 17 -5 22 17 2 30 8 27 13
-3 6 -8 9 -12 8 -5 -2 -8 6 -8 17 0 13 7 20 20 20 17 0 20 -6 18 -40z m-1148
-76 c0 -12 6 -15 25 -10 29 7 32 -1 8 -20 -24 -18 -43 -17 -43 1 0 8 -4 15
-10 15 -5 0 -10 7 -10 15 0 8 7 15 15 15 8 0 15 -7 15 -16z m1370 -201 c0 -14
-34 -43 -51 -43 -24 0 -15 22 14 36 27 14 37 16 37 7z m-416 -81 c-2 -27 -5
-30 -24 -25 -19 5 -26 23 -14 35 9 10 39 2 38 -10z m92 -67 c-9 -7 -13 -20 -9
-33 4 -15 1 -22 -10 -22 -8 0 -17 9 -20 20 -3 11 -12 20 -20 20 -11 0 -15 9
-15 30 1 33 18 42 18 10 0 -24 22 -26 40 -5 7 8 9 15 5 15 -4 0 -1 8 6 17 13
15 14 14 17 -12 2 -18 -2 -33 -12 -40z m87 43 c9 -34 -4 -43 -24 -17 -24 31
-24 39 0 39 11 0 21 -9 24 -22z m-208 -48 c-3 -6 -10 -10 -16 -10 -10 0 -12
33 -2 44 9 9 26 -22 18 -34z m-112 16 c3 -8 16 -16 28 -18 26 -4 36 -43 14
-52 -9 -3 -15 0 -15 8 0 7 -9 23 -20 36 -11 13 -20 20 -20 16 0 -4 -5 -4 -10
-1 -11 7 -4 25 10 25 4 0 10 -6 13 -14z m287 -27 c0 -12 -27 -11 -35 1 -11 17
5 32 21 19 8 -6 14 -15 14 -20z m-141 -12 c8 -11 5 -17 -15 -26 -28 -12 -64
-6 -64 11 0 5 7 7 15 4 9 -3 18 1 21 9 8 19 28 19 43 2z m-1099 -14 c0 -15 1
-15 18 0 19 17 32 14 32 -9 0 -14 -48 -25 -53 -11 -2 6 -12 4 -24 -4 -32 -19
-42 -1 -13 21 31 24 40 25 40 3z m810 -17 c0 -14 -3 -16 -14 -7 -7 6 -21 9
-30 5 -9 -3 -16 -2 -16 3 0 16 10 21 36 19 16 -1 24 -7 24 -20z m146 0 c14
-29 -1 -35 -56 -25 -31 6 -32 7 -7 8 20 1 27 6 27 21 0 28 23 25 36 -4z m174
-15 c0 -11 5 -23 10 -26 15 -9 12 -25 -5 -25 -8 0 -15 7 -15 16 0 12 -6 15
-21 11 -25 -7 -51 2 -43 14 3 5 14 9 25 9 10 0 19 5 19 10 0 6 7 10 15 10 8 0
15 -9 15 -19z m-1200 -15 c0 -21 -21 -31 -30 -15 -5 7 -6 17 -4 21 9 14 34 9
34 -6z m77 -15 c-1 -12 -7 -17 -19 -13 -24 6 -23 32 1 32 13 0 19 -6 18 -19z
m48 -11 c4 -6 -7 -15 -24 -21 -17 -6 -31 -16 -31 -23 0 -6 -9 -18 -20 -26 -24
-17 -26 -40 -5 -40 19 0 19 -11 1 -35 -13 -18 -14 -18 -20 3 -4 12 -12 22 -17
22 -17 0 -9 -21 17 -45 15 -14 22 -25 16 -25 -6 0 -17 -3 -26 -6 -11 -4 -19 1
-24 17 -6 14 -11 18 -16 11 -4 -6 2 -19 13 -28 11 -10 17 -24 14 -33 -4 -9 -3
-13 2 -9 13 12 38 -21 29 -40 -4 -9 -8 -20 -8 -24 -1 -4 -11 -16 -23 -28 -28
-26 -29 -30 -3 -30 11 0 20 7 20 15 0 8 5 15 10 15 6 0 10 9 10 20 0 13 7 20
20 20 11 0 20 -7 20 -15 0 -8 -7 -15 -15 -15 -18 0 -20 -37 -3 -42 7 -3 8 -10
4 -17 -6 -9 -11 -10 -19 -2 -15 15 -24 14 -24 -4 0 -8 8 -15 17 -15 24 0 23
-37 -2 -43 -11 -3 -18 -11 -16 -18 6 -19 28 -23 28 -5 0 9 7 16 15 16 8 0 15
-9 15 -20 0 -13 7 -20 19 -20 25 0 37 -18 17 -26 -9 -3 -23 1 -31 10 -18 18
-29 21 -20 6 3 -5 2 -10 -4 -10 -5 0 -16 -3 -25 -6 -12 -4 -16 0 -16 15 0 32
-30 24 -43 -11 -11 -31 -30 -21 -23 12 7 36 -4 38 -34 7 -15 -16 -31 -22 -46
-19 -29 5 -32 22 -4 22 10 0 24 9 30 20 6 11 20 20 30 20 26 0 26 26 0 40 -24
13 -26 36 -4 44 10 4 18 -1 21 -14 3 -10 14 -22 24 -25 23 -8 24 -19 4 -39 -9
-9 -11 -17 -5 -21 5 -3 10 -1 10 4 0 6 9 11 20 11 13 0 20 7 20 20 0 11 -6 20
-14 20 -8 0 -18 9 -21 20 -3 11 -12 20 -20 20 -8 0 -17 9 -20 20 -3 11 -13 20
-21 20 -8 0 -14 -9 -14 -20 0 -13 -7 -20 -19 -20 -10 0 -22 -8 -25 -17 -6 -15
-8 -15 -16 -3 -9 15 19 50 41 50 6 0 8 7 5 16 -3 9 -6 20 -6 25 0 5 -9 9 -20
9 -13 0 -20 7 -20 20 0 25 24 26 42 3 17 -23 50 -30 42 -9 -3 8 3 19 15 26 24
12 28 40 7 40 -7 0 -21 -11 -30 -25 -22 -33 -36 -32 -36 4 0 24 3 28 20 24 14
-4 20 0 20 11 0 9 -6 16 -14 16 -21 0 -28 30 -9 37 9 4 19 1 21 -5 4 -14 32
-16 32 -3 0 17 -29 33 -50 26 -15 -5 -20 -2 -20 12 0 15 2 16 10 3 8 -12 10
-11 10 8 0 14 -6 22 -17 23 -11 0 -13 3 -5 6 6 2 9 9 6 15 -4 6 -1 8 7 6 8 -3
13 -11 12 -17 -4 -14 17 -14 37 -1 13 9 13 12 -2 24 -22 16 -23 36 -3 36 8 0
15 -6 15 -14 0 -10 7 -12 21 -9 19 5 21 3 17 -19 -4 -21 -1 -24 19 -20 25 5
32 32 9 32 -21 0 -30 20 -16 33 9 9 15 8 25 -6 15 -21 49 -16 59 8 6 17 22 20
31 5z m-39 -94 c-1 -20 -4 -22 -18 -15 -19 10 -23 21 -11 32 14 15 31 6 29
-17z m1234 -26 c-11 -7 -17 -4 -22 8 -15 37 -9 47 15 24 19 -19 20 -24 7 -32z
m-1483 -54 c-3 -8 1 -13 10 -12 9 0 18 -5 21 -13 2 -8 0 -11 -6 -7 -5 3 -13
-1 -16 -10 -3 -8 -2 -12 4 -9 6 3 10 1 10 -4 0 -6 -6 -11 -12 -12 -7 0 -20 -2
-29 -4 -9 -1 -16 4 -16 11 0 8 7 14 15 14 10 0 12 7 8 24 -3 12 -3 26 1 30 11
10 15 7 10 -8z m233 -45 c0 -11 6 -21 13 -24 6 -2 9 -7 5 -11 -8 -10 -48 25
-48 41 0 7 7 13 15 13 8 0 15 -9 15 -19z m33 -183 c-3 -16 -9 -28 -14 -28 -12
0 -11 27 1 35 5 3 6 13 3 23 -4 12 -3 14 5 7 6 -5 8 -22 5 -37z m-193 -16 c0
-5 -11 -19 -25 -32 -26 -24 -29 -21 -19 18 6 21 44 33 44 14z m26 -128 c-3 -9
-13 -14 -20 -11 -10 4 -16 -2 -19 -16 l-4 -22 -2 22 c0 12 9 29 21 37 25 18
33 14 24 -10z m80 4 c-9 -5 -16 -16 -16 -23 0 -8 -7 -15 -15 -15 -7 0 -18 -7
-23 -16 -6 -10 -12 -13 -16 -6 -10 16 5 44 20 38 9 -3 16 4 20 18 4 18 11 22
26 18 18 -4 18 -6 4 -14z m74 9 c0 -14 -20 -37 -32 -37 -10 0 -11 34 -1 43 11
12 33 8 33 -6z m60 -13 c0 -8 -4 -14 -10 -14 -5 0 -10 -7 -10 -16 0 -11 6 -15
20 -11 16 4 20 0 20 -19 0 -14 6 -24 14 -24 21 0 30 -20 16 -33 -9 -9 -15 -7
-27 11 -17 24 -43 30 -43 10 0 -18 13 -36 25 -37 14 -1 12 -24 -2 -28 -7 -3
-13 2 -13 11 0 9 -4 16 -8 16 -5 0 -17 7 -28 15 -19 14 -18 15 6 34 24 19 24
20 5 27 -36 13 -47 44 -16 44 11 0 21 9 24 21 6 23 27 17 27 -7z m-60 -73 c0
-17 -18 -31 -41 -31 -13 0 -11 24 3 38 18 18 38 14 38 -7z m155 -86 c0 -11 8
-21 18 -23 21 -4 23 -32 2 -32 -8 0 -15 7 -15 15 0 9 -11 20 -25 25 -25 10
-31 21 -18 34 13 13 38 1 38 -19z m-44 -23 c8 -10 14 -23 11 -30 -5 -17 -42 9
-42 30 0 23 11 23 31 0z m-55 -6 c15 -16 19 -36 6 -36 -12 0 -32 23 -32 37 0
17 8 16 26 -1z m55 -48 c0 -10 2 -10 6 0 7 17 43 15 43 -3 0 -8 7 -15 15 -15
8 0 15 -3 15 -8 0 -14 -71 -72 -88 -72 -15 1 -14 3 3 16 66 49 70 62 21 62
-39 0 -59 9 -51 23 9 13 35 11 36 -3z m180 -48 c5 0 9 -9 9 -20 0 -25 -14 -26
-39 -1 -20 20 -16 35 7 26 7 -3 18 -5 23 -5z m-70 -43 c-8 -8 -14 -8 -22 0 -7
7 -5 16 8 28 17 18 18 18 21 1 2 -10 -1 -23 -7 -29z m172 26 c-2 -10 -20 -25
-39 -34 -21 -10 -33 -12 -29 -5 3 6 8 19 11 28 6 16 21 24 51 27 6 0 9 -7 6
-16z m460 -8 c-4 -15 -36 -12 -41 3 -3 9 3 13 19 10 13 -1 23 -7 22 -13z" fill="#1C2826"/>
  <path d="M18631 7546 c-16 -19 -14 -23 13 -28 10 -1 21 3 24 11 3 8 0 11 -6 7
-6 -3 -12 1 -14 10 -3 16 -4 16 -17 0z" fill="#1C2826"/>
  <path d="M18640 7365 c0 -8 9 -15 20 -15 11 0 20 7 20 15 0 8 -9 15 -20 15
-11 0 -20 -7 -20 -15z" fill="#1C2826"/>
  <path d="M21316 8680 c-307 -49 -484 -198 -542 -457 -21 -97 -15 -251 15 -335
59 -171 173 -264 421 -343 339 -109 376 -128 425 -220 27 -52 33 -121 15 -185
-15 -54 -80 -116 -142 -135 -98 -29 -320 -12 -384 29 -13 9 -24 19 -24 22 0 4
-40 188 -55 252 -5 21 -8 22 -143 22 -75 0 -143 -4 -150 -9 -19 -12 -18 -510
1 -528 20 -19 181 -71 290 -94 126 -27 442 -33 517 -10 25 7 56 15 70 17 14 3
62 22 107 44 147 72 248 188 300 344 22 69 27 99 27 196 0 137 -19 213 -74
299 -80 124 -194 193 -460 281 -101 34 -202 71 -224 82 -49 24 -102 73 -123
112 -18 35 -19 133 0 178 19 44 87 104 134 117 88 25 294 4 329 -32 10 -11 32
-104 52 -217 l8 -45 124 -5 c69 -3 135 -2 148 2 l22 8 -2 247 -3 247 -31 18
c-36 21 -163 59 -274 83 -93 19 -295 27 -374 15z" fill="#1C2826"/>
  <path d="M24595 8683 c-358 -44 -624 -261 -734 -600 -52 -159 -62 -229 -62
-433 1 -171 3 -194 30 -303 72 -283 229 -483 465 -593 136 -62 209 -77 396
-77 149 -1 174 1 265 26 354 96 561 339 640 752 17 89 20 358 5 452 -58 354
-252 620 -528 720 -146 53 -328 75 -477 56z m260 -358 c161 -60 242 -161 296
-370 21 -79 24 -113 24 -275 0 -217 -14 -297 -75 -418 -56 -109 -104 -161
-194 -207 -218 -111 -475 -28 -588 190 -76 147 -101 295 -88 530 11 191 44
295 131 410 87 114 188 163 341 164 70 1 101 -4 153 -24z" fill="#1C2826"/>
  <path d="M13008 8652 c-338 -2 -367 -4 -372 -20 -2 -9 -6 -57 -8 -106 l-3 -89
70 -18 c42 -11 77 -26 87 -38 16 -21 57 -171 104 -386 13 -60 31 -137 39 -170
29 -124 217 -894 243 -1000 l27 -110 245 -5 c162 -4 249 -2 256 5 11 9 61 208
194 760 28 116 54 219 59 230 8 19 9 19 15 -5 70 -300 246 -973 256 -984 5 -5
120 -9 256 -10 209 -1 247 1 254 14 4 8 15 49 24 90 9 41 39 174 67 294 28
121 54 240 59 265 6 25 23 105 40 176 17 72 43 191 60 265 16 74 40 180 54
235 13 55 36 153 51 218 31 133 37 140 120 152 86 12 86 12 79 123 -4 53 -10
101 -14 105 -8 9 -686 11 -701 2 -5 -4 -9 -51 -9 -106 0 -114 -1 -113 102
-124 105 -12 101 -9 94 -69 -3 -29 -30 -167 -60 -307 -126 -588 -167 -784
-173 -828 -3 -25 -9 -53 -14 -61 -11 -22 2 -71 -205 750 -52 206 -101 390
-109 408 l-15 32 -195 0 -194 0 -16 -52 c-35 -124 -193 -783 -247 -1030 -11
-54 -25 -98 -29 -98 -10 0 -3 -31 -89 365 -39 176 -77 347 -85 380 -54 229
-104 480 -97 487 5 5 37 13 73 19 35 5 79 14 97 20 l32 11 0 81 c0 102 -6 124
-33 129 -12 1 -187 2 -389 0z" fill="#1C2826"/>
  <path d="M22603 8653 l-391 -3 -4 -98 c-3 -60 0 -101 6 -109 6 -6 47 -18 90
-27 44 -9 85 -21 93 -27 11 -9 13 -136 13 -695 0 -397 -4 -693 -9 -707 -10
-25 -37 -35 -142 -52 -56 -9 -62 -22 -57 -125 3 -50 7 -92 10 -95 7 -7 1419
-8 1426 0 11 11 29 529 18 543 -7 9 -43 12 -145 10 l-136 -3 -31 -130 -30
-130 -251 -3 -250 -2 -1 270 -1 270 297 0 c216 0 301 3 310 12 11 11 8 215 -4
276 l-5 23 -252 -1 c-138 0 -273 0 -298 0 l-47 0 2 253 1 252 220 0 220 0 16
-35 c10 -19 23 -70 30 -112 7 -43 15 -82 19 -88 5 -8 188 -16 263 -11 16 1 17
17 11 259 -5 182 -10 261 -19 270 -14 15 -313 20 -972 15z" fill="#1C2826"/>
  <path d="M2075 8628 c-3 -13 -5 -61 -3 -108 l3 -85 85 -18 c51 -10 90 -24 98
-34 9 -13 12 -172 12 -715 l0 -698 -25 -10 c-13 -5 -55 -15 -92 -21 -38 -6
-71 -17 -75 -23 -11 -16 -10 -194 1 -200 16 -11 791 -12 801 -2 12 12 13 176
2 194 -5 7 -48 20 -96 29 -77 14 -89 19 -97 40 -5 14 -8 148 -7 306 l3 280
340 -1 340 -2 3 -294 c2 -236 0 -295 -11 -304 -8 -7 -48 -17 -91 -23 -56 -8
-79 -16 -86 -30 -9 -16 -8 -184 1 -194 9 -8 780 -8 789 1 5 5 10 51 11 102 3
106 2 108 -71 117 -25 4 -63 12 -85 18 l-40 12 -3 706 c-2 607 0 708 12 718 8
7 43 19 78 27 35 8 73 16 86 19 22 5 23 8 20 108 l-3 102 -389 3 c-254 1 -393
-1 -400 -8 -6 -6 -12 -52 -14 -104 -5 -106 -11 -99 95 -116 112 -18 103 7 103
-290 l0 -260 -345 0 -345 0 0 253 c0 291 -3 281 91 297 30 5 69 12 87 16 l32
7 0 84 c0 136 43 123 -415 123 l-395 0 -5 -22z" fill="#1C2826"/>
  <path d="M4671 8128 c-72 -8 -187 -41 -241 -68 -71 -36 -161 -113 -205 -175
-95 -133 -135 -273 -135 -474 0 -298 87 -498 270 -620 139 -94 299 -128 518
-110 125 10 228 37 337 89 104 50 113 60 96 108 -21 57 -93 212 -100 212 -3 0
-22 -10 -41 -21 -111 -68 -333 -100 -451 -66 -61 18 -120 62 -153 116 -19 31
-56 149 -56 181 0 7 132 10 410 10 l410 0 6 26 c4 15 4 81 1 148 -7 140 -39
282 -85 372 -59 115 -178 215 -298 250 -70 20 -205 31 -283 22z m186 -324 c46
-37 84 -133 80 -204 l-2 -45 -207 -3 c-114 -1 -209 1 -211 5 -10 16 13 118 38
169 18 37 40 62 73 84 44 29 52 31 119 28 62 -3 77 -7 110 -34z" fill="#1C2826"/>
  <path d="M15743 8124 c-153 -25 -255 -78 -359 -186 -82 -84 -131 -173 -166
-299 -19 -72 -23 -107 -22 -239 1 -182 15 -255 75 -378 77 -159 215 -273 384
-317 140 -36 363 -36 497 1 81 22 238 95 261 121 18 21 17 24 -33 140 -29 65
-53 119 -55 121 -2 2 -27 -10 -56 -27 -93 -52 -195 -74 -323 -69 -148 5 -202
29 -268 118 -27 37 -58 130 -58 174 l0 25 402 1 c270 0 405 3 412 11 7 6 11
63 10 147 -3 305 -107 510 -308 607 -110 53 -258 71 -393 49z m197 -303 c56
-29 88 -84 102 -174 10 -67 10 -80 -3 -87 -16 -10 -379 -13 -403 -4 -20 8 -20
15 0 102 18 79 59 137 116 165 46 23 144 22 188 -2z" fill="#1C2826"/>
  <path d="M5929 8119 c-67 -9 -188 -50 -232 -78 -48 -30 -93 -80 -120 -136 -27
-55 -53 -152 -43 -162 9 -9 339 -64 353 -59 6 3 15 22 19 43 10 56 41 102 81
118 50 21 149 19 200 -4 64 -30 77 -63 77 -201 l1 -115 -70 -2 c-109 -4 -331
-33 -399 -53 -138 -39 -228 -106 -275 -203 -33 -68 -47 -192 -32 -276 32 -176
134 -278 307 -306 174 -29 317 8 462 117 35 27 65 48 67 48 2 0 7 -25 10 -55
12 -90 0 -86 250 -86 121 0 226 0 233 1 9 0 12 28 12 105 0 93 -2 105 -20 115
-10 6 -23 9 -27 8 -18 -4 -93 15 -102 26 -7 8 -12 153 -15 412 -3 331 -6 409
-20 459 -45 166 -131 241 -318 279 -83 17 -300 20 -399 5z m343 -835 c2 -9 2
-58 0 -110 -3 -90 -5 -95 -35 -126 -44 -43 -110 -70 -187 -76 -119 -8 -166 38
-158 156 4 61 7 67 43 99 41 35 71 46 170 61 103 16 163 14 167 -4z" fill="#1C2826"/>
  <path d="M9882 8119 c-76 -13 -193 -64 -262 -115 -178 -131 -273 -378 -256
-668 11 -205 71 -359 184 -472 167 -168 391 -220 722 -169 61 10 114 28 212
75 85 41 118 61 118 75 0 13 -93 219 -104 232 -9 9 -26 4 -78 -22 -96 -48
-197 -68 -316 -63 -177 7 -257 68 -301 229 -12 42 -21 79 -21 83 0 3 184 6
410 6 l410 0 6 26 c10 41 -3 280 -20 357 -46 211 -191 368 -382 417 -83 21
-224 25 -322 9z m218 -301 c25 -13 55 -38 67 -56 28 -43 55 -135 51 -175 l-3
-32 -212 -3 -213 -2 0 34 c0 98 57 200 135 240 44 23 122 20 175 -6z" fill="#1C2826"/>
  <path d="M10676 8102 c-3 -5 -8 -56 -12 -115 l-7 -106 39 -7 c79 -14 116 -47
150 -135 9 -24 43 -105 74 -179 32 -74 76 -180 99 -235 23 -55 46 -109 51
-120 49 -106 210 -501 210 -516 0 -39 -91 -243 -120 -270 -30 -29 -102 -49
-175 -49 -24 0 -47 -5 -51 -12 -7 -11 -6 -199 1 -206 8 -8 829 -3 831 4 1 5 4
49 7 97 4 65 1 91 -8 101 -8 7 -50 16 -96 20 -99 9 -129 19 -129 45 0 10 27
90 60 177 217 568 444 1148 470 1200 21 41 70 74 110 74 47 0 50 7 50 107 0
52 -5 103 -10 114 -10 18 -24 19 -300 19 -159 0 -291 -3 -294 -8 -2 -4 -8 -55
-11 -113 l-7 -105 71 -14 c39 -7 71 -17 71 -22 0 -5 -11 -34 -24 -66 -40 -97
-183 -475 -207 -547 -27 -83 -18 -97 -128 198 -45 120 -100 261 -121 314 -22
53 -37 99 -34 104 2 4 26 11 52 14 100 13 92 2 92 118 0 67 -4 107 -12 115
-14 14 -683 18 -692 4z" fill="#1C2826"/>
  <path d="M2741 5831 c-19 -12 -6 -41 18 -41 26 0 36 17 21 35 -14 17 -20 18
-39 6z" fill="#1C2826"/>
  <path d="M19030 8714 c-187 -40 -342 -177 -385 -340 -44 -168 10 -304 170
-431 36 -28 38 -32 20 -38 -202 -69 -337 -205 -402 -405 -8 -25 -17 -101 -20
-170 -4 -114 -3 -132 20 -202 58 -182 174 -319 339 -402 51 -25 134 -58 183
-73 84 -25 103 -27 290 -27 189 -1 206 1 299 27 236 66 393 190 486 382 89
185 80 362 -26 505 -51 70 -50 74 25 85 73 11 185 68 235 120 67 69 108 162
114 257 6 95 -9 158 -53 224 -63 96 -172 143 -301 129 -77 -8 -118 -33 -157
-97 -53 -86 -35 -183 43 -227 71 -40 161 -19 201 46 19 30 21 44 15 104 -7 79
2 87 54 43 59 -50 74 -111 45 -182 -45 -105 -156 -153 -405 -171 -225 -17
-392 -68 -492 -151 -47 -39 -100 -120 -128 -197 -48 -132 -3 -306 97 -376 82
-58 184 -71 278 -36 44 16 62 30 87 67 100 145 -22 322 -177 258 -44 -19 -67
-56 -70 -111 -2 -54 -8 -62 -38 -46 -68 36 -60 170 15 237 113 104 344 89 428
-28 67 -92 78 -236 27 -340 -71 -145 -207 -234 -407 -268 -156 -27 -366 44
-471 158 -91 98 -129 201 -129 350 0 231 137 395 348 418 74 9 92 25 92 83 0
55 -15 112 -32 123 -7 4 -29 8 -48 8 -45 1 -108 30 -142 66 -43 46 -60 100
-61 185 0 65 5 84 29 130 50 94 166 134 255 89 58 -30 68 -58 39 -119 -29 -62
-22 -107 23 -155 87 -92 244 -61 303 59 24 51 26 63 21 135 -4 61 -11 90 -31
124 -49 83 -147 148 -276 181 -72 19 -242 18 -330 -1z m398 -186 c-3 -7 -8
-13 -13 -13 -5 0 -10 6 -12 13 -3 6 3 12 12 12 9 0 15 -6 13 -12z m32 -43 c-7
-8 -17 -12 -22 -9 -5 3 -1 15 9 26 20 22 32 6 13 -17z m48 -27 c-6 -18 -28
-21 -28 -4 0 9 7 16 16 16 9 0 14 -5 12 -12z m-43 -42 c17 -17 7 -30 -12 -15
-13 12 -18 29 -7 29 3 0 12 -6 19 -14z m-645 -4 c0 -13 -12 -22 -22 -16 -10 6
-1 24 13 24 5 0 9 -4 9 -8z m35 -62 c-5 -8 -11 -8 -17 -2 -6 6 -7 16 -3 22 5
8 11 8 17 2 6 -6 7 -16 3 -22z m-37 -28 c2 -7 -3 -12 -12 -12 -9 0 -16 7 -16
16 0 17 22 14 28 -4z m22 -37 c0 -8 -7 -15 -15 -15 -16 0 -20 12 -8 23 11 12
23 8 23 -8z m-54 -25 c8 0 14 -7 14 -15 0 -8 -4 -15 -10 -15 -11 0 -30 34 -29
52 1 7 3 5 6 -4 2 -10 11 -18 19 -18z m85 -91 c24 -12 15 -32 -12 -24 -13 4
-19 2 -19 -9 0 -9 -4 -16 -10 -16 -5 0 -10 7 -10 15 0 8 5 15 10 15 6 0 10 7
10 15 0 18 5 18 31 4z m47 -46 c16 -16 16 -16 -1 -10 -10 4 -23 7 -28 7 -5 0
-9 5 -9 10 0 15 20 12 38 -7z m-38 -34 c0 -5 -7 -9 -15 -9 -15 0 -20 12 -9 23
8 8 24 -1 24 -14z m20 -24 c0 -8 -4 -15 -9 -15 -13 0 -22 16 -14 24 11 11 23
6 23 -9z m1120 -295 c0 -5 -7 -10 -15 -10 -8 0 -15 5 -15 10 0 6 7 10 15 10 8
0 15 -4 15 -10z m-82 -12 c-6 -18 -28 -21 -28 -4 0 9 7 16 16 16 9 0 14 -5 12
-12z m-1111 -34 c-9 -9 -28 6 -21 18 4 6 10 6 17 -1 6 -6 8 -13 4 -17z m1143
11 c0 -8 -4 -15 -9 -15 -13 0 -22 16 -14 24 11 11 23 6 23 -9z m-230 -28 c0
-20 -1 -20 -16 -5 -9 9 -13 21 -9 27 10 16 25 3 25 -22z m166 18 c9 -8 12 -20
8 -26 -5 -9 -11 -6 -21 6 -23 33 -14 47 13 20z m-76 -14 c0 -5 -9 -11 -19 -14
-14 -3 -18 -1 -14 9 6 15 33 19 33 5z m-1112 -25 c-12 -7 -25 -11 -27 -9 -8 6
34 31 42 26 5 -3 -2 -11 -15 -17z m72 9 c0 -8 -7 -15 -15 -15 -8 0 -15 7 -15
15 0 8 7 15 15 15 8 0 15 -7 15 -15z m900 7 c0 -13 -12 -22 -22 -16 -10 6 -1
24 13 24 5 0 9 -4 9 -8z m-1020 -53 c0 -5 -7 -9 -15 -9 -15 0 -20 12 -9 23 8
8 24 -1 24 -14z m70 -4 c0 -8 -4 -15 -10 -15 -5 0 -10 7 -10 15 0 8 5 15 10
15 6 0 10 -7 10 -15z m47 -31 c-9 -9 -28 6 -21 18 4 6 10 6 17 -1 6 -6 8 -13
4 -17z m-71 -8 c16 -17 19 -36 4 -36 -5 0 -10 7 -10 15 0 8 -9 15 -21 15 -11
0 -17 5 -14 10 9 14 24 12 41 -4z m-56 -31 c0 -8 -7 -15 -15 -15 -8 0 -15 7
-15 15 0 8 7 15 15 15 8 0 15 -7 15 -15z m91 -38 c-13 -13 -26 -3 -16 12 3 6
11 8 17 5 6 -4 6 -10 -1 -17z m-135 2 c3 -6 1 -16 -5 -22 -9 -9 -14 -8 -21 3
-9 15 -4 30 10 30 5 0 12 -5 16 -11z m84 -4 c0 -8 5 -15 10 -15 6 0 10 -7 10
-15 0 -18 -9 -19 -32 -1 -22 16 -24 46 -3 46 8 0 15 -7 15 -15z m-40 -40 c5
-14 16 -25 25 -25 8 0 15 -7 15 -15 0 -8 -7 -15 -15 -15 -9 0 -18 7 -21 15 -4
8 -12 15 -19 15 -13 0 -27 35 -17 44 11 12 23 5 32 -19z m-25 -55 c0 -8 -8
-16 -17 -18 -13 -2 -18 3 -18 18 0 15 5 20 18 18 9 -2 17 -10 17 -18z m94 -39
c-15 -5 -22 6 -14 19 6 9 10 9 16 -1 5 -8 4 -15 -2 -18z m-136 13 c9 -10 -4
-34 -19 -34 -8 0 -14 6 -14 13 0 22 19 35 33 21z m77 -9 c0 -8 -7 -15 -15 -15
-8 0 -15 7 -15 15 0 8 7 15 15 15 8 0 15 -7 15 -15z m-43 -57 c-16 -10 -21 -2
-13 19 6 15 9 15 16 3 6 -9 5 -17 -3 -22z m76 5 c-7 -3 -13 -10 -13 -16 0 -7
-14 -28 -30 -47 -26 -32 -29 -33 -36 -16 -5 13 -3 21 5 24 7 2 16 15 21 28 5
13 16 24 25 24 8 0 15 8 15 17 0 14 2 15 13 4 10 -11 10 -14 0 -18z m-150 2
c-4 -15 -26 -12 -31 3 -3 9 2 13 14 10 11 -2 18 -8 17 -13z m43 -26 c3 -6 1
-16 -5 -22 -9 -9 -14 -8 -21 3 -9 15 -4 30 10 30 5 0 12 -5 16 -11z m149 2 c7
-12 -12 -24 -25 -16 -11 7 -4 25 10 25 5 0 11 -4 15 -9z m-22 -53 c8 -28 6
-29 -17 -13 -10 8 -15 18 -11 24 10 17 22 13 28 -11z m-150 -3 c-4 -15 -26
-12 -31 3 -3 9 2 13 14 10 11 -2 18 -8 17 -13z m117 -34 c0 -10 9 -21 20 -24
22 -6 28 -27 8 -27 -21 0 -61 49 -54 66 7 19 26 9 26 -15z m-70 5 c0 -8 -5
-18 -11 -22 -14 -8 -33 11 -25 25 10 16 36 13 36 -3z m-50 -41 c0 -8 -7 -15
-15 -15 -16 0 -20 12 -8 23 11 12 23 8 23 -8z m78 -2 c-5 -25 -28 -28 -28 -4
0 12 6 21 16 21 9 0 14 -7 12 -17z m-34 -31 c3 -5 -9 -19 -26 -32 -17 -12 -28
-16 -24 -9 3 8 9 22 12 32 7 18 29 23 38 9z m71 -2 c3 -6 -1 -13 -10 -16 -19
-8 -30 0 -20 15 8 14 22 14 30 1z m50 -30 c-21 -24 -45 -26 -45 -5 0 8 7 15
15 15 9 0 18 7 22 16 4 11 9 12 16 5 7 -7 5 -17 -8 -31z m-85 -15 c0 -8 -7
-15 -15 -15 -8 0 -15 7 -15 15 0 8 7 15 15 15 8 0 15 -7 15 -15z m140 0 c0 -8
-7 -15 -15 -15 -8 0 -15 7 -15 15 0 8 7 15 15 15 8 0 15 -7 15 -15z m-40 -35
c0 -11 -7 -20 -15 -20 -15 0 -21 21 -8 33 12 13 23 7 23 -13z m40 -40 c0 -11
-7 -20 -15 -20 -8 0 -15 9 -15 20 0 11 7 20 15 20 8 0 15 -9 15 -20z m-82 -12
c-6 -18 -28 -21 -28 -4 0 9 7 16 16 16 9 0 14 -5 12 -12z m126 -6 c2 -4 1 -14
-4 -22 -7 -11 -12 -12 -21 -3 -6 6 -8 16 -5 22 8 13 23 14 30 3z m-80 -21 c9
-15 -18 -31 -34 -20 -13 8 -13 10 0 19 19 12 27 12 34 1z m36 -26 c0 -8 -4
-15 -10 -15 -5 0 -10 7 -10 15 0 8 5 15 10 15 6 0 10 -7 10 -15z m80 0 c0 -8
-7 -15 -15 -15 -8 0 -15 7 -15 15 0 8 7 15 15 15 8 0 15 -7 15 -15z m38 -52
c-2 -10 -8 -18 -13 -18 -5 0 -11 8 -13 18 -2 10 3 17 13 17 10 0 15 -7 13 -17z
m-139 -10 c0 -5 -3 -9 -9 -11 -5 -2 -10 4 -10 13 0 16 16 14 19 -2z m111 -45
c0 -5 -9 -4 -20 2 -21 11 -25 22 -13 34 8 7 33 -21 33 -36z m70 13 c0 -12 -20
-25 -27 -18 -7 7 6 27 18 27 5 0 9 -4 9 -9z m-86 -46 c-6 -16 -24 -21 -24 -7
0 11 11 22 21 22 5 0 6 -7 3 -15z m56 5 c0 -12 -28 -25 -36 -17 -9 9 6 27 22
27 8 0 14 -5 14 -10z m139 -66 c3 -3 0 -9 -5 -14 -6 -6 -16 -2 -28 11 -17 20
-17 21 6 14 13 -4 25 -9 27 -11z m81 -9 c0 -8 -7 -15 -15 -15 -8 0 -15 7 -15
15 0 8 7 15 15 15 8 0 15 -7 15 -15z m140 0 c0 -8 -4 -15 -10 -15 -5 0 -10 7
-10 15 0 8 5 15 10 15 6 0 10 -7 10 -15z" fill="#E07B3C"/>
</svg>