<svg version="1.1" xmlns="http://www.w3.org/2000/svg" style="display: block;" viewBox="0 0 2816 1536" width="2816" height="1536" preserveAspectRatio="none">
<path transform="translate(0,0)" fill="rgb(46,48,35)" d="M 1323.29 251.461 C 1337.48 247.41 1342.2 251.2 1354.32 247.913 C 1356.47 247.33 1360.77 245.283 1363.1 245.044 C 1388.75 242.408 1471.49 245.002 1493.72 253.376 L 1504.82 256.13 L 1509.78 257.288 C 1516.44 259.084 1528.54 261.971 1534.56 264.412 C 1582.3 278.102 1635.25 308.006 1673.36 339.767 C 1683.39 348.125 1703.64 367.781 1712.23 377.742 C 1708.75 378.553 1704.94 378.895 1702.71 381.373 C 1706.92 385.822 1717.44 385.667 1724.85 389.588 C 1728.11 393.873 1732.32 406.419 1732.4 406.464 C 1744.45 413.338 1749.88 423.633 1756.05 435.876 C 1765.31 440.885 1769.99 445.44 1775.56 454.564 C 1792.42 482.194 1807.65 511.809 1819.69 541.755 C 1822.84 550.493 1826.04 558.92 1828.43 567.908 C 1832.69 578.958 1846.1 646.434 1845.82 657.332 C 1848.5 680.696 1851.06 741.405 1844.81 763.541 C 1842.68 778.352 1834.66 827.425 1828.56 839.153 C 1825.97 848.117 1824.18 854.415 1820.59 863.039 L 1821.14 863.877 C 1822.02 867.322 1818.54 882.65 1817.22 886.606 C 1815.26 888.004 1813.47 889.632 1811.79 891.351 L 1810.49 890.952 C 1807.81 895.215 1803.78 904.714 1801.84 909.516 C 1793.37 930.429 1778.41 948.505 1768.23 967.929 C 1755.06 993.043 1800.33 1010.93 1814.54 1024.3 C 1800.36 1044.21 1777.99 1063.27 1763.55 1083.73 C 1760.1 1088.63 1754.9 1094.21 1750.67 1098.52 C 1735.58 1097.48 1725.61 1058.61 1691.43 1060.41 C 1671.28 1073.66 1649.55 1093.46 1629.12 1106.42 C 1574.93 1140.59 1514.86 1165.1 1450.89 1172.28 C 1439.73 1173.53 1428.64 1171.09 1417.6 1171.75 C 1398.15 1172.91 1343.63 1176.86 1326.8 1168.32 C 1309.1 1165.78 1265.84 1154.79 1249.8 1147.4 C 1231.81 1140.94 1209.02 1131.06 1193.25 1119.18 C 1191.27 1117.69 1186.73 1104.36 1185.28 1102.88 C 1179.54 1097.02 1172.06 1092.12 1166.57 1085.67 C 1164.65 1083.42 1160.63 1080.58 1157.52 1080.55 C 1159.76 1084.84 1168.29 1087.47 1170.62 1095.14 L 1169.33 1096.6 C 1158.85 1098.69 1114.99 1069.99 1111.02 1059.11 C 1108.67 1058.15 1104.23 1055.89 1102.27 1054.14 C 1067.5 1023.42 1040.92 985.193 1016.78 945.904 C 1013.69 940.885 994.475 900.886 994.078 897.36 C 994.471 896.62 996.335 893.042 996.056 892.566 C 992.301 886.174 985.627 879.803 982.991 873.042 C 980.938 867.777 980.548 860.826 978.774 855.594 C 972.224 836.28 958.956 788.86 959.204 770.58 C 953.689 744.24 955.291 661.738 961.324 634.677 C 963.987 604.362 969.938 590.11 978.315 561.223 C 980.953 550.991 983.672 541.035 987.453 531.16 C 990.066 518.875 1006.77 487.702 1014.5 477.835 L 1017.32 473.202 C 1026.33 469.003 1025.41 464.598 1028.61 456.058 C 1028.66 453.955 1028.5 454.781 1029.67 452.848 L 1034.21 451.992 L 1034.7 451.903 C 1037.77 444.18 1035.07 434.516 1042.29 429.375 C 1076.91 382.237 1111.62 349.076 1160.37 317.017 C 1160.6 313.477 1160.44 310.524 1161.99 307.396 C 1165.73 306.413 1169.04 308.545 1173.78 308.441 C 1180.37 305.502 1182.79 301.45 1187.84 298.689 C 1219.72 281.274 1254.37 269.07 1289.33 259.696 C 1291.59 259.089 1291.88 258.61 1294.73 258.266 C 1303.67 255.512 1314.06 253.492 1323.29 251.461 z"/>
<path transform="translate(0,0)" fill="rgb(42,43,32)" d="M 1111.02 1059.11 L 1112.26 1058.3 L 1113.12 1059.28 C 1115.64 1060.1 1124.77 1062.88 1126.71 1063.74 L 1129.56 1061.16 L 1131.12 1060.15 C 1132.19 1061.72 1131.94 1060.82 1132.11 1062.77 C 1137.46 1069 1154.08 1074.17 1156.37 1079.96 L 1157.52 1080.55 C 1159.76 1084.84 1168.29 1087.47 1170.62 1095.14 L 1169.33 1096.6 C 1158.85 1098.69 1114.99 1069.99 1111.02 1059.11 z"/>
<path transform="translate(0,0)" fill="rgb(31,32,20)" d="M 961.324 634.677 C 963.526 640.541 959.735 674.284 959.949 683 C 960.541 707.143 960.345 731.83 959.561 755.978 C 959.271 762.405 961.201 764.931 959.204 770.58 C 953.689 744.24 955.291 661.738 961.324 634.677 z"/>
<path transform="translate(0,0)" fill="rgb(42,43,32)" d="M 1844.81 763.541 C 1841.95 756.541 1846.48 743.518 1846.54 735.611 C 1846.54 735.655 1844.1 731.426 1843.86 731.012 C 1843.87 718.709 1843.18 664.907 1845.82 657.332 C 1848.5 680.696 1851.06 741.405 1844.81 763.541 z"/>
<path transform="translate(0,0)" fill="rgb(31,32,20)" d="M 1249.8 1147.4 C 1253.45 1146.49 1255.28 1146.9 1258.43 1149.16 C 1264.44 1153.48 1271.62 1145.88 1277.21 1151.13 C 1275.8 1152.37 1275.63 1152.25 1273.8 1152.8 C 1275.73 1155.23 1314.88 1164.36 1320.5 1165.38 C 1323.61 1165.94 1324.32 1164.67 1326.8 1168.32 C 1309.1 1165.78 1265.84 1154.79 1249.8 1147.4 z"/>
<path transform="translate(0,0)" fill="rgb(31,32,20)" d="M 1028.61 456.058 C 1032.88 464.181 1028.64 465.93 1033.26 473.978 L 1032.89 475.09 C 1029.98 478.54 1029.22 478.446 1024.23 479.253 C 1021.35 478.007 1020.71 477.85 1018.33 475.897 L 1015.68 478.154 L 1014.5 477.835 L 1017.32 473.202 C 1026.33 469.003 1025.41 464.598 1028.61 456.058 z"/>
<path transform="translate(0,0)" fill="rgb(31,32,20)" d="M 987.453 531.16 L 988.607 532.543 C 986.883 538.553 984.927 546.714 984.512 553.044 C 984.178 558.138 986.499 562.068 985.185 567.462 L 983.661 567.659 C 982.681 565.661 982.936 564.908 983.002 562.663 L 982.293 562.4 L 981.536 563.269 C 979.943 562.217 980.817 562.388 978.991 562.409 L 978.315 561.223 C 980.953 550.991 983.672 541.035 987.453 531.16 z"/>
<path transform="translate(0,0)" fill="rgb(31,32,20)" d="M 1820.59 863.039 C 1817.59 855.59 1816.19 840.793 1818.88 833.364 L 1820.37 832.994 C 1821.93 837.295 1818.67 846.285 1821.6 851.447 C 1823.75 849.814 1825.54 842.614 1827.05 838.867 L 1828.56 839.153 C 1825.97 848.117 1824.18 854.415 1820.59 863.039 z"/>
<path transform="translate(0,0)" fill="rgb(246,243,229)" d="M 1028.61 456.058 C 1028.66 453.955 1028.5 454.781 1029.67 452.848 L 1034.21 451.992 C 1034.44 458.327 1037.11 472.393 1034.14 476.198 L 1033.18 475.893 L 1032.89 475.09 L 1033.26 473.978 C 1028.64 465.93 1032.88 464.181 1028.61 456.058 z"/>
<path transform="translate(0,0)" fill="rgb(31,32,20)" d="M 1534.56 264.412 C 1528.99 268.266 1518.53 269.702 1512.73 265.226 C 1514.66 263.291 1520.14 265.957 1523.3 263.888 C 1519.59 261.131 1512.29 260.271 1507.04 258.661 L 1507.51 257.752 L 1509.78 257.288 C 1516.44 259.084 1528.54 261.971 1534.56 264.412 z"/>
<path transform="translate(0,0)" fill="rgb(246,243,229)" d="M 1810.49 890.952 C 1811.54 886.924 1819.18 867.442 1821.14 863.877 C 1822.02 867.322 1818.54 882.65 1817.22 886.606 C 1815.26 888.004 1813.47 889.632 1811.79 891.351 L 1810.49 890.952 z"/>
<path transform="translate(0,0)" fill="rgb(31,32,20)" d="M 1042.29 429.375 L 1043.26 430.539 C 1036.12 437.728 1043.6 446.026 1039.68 452.816 C 1036.91 453.835 1037.84 452.583 1034.7 451.903 C 1037.77 444.18 1035.07 434.516 1042.29 429.375 z"/>
<path transform="translate(0,0)" fill="rgb(31,32,20)" d="M 1819.69 541.755 C 1822.84 550.493 1826.04 558.92 1828.43 567.908 C 1827.98 568.084 1828.35 568.004 1826.89 567.886 C 1825.67 564.686 1824.57 561.497 1822.97 558.478 L 1819.79 558.401 C 1817.84 554.041 1819.06 546.413 1819.69 541.755 z"/>
<path transform="translate(0,0)" fill="rgb(31,32,20)" d="M 1294.73 258.266 C 1303.67 255.512 1314.06 253.492 1323.29 251.461 L 1325.1 252.483 C 1316.81 255.344 1302.86 261.301 1294.73 258.266 z"/>
<path transform="translate(0,0)" fill="rgb(246,243,229)" d="M 1160.37 317.017 C 1160.6 313.477 1160.44 310.524 1161.99 307.396 C 1165.73 306.413 1169.04 308.545 1173.78 308.441 C 1169.47 311.286 1164.82 314.493 1160.37 317.017 z"/>
<path transform="translate(0,0)" fill="rgb(246,243,229)" d="M 1126.71 1063.74 C 1124.16 1058.43 1120.69 1057.73 1120.39 1051.48 C 1125.78 1052.49 1127.13 1057.19 1129.56 1061.16 L 1126.71 1063.74 z"/>
<path transform="translate(0,0)" fill="rgb(31,32,20)" d="M 1493.72 253.376 L 1504.82 256.13 L 1504.64 257.471 C 1500.8 257.72 1493.3 258.643 1491.36 254.899 L 1493.72 253.376 z"/>
<path transform="translate(0,0)" fill="rgb(245,239,221)" d="M 1372.03 286.039 C 1394.53 284.986 1416.68 284.74 1439.13 286.802 C 1523.58 294.558 1606.82 333.745 1669.43 390.57 C 1713.2 430.346 1747.8 479.174 1770.8 533.665 L 1773.76 541.024 C 1778.72 550.072 1783.04 567.174 1786.57 573.126 L 1788.06 572.959 C 1788.84 575.166 1789.24 577.089 1790.89 578.679 L 1793.23 575.032 C 1797.34 580.145 1793.09 585.329 1793.6 591.024 C 1794.31 599.075 1800.32 606.149 1797.32 614.278 C 1803.64 650.286 1807.73 684.782 1806.68 721.321 C 1800.35 941.505 1610.65 1143.32 1384.67 1132.55 C 1352.46 1131.02 1322.44 1125.81 1291.18 1117.53 C 1289.21 1118.13 1262.71 1113.44 1260.24 1112.28 C 1259.79 1109.45 1259.32 1109.01 1258.37 1106.42 C 1256.13 1104.74 1229.48 1093.68 1223.98 1090.82 C 1197.57 1076.82 1172.69 1060.09 1149.75 1040.92 C 1086.71 988.5 1039.57 914.433 1015.71 836.248 C 1012.49 825.706 1005.25 800.982 1004.26 790.257 C 996.064 761.475 995.045 698.763 999.166 669.013 C 998.603 649.114 1007.05 614.455 1010.46 594.902 L 1009.7 593.037 C 1011.47 583.916 1007.85 576.329 1011.78 571.194 C 1014 570.402 1015.31 569.681 1017.64 570.033 C 1056.8 451.551 1136.91 363.286 1251.87 314.061 C 1260.31 310.448 1275.18 307.141 1282.32 302.797 L 1282.3 301.87 C 1284.66 300.68 1286.09 299.835 1288.33 298.418 L 1288.6 297.681 C 1295.06 295.279 1296.65 296.266 1303.53 295.785 L 1304.18 297.091 C 1316 294.323 1329.64 292.343 1340.99 289.353 C 1351 288.366 1362.18 287.484 1372.03 286.039 z"/>
<path transform="translate(0,0)" fill="rgb(246,243,229)" d="M 999.166 669.013 C 1003.05 674.127 1000.99 688.319 1001.02 695.525 C 1001.08 713.406 1000.89 731.239 1001.89 749.099 C 1002.55 760.821 1006.47 777.22 1005.48 788.137 L 1004.26 790.257 C 996.064 761.475 995.045 698.763 999.166 669.013 z"/>
<path transform="translate(0,0)" fill="rgb(31,32,20)" d="M 1786.57 573.126 L 1788.06 572.959 C 1788.84 575.166 1789.24 577.089 1790.89 578.679 L 1793.23 575.032 C 1797.34 580.145 1793.09 585.329 1793.6 591.024 C 1794.31 599.075 1800.32 606.149 1797.32 614.278 C 1794.86 601.998 1789.96 585.577 1786.57 573.126 z"/>
<path transform="translate(0,0)" fill="rgb(42,43,32)" d="M 1010.46 594.902 L 1009.7 593.037 C 1011.47 583.916 1007.85 576.329 1011.78 571.194 C 1014 570.402 1015.31 569.681 1017.64 570.033 C 1016.58 573.936 1011.78 592.428 1010.46 594.902 z"/>
<path transform="translate(0,0)" fill="rgb(31,32,20)" d="M 1258.37 1106.42 C 1268.33 1109.65 1281.67 1113.81 1291.18 1117.53 C 1289.21 1118.13 1262.71 1113.44 1260.24 1112.28 C 1259.79 1109.45 1259.32 1109.01 1258.37 1106.42 z"/>
<path transform="translate(0,0)" fill="rgb(31,32,20)" d="M 1282.32 302.797 L 1282.3 301.87 C 1284.66 300.68 1286.09 299.835 1288.33 298.418 L 1288.6 297.681 C 1295.06 295.279 1296.65 296.266 1303.53 295.785 L 1304.18 297.091 C 1299.4 298.461 1286.62 302.448 1282.32 302.797 z"/>
<path transform="translate(0,0)" fill="rgb(246,243,229)" d="M 1770.8 533.665 L 1773.76 541.024 C 1771.83 541.798 1770.47 542.854 1768.24 543.778 L 1766.5 542.995 C 1766.68 539.845 1769.27 536.642 1770.8 533.665 z"/>
<path transform="translate(0,0)" fill="rgb(46,48,35)" d="M 1442.06 511.154 C 1441.75 507.024 1441.04 503.896 1442.85 500.311 C 1446.73 496.941 1461.47 498.55 1467.33 498.846 C 1495.95 500.159 1524.62 500.412 1553.26 499.605 C 1561.48 499.415 1606.21 496.787 1610.52 500.489 C 1613.45 506.449 1612.42 517.83 1611.36 524.621 C 1611.08 526.404 1606.79 528.027 1604.89 528.729 C 1594.71 531.175 1581.67 533.232 1576.03 543.252 C 1566.43 560.299 1570.9 675.553 1570.95 701.41 C 1570.98 713.781 1570.19 726.134 1570.09 738.501 C 1569.95 756.17 1570.66 773.851 1571.06 791.513 C 1571.39 806.02 1570.56 821.702 1574.72 835.724 C 1574.86 836.177 1574.98 836.635 1575.11 837.089 C 1575.19 837.362 1575.27 837.632 1575.36 837.903 C 1585.81 847.92 1590.12 845.469 1595.68 849.475 C 1603.1 851.008 1605.08 851.494 1611.91 854.598 C 1611.97 863.065 1612.27 873.265 1611.95 881.594 C 1588.92 885.119 1550.41 880.019 1526.16 879.837 C 1511.86 879.729 1452 884.941 1443.46 881.238 C 1439.72 876.052 1440.24 858.614 1444.05 853.87 C 1458.29 847.959 1467.69 849.741 1477.97 836.324 C 1478.32 834.065 1478.65 831.803 1478.95 829.537 C 1480.91 814.958 1485.68 718.954 1479.47 710.842 C 1464.98 704.898 1422.21 708.368 1403.41 707.903 C 1396.41 709.156 1380.62 707.994 1371.91 708.432 C 1364.78 713.031 1350.77 707.417 1341.72 710.816 L 1342.01 712.961 C 1337.94 715.974 1335.08 714.088 1329.97 714.783 C 1326.43 715.264 1327.89 719.349 1326.89 719.742 C 1325.01 715.481 1326.52 716.58 1325.69 712.484 C 1323.81 734.464 1325.63 757.614 1326.13 779.691 C 1326.52 796.904 1326.39 814.467 1329.11 831.465 C 1333.41 858.398 1363.82 839.532 1366.38 863.199 C 1366.95 868.474 1366.41 876.333 1366.24 881.796 C 1349.3 883.377 1320.23 881.519 1303.23 880.767 C 1288.52 880.169 1273.8 880.212 1259.09 880.894 C 1248.35 881.339 1205.29 883.811 1197.77 881.192 C 1193.45 876.053 1195.32 863.212 1195.9 856.428 L 1196.1 854.108 C 1219.81 847.2 1232.55 847.858 1235.34 820.001 C 1235.6 801.992 1237.39 783.281 1237.41 765.499 C 1237.46 720.315 1236.4 674.985 1237.85 629.847 C 1238.19 619.245 1237.43 608.444 1237.83 597.54 C 1235.13 587.258 1237.97 561.422 1233.79 548.978 C 1226.37 526.862 1208.15 536.299 1196.38 523.13 C 1193.97 520.433 1195 506.673 1195.99 503.104 C 1196.93 499.48 1195.98 500.887 1198.7 498.602 C 1233.25 497.918 1269.6 502.067 1304.97 500.301 C 1314.62 499.818 1358.24 497.336 1364.12 499.819 C 1368.41 505.791 1366.66 516.605 1366.12 523.932 C 1365.58 524.604 1364.75 525.753 1364.14 526.268 C 1363.82 526.512 1363.51 526.765 1363.19 527 C 1352.56 534.717 1333.28 527.885 1329.1 548.787 C 1326.4 562.294 1322.76 651.993 1327.42 658.796 C 1327.91 659.513 1328.16 659.727 1328.79 660.426 C 1338.99 663.043 1462.76 663.081 1476.98 660.775 C 1479.07 659.659 1479.49 658.983 1481.03 657.256 C 1485.77 642.607 1481.6 561.445 1478.02 544.142 C 1465.52 528.362 1457.17 535.469 1443.92 524.765 C 1440.8 522.24 1441.79 515.226 1442.06 511.154 z"/>
<path transform="translate(0,0)" fill="rgb(31,32,20)" d="M 1442.06 511.154 C 1441.75 507.024 1441.04 503.896 1442.85 500.311 C 1446.73 496.941 1461.47 498.55 1467.33 498.846 C 1495.95 500.159 1524.62 500.412 1553.26 499.605 C 1561.48 499.415 1606.21 496.787 1610.52 500.489 C 1613.45 506.449 1612.42 517.83 1611.36 524.621 C 1611.08 526.404 1606.79 528.027 1604.89 528.729 L 1603.13 527.763 C 1604.49 526.284 1604.71 526.511 1606.79 525.687 C 1607.79 520.293 1608.07 508.198 1607.22 502.831 C 1602.77 501.771 1590.78 504.099 1585.19 504.121 L 1471.37 503.636 C 1466.49 503.6 1446.85 502.183 1444.78 503.54 C 1444.71 506.315 1444.62 507.396 1444.16 510.128 L 1442.06 511.154 z"/>
<path transform="translate(0,0)" fill="rgb(42,43,32)" d="M 1595.68 849.475 C 1603.1 851.008 1605.08 851.494 1611.91 854.598 C 1611.97 863.065 1612.27 873.265 1611.95 881.594 C 1588.92 885.119 1550.41 880.019 1526.16 879.837 C 1511.86 879.729 1452 884.941 1443.46 881.238 C 1439.72 876.052 1440.24 858.614 1444.05 853.87 C 1444.16 855.609 1444.02 857.116 1445.18 858.683 C 1449.04 863.918 1440.89 873.776 1445.71 878.645 L 1450.99 878.395 L 1452.28 876.372 C 1453.84 876.8 1454.7 877.591 1455.93 878.629 C 1478.53 878.102 1502.28 877.953 1524.96 877.528 C 1542.36 877.202 1561.25 879.669 1578.99 878.208 C 1585.76 877.651 1602.66 881.086 1607.3 877.28 C 1605.93 872.66 1608.14 868.638 1607.92 863.58 C 1607.62 856.962 1604.16 857.603 1601.8 853.736 C 1598.82 852.332 1597.99 851.826 1595.68 849.475 z"/>
<path transform="translate(0,0)" fill="rgb(31,32,20)" d="M 1237.83 597.54 C 1237.98 593.58 1238 585.495 1239.03 582.079 C 1240.69 613.244 1239.48 642.872 1239.36 673.963 C 1239.32 685.992 1238.87 697.658 1240.08 709.65 L 1241.12 697.016 C 1241.83 705.202 1242.37 803.855 1241.13 806.943 L 1239.44 799.984 L 1238.51 799.763 C 1236.5 805.549 1238.61 819.753 1236.61 823.401 C 1235.95 821.889 1235.75 821.597 1235.34 820.001 C 1235.6 801.992 1237.39 783.281 1237.41 765.499 C 1237.46 720.315 1236.4 674.985 1237.85 629.847 C 1238.19 619.245 1237.43 608.444 1237.83 597.54 z"/>
<path transform="translate(0,0)" fill="rgb(31,32,20)" d="M 1195.99 503.104 C 1196.93 499.48 1195.98 500.887 1198.7 498.602 C 1233.25 497.918 1269.6 502.067 1304.97 500.301 C 1314.62 499.818 1358.24 497.336 1364.12 499.819 C 1368.41 505.791 1366.66 516.605 1366.12 523.932 C 1365.58 524.604 1364.75 525.753 1364.14 526.268 C 1364.05 525.917 1364.53 503.334 1364.51 501.013 C 1357.89 502.726 1353.72 503.275 1346.88 503.43 C 1307.91 504.313 1269.02 503.554 1230.06 503.495 C 1235.02 503.171 1238.36 503.128 1243.15 501.731 L 1243.02 501.005 C 1237.88 501.174 1232.61 501.39 1227.48 501.668 C 1217.33 502.22 1205.12 498.662 1195.99 503.104 z"/>
<path transform="translate(0,0)" fill="rgb(31,32,20)" d="M 1328.79 660.426 C 1338.99 663.043 1462.76 663.081 1476.98 660.775 L 1477.2 661.584 L 1475.97 662.844 C 1469.39 664.075 1462.34 663.699 1455.65 664.359 C 1420.53 667.824 1385.03 665.713 1349.78 666.107 C 1342.75 666.186 1333.51 666.329 1326.67 665.524 C 1326.28 663.128 1327.01 663.157 1328.79 660.426 z"/>
<path transform="translate(0,0)" fill="rgb(246,243,229)" d="M 1353.59 707.427 C 1359.6 707.825 1365.91 708.348 1371.91 708.432 C 1364.78 713.031 1350.77 707.417 1341.72 710.816 L 1342.01 712.961 C 1337.94 715.974 1335.08 714.088 1329.97 714.783 C 1326.43 715.264 1327.89 719.349 1326.89 719.742 C 1325.01 715.481 1326.52 716.58 1325.69 712.484 L 1326.41 711.223 C 1331.1 707.482 1346.98 707.726 1353.59 707.427 z"/>
<path transform="translate(0,0)" fill="rgb(31,32,20)" d="M 1353.59 707.427 C 1349.68 706.786 1347.05 706.486 1343.12 706.18 L 1343.34 705.619 C 1362.07 705.334 1380.74 706.256 1399.44 705.708 C 1400.62 705.673 1402.53 707.17 1403.41 707.903 C 1396.41 709.156 1380.62 707.994 1371.91 708.432 C 1365.91 708.348 1359.6 707.825 1353.59 707.427 z"/>
<path transform="translate(0,0)" fill="rgb(61,61,51)" d="M 1521.06 805.526 C 1523.75 807.158 1530.06 816.893 1532.59 820.202 C 1531.67 821.108 1528.51 821.409 1526.89 821.733 C 1523.28 817.838 1517.39 817.878 1513.26 813.38 C 1515.09 811.211 1515.07 811.793 1518.34 810.801 L 1521.06 805.526 z"/>
<path transform="translate(0,0)" fill="rgb(31,32,20)" d="M 1513.98 835.551 C 1517.61 837.114 1520.92 839.935 1523.55 842.852 C 1524.55 846.415 1524.64 844.702 1523.24 848.165 C 1519.22 850.624 1517.78 850.148 1513.39 848.36 C 1514.64 846.259 1514.14 847.021 1516.46 845.569 C 1517.48 842.656 1517.38 842.779 1517.03 839.662 C 1515.4 838.498 1515.38 838.392 1513.58 837.539 L 1513.98 835.551 z"/>
<path transform="translate(0,0)" fill="rgb(31,32,20)" d="M 1506.59 811.543 L 1507.86 812.083 C 1507.62 815.429 1508.86 819.181 1508.57 824.376 C 1506.57 824.629 1505.96 824.691 1504.03 825.336 L 1502.64 825.813 L 1503.27 822.972 L 1502.5 821.806 L 1499.5 824.228 L 1498.33 823.468 C 1499.85 821.502 1502.35 819.464 1504.27 817.761 C 1504.92 814.59 1505.01 814.402 1506.59 811.543 z"/>
<path transform="translate(0,0)" fill="rgb(175,175,165)" d="M 1284.39 668.152 C 1289.19 668.82 1297.68 669.02 1300.52 671.945 C 1300.99 677.055 1301.53 677.922 1304.35 682.103 L 1305.1 683.201 C 1304.8 683.613 1304.51 684.025 1304.22 684.437 C 1294.31 671.246 1298.68 675.462 1284.39 668.152 z"/>
<path transform="translate(0,0)" fill="rgb(175,175,165)" d="M 1527.59 537.499 L 1528.85 539.191 C 1527.02 542.525 1526.03 544.955 1523.16 547.446 L 1521.5 547.462 C 1522.28 544.706 1525.8 540.132 1527.59 537.499 z"/>
<path transform="translate(0,0)" fill="rgb(61,61,51)" d="M 1513.59 575.716 C 1515.69 576.57 1515.35 576.501 1517.24 577.842 L 1516.72 579.195 L 1513.74 579.685 C 1510.92 581.316 1511.75 581.386 1508.99 581.231 C 1510.27 577.754 1510.36 578.502 1513.59 575.716 z"/>
<path transform="translate(0,0)" fill="rgb(124,123,115)" d="M 1513.58 837.539 L 1512.69 838.14 C 1511.28 834.254 1508.97 833.714 1508.79 830.43 C 1513.04 832.402 1511.62 831.109 1513.98 835.551 L 1513.58 837.539 z"/>
<path transform="translate(0,0)" fill="rgb(61,61,51)" d="M 1533.07 520.209 L 1534.09 520.941 C 1533.63 524.595 1532.87 525.615 1531.2 529 C 1530 527.437 1530.32 527.841 1529.58 525.947 C 1530.73 523.887 1531.79 522.195 1533.07 520.209 z"/>
<path transform="translate(0,0)" fill="rgb(42,43,32)" d="M 1680.05 425.747 C 1699.02 444.117 1721.86 476.558 1734.65 499.643 L 1738.95 507.689 C 1790.43 602.517 1802.59 713.779 1772.81 817.49 C 1741.84 925.384 1673.18 1016.67 1574.49 1071.39 C 1488.21 1119.35 1386.36 1130.92 1291.52 1103.53 C 1253.09 1092.5 1216.63 1075.51 1183.47 1053.18 C 1177.5 1049.19 1165.98 1041.25 1161.04 1036.38 C 1157.55 1034.46 1146.97 1025.25 1143.62 1022.23 C 1125.55 1005.76 1109.02 987.682 1094.22 968.225 C 1086.06 957.298 1078.89 946.01 1070.48 934.949 C 1083.92 943.815 1099.24 965.091 1111.53 977.854 C 1130.74 997.819 1145.03 1009.02 1166.56 1025.93 C 1353.7 1161.25 1587.42 1113.18 1711.86 918.997 C 1717.36 910.416 1722.53 897.474 1728.6 889.926 C 1730.57 884.819 1733.66 878.479 1735.96 873.386 C 1739.54 866.602 1745.25 851.467 1747.92 844.199 C 1765.83 796.061 1774.4 744.948 1773.16 693.6 C 1772.85 678.545 1770.5 664.364 1769.35 649.465 L 1763.53 617.67 C 1759.62 606.758 1755.75 589.116 1751.31 575.827 C 1734.99 527.105 1703.46 470.858 1667.23 434.062 C 1670.52 429.923 1669.53 429.047 1674 425.997 C 1677.48 426.987 1676.19 426.786 1680.05 425.747 z"/>
<path transform="translate(0,0)" fill="rgb(31,32,20)" d="M 1763.53 617.67 L 1764.73 616.081 L 1766.54 616.474 L 1764.5 616.79 L 1767.42 616.593 C 1769.26 621.303 1770.88 645.2 1769.35 649.465 L 1763.53 617.67 z"/>
<path transform="translate(0,0)" fill="rgb(31,32,20)" d="M 1735.96 873.386 C 1737.58 877.412 1738.45 879.101 1738.8 883.534 L 1737.74 885.546 C 1735.15 886.182 1734.93 886.102 1732.36 886.091 C 1730.49 888.985 1731.18 888.956 1728.6 889.926 C 1730.57 884.819 1733.66 878.479 1735.96 873.386 z"/>
<path transform="translate(0,0)" fill="rgb(31,32,20)" d="M 1738.95 507.689 C 1735 507.904 1736.21 508.404 1733.38 506.494 C 1732.84 502.829 1733.19 503.608 1734.65 499.643 L 1738.95 507.689 z"/>
<path transform="translate(0,0)" fill="rgb(42,43,32)" d="M 1295.57 317.402 C 1300.91 319.336 1307.88 315.829 1313.5 315.771 C 1316.7 315.737 1320.21 317.58 1323.39 318.024 C 1328.09 318.64 1330.8 316.544 1334.59 320.177 C 1331.77 323.903 1321.19 323.348 1318.06 326.754 C 1287.61 336.538 1246.6 347.048 1219.96 366.319 C 1220.99 369.619 1220.9 369.754 1219.98 373.198 C 1216.22 376.52 1210.82 374.579 1204.95 375.537 C 1198.78 378.672 1192.66 383.296 1186.97 387.323 C 1184.27 389.341 1181.12 391.834 1178.36 393.669 C 1097.87 457.128 1045.97 550.04 1034.14 651.858 C 1031.82 672.832 1032.14 688.419 1031.02 708.372 C 1033.66 730.96 1033.3 745.873 1037.59 770.288 C 1041.52 786.792 1045.67 803.103 1051.22 819.15 C 1089.74 930.58 1177.69 1013.91 1286.89 1054.99 C 1288.77 1057.58 1289.61 1057.68 1289.34 1060.04 C 1287.04 1060.41 1284.99 1060.65 1282.68 1060.9 C 1268.08 1059.52 1229.67 1042.06 1216.29 1035.17 C 1152.24 1002.2 1098.5 947.679 1063.92 884.713 C 1050.32 859.954 1042.28 838.439 1033.55 812.223 L 1032.72 813.921 C 1029.31 809.972 1027.88 795.299 1023.82 788.987 C 1022.78 791.509 1022.92 795.591 1022.77 798.536 C 1021.54 795.523 1021.23 793.037 1020.63 789.855 L 1020.52 790.473 C 1020.76 785.844 1020.93 782.465 1020.73 777.811 L 1021.88 777.034 L 1025.16 778.002 C 1023.22 769.187 1021.11 760.641 1020.3 751.646 C 1014.65 721.375 1013.95 655.604 1023.41 626.831 L 1023.67 624.272 C 1026.97 612.462 1027.42 599.095 1032.28 586.672 C 1033.25 578.748 1043.83 548.985 1047.61 541.826 C 1049.51 536.305 1050.65 533.593 1053.24 528.356 C 1053.66 526.492 1061.21 511.918 1062.54 509.342 C 1085.76 464.63 1117.41 424.827 1155.73 392.125 C 1168.96 380.782 1187.53 370.17 1197.32 361.519 L 1198.35 360.592 C 1198.6 358.245 1199 358.487 1200.72 356.305 L 1200.46 355.522 L 1193.15 353.931 L 1193.85 353.374 C 1198.2 353.065 1206.82 351.904 1210.33 353.473 C 1233.29 340.606 1243.37 335.562 1267.77 326.498 C 1274.12 323.984 1279.17 322.447 1285.7 320.498 C 1289.54 318.601 1291.49 318.303 1295.57 317.402 z"/>
<path transform="translate(0,0)" fill="rgb(31,32,20)" d="M 1023.41 626.831 C 1023.7 627.782 1020.53 676.407 1020.35 683.882 C 1020.08 695.026 1022.27 745.792 1020.3 751.646 C 1014.65 721.375 1013.95 655.604 1023.41 626.831 z"/>
<path transform="translate(0,0)" fill="rgb(31,32,20)" d="M 1037.59 770.288 C 1037.51 772.236 1037.67 771.484 1036.62 773.253 C 1033.12 768.612 1026.96 713.59 1031.02 708.372 C 1033.66 730.96 1033.3 745.873 1037.59 770.288 z"/>
<path transform="translate(0,0)" fill="rgb(246,243,229)" d="M 1033.55 812.223 L 1032.72 813.921 C 1029.31 809.972 1027.88 795.299 1023.82 788.987 C 1022.78 791.509 1022.92 795.591 1022.77 798.536 C 1021.54 795.523 1021.23 793.037 1020.63 789.855 L 1020.52 790.473 C 1020.76 785.844 1020.93 782.465 1020.73 777.811 L 1021.88 777.034 L 1025.16 778.002 C 1027.35 789.895 1030.24 800.593 1033.55 812.223 z"/>
<path transform="translate(0,0)" fill="rgb(31,32,20)" d="M 1032.28 586.672 C 1034.02 590.942 1031.7 605.191 1031.28 611.055 C 1029.8 612.127 1029.88 612.027 1028.05 612.308 C 1027.25 616.526 1026.25 620.63 1025.27 624.805 L 1024.31 625.377 L 1023.67 624.272 C 1026.97 612.462 1027.42 599.095 1032.28 586.672 z"/>
<path transform="translate(0,0)" fill="rgb(246,243,229)" d="M 1204.95 375.537 C 1209.54 371.951 1214.86 369.173 1219.96 366.319 C 1220.99 369.619 1220.9 369.754 1219.98 373.198 C 1216.22 376.52 1210.82 374.579 1204.95 375.537 z"/>
<path transform="translate(0,0)" fill="rgb(246,243,229)" d="M 1198.35 360.592 C 1198.6 358.245 1199 358.487 1200.72 356.305 L 1200.46 355.522 L 1193.15 353.931 L 1193.85 353.374 C 1198.2 353.065 1206.82 351.904 1210.33 353.473 C 1206.99 355.49 1201.66 358.929 1198.35 360.592 z"/>
<path transform="translate(0,0)" fill="rgb(31,32,20)" d="M 1178.36 393.669 C 1178.97 391.582 1179.17 391.304 1179.2 389.16 C 1174.89 388.718 1175.41 389.421 1172.44 387.201 L 1172.23 385.181 C 1175.11 384.186 1183.46 386.543 1186.97 387.323 C 1184.27 389.341 1181.12 391.834 1178.36 393.669 z"/>
<path transform="translate(0,0)" fill="rgb(31,32,20)" d="M 1267.77 326.498 C 1274.12 323.984 1279.17 322.447 1285.7 320.498 C 1280.6 328.29 1275.93 328.506 1267.77 326.498 z"/>
<path transform="translate(0,0)" fill="rgb(31,32,20)" d="M 1053.24 528.356 C 1054.94 532.442 1055.13 533.007 1055.25 537.413 L 1053.56 540.347 C 1051.43 540.477 1049.58 541.031 1047.61 541.826 C 1049.51 536.305 1050.65 533.593 1053.24 528.356 z"/>
<path transform="translate(0,0)" fill="rgb(203,112,58)" d="M 1356.21 939.783 C 1365.74 927.051 1378.58 919.001 1394.42 916.642 C 1410.1 914.327 1426.04 918.534 1438.53 928.285 C 1444.37 932.752 1450.87 939.929 1453.59 946.839 C 1458.94 952.048 1460.57 965.903 1460.99 972.964 C 1462.63 999.935 1426.35 1053.29 1408.25 1072.24 C 1406.47 1074.07 1404.58 1075.79 1402.59 1077.37 C 1381.49 1056.7 1364.76 1029.56 1351.73 1003.19 C 1343.61 987.197 1342.02 969.669 1348.72 952.923 C 1349.6 949.149 1353.72 942.885 1356.21 939.783 z"/>
<path transform="translate(0,0)" fill="rgb(184,103,57)" d="M 1356.21 939.783 C 1365.74 927.051 1378.58 919.001 1394.42 916.642 C 1410.1 914.327 1426.04 918.534 1438.53 928.285 C 1444.37 932.752 1450.87 939.929 1453.59 946.839 C 1450.43 945.946 1439.64 930.085 1428.7 924.99 C 1408.37 914.541 1385.58 916.795 1367.73 931.155 C 1364.64 933.641 1359.9 939.023 1356.21 939.783 z"/>
<path transform="translate(0,0)" fill="rgb(184,103,57)" d="M 1348.72 952.923 C 1349.93 957.517 1346.44 974.264 1347.45 981.673 C 1348.42 988.806 1353.32 997.569 1351.73 1003.19 C 1343.61 987.197 1342.02 969.669 1348.72 952.923 z"/>
<path transform="translate(0,0)" fill="rgb(245,239,221)" d="M 1381.43 960.26 C 1394.34 945.917 1407.88 945.65 1422.38 958.162 C 1434.84 963.23 1431.8 986.4 1422.4 993.184 L 1419.62 992.932 C 1404.72 1002.69 1394.02 1001.74 1381.81 988.622 C 1374.27 985.179 1374.12 981.68 1374.46 972.875 C 1374.67 967.475 1375.73 963.314 1380.03 959.765 L 1381.43 960.26 z"/>
<path transform="translate(0,0)" fill="rgb(184,103,57)" d="M 1422.38 958.162 C 1434.84 963.23 1431.8 986.4 1422.4 993.184 L 1419.62 992.932 C 1430.53 980.956 1429.69 971.794 1422.38 958.162 z"/>
<path transform="translate(0,0)" fill="rgb(184,103,57)" d="M 1381.81 988.622 C 1374.27 985.179 1374.12 981.68 1374.46 972.875 C 1374.67 967.475 1375.73 963.314 1380.03 959.765 L 1381.43 960.26 C 1376.19 970.076 1376.08 978.935 1381.81 988.622 z"/>
<path transform="translate(0,0)" fill="rgb(42,43,32)" d="M 1338.79 357.448 L 1336.87 356.928 L 1337.41 355.927 C 1345.79 353.01 1361.48 350.788 1370.16 352.691 L 1370.18 354.573 C 1377.46 354.418 1404.95 353.13 1409.97 357.028 C 1406.95 360.541 1382.25 362.523 1376.45 363.279 C 1225.53 382.964 1105.25 502.901 1077.22 651.324 C 1075.7 659.382 1070.64 703.321 1068.64 705.605 C 1064.12 702.548 1065.77 674.354 1066.07 668.241 C 1069.29 606.323 1089.81 546.548 1125.29 495.702 C 1178.84 418.324 1247.72 376.514 1338.79 357.448 z"/>
<path transform="translate(0,0)" fill="rgb(246,243,229)" d="M 1338.79 357.448 L 1336.87 356.928 L 1337.41 355.927 C 1345.79 353.01 1361.48 350.788 1370.16 352.691 L 1370.18 354.573 C 1359.69 355.224 1349.22 356.183 1338.79 357.448 z"/>
<path transform="translate(0,0)" fill="rgb(61,61,51)" d="M 1265.84 391.126 C 1266.64 392.31 1266.37 391.616 1266.08 393.444 C 1262.42 394.95 1258.41 394.211 1254.32 393.933 L 1253.58 393.33 C 1254.88 391.897 1262.93 391.562 1265.84 391.126 z"/>
<path transform="translate(0,0)" fill="rgb(42,43,32)" d="M 1339.06 307.584 C 1350.16 304.452 1372.08 303.219 1383.67 302.821 C 1453.92 299.976 1523.59 316.557 1585.02 350.74 C 1596.01 356.894 1644.16 387.22 1646.75 396.837 C 1641.48 395.766 1636.53 396.169 1628.44 394.676 L 1625.76 396.666 C 1618.6 390.675 1608.49 384.232 1600.72 378.899 C 1558.9 350.174 1524.85 339.69 1477.1 326.405 C 1471.03 325.729 1461.5 323.639 1454.98 322.634 C 1441.62 320.58 1428.18 319.019 1414.7 317.956 C 1404.77 317.743 1394.84 317.822 1384.92 318.193 C 1383.82 318.23 1370.07 318.886 1369.68 318.843 C 1359.97 319.981 1351.39 321.088 1341.85 322.719 C 1337.08 323.535 1321.5 326.764 1318.06 326.754 C 1321.19 323.348 1331.77 323.903 1334.59 320.177 C 1330.8 316.544 1328.09 318.64 1323.39 318.024 C 1320.21 317.58 1316.7 315.737 1313.5 315.771 C 1307.88 315.829 1300.91 319.336 1295.57 317.402 C 1308.78 313.504 1325.51 308.97 1339.06 307.584 z"/>
<path transform="translate(0,0)" fill="rgb(31,32,20)" d="M 1295.57 317.402 C 1308.78 313.504 1325.51 308.97 1339.06 307.584 C 1334.47 311.442 1326.87 311.033 1320.8 313.822 C 1323.72 315.845 1361.51 315.69 1369.68 318.843 C 1359.97 319.981 1351.39 321.088 1341.85 322.719 C 1337.08 323.535 1321.5 326.764 1318.06 326.754 C 1321.19 323.348 1331.77 323.903 1334.59 320.177 C 1330.8 316.544 1328.09 318.64 1323.39 318.024 C 1320.21 317.58 1316.7 315.737 1313.5 315.771 C 1307.88 315.829 1300.91 319.336 1295.57 317.402 z"/>
<path transform="translate(0,0)" fill="rgb(31,32,20)" d="M 1414.7 317.956 C 1431.01 313.527 1460.16 319.365 1480.15 319.1 C 1478.77 319.857 1473.18 320.901 1470.27 321.979 L 1470.67 323.242 C 1473.12 323.789 1474.95 324.142 1477.34 325.031 L 1477.1 326.405 C 1471.03 325.729 1461.5 323.639 1454.98 322.634 C 1441.62 320.58 1428.18 319.019 1414.7 317.956 z"/>
<path transform="translate(0,0)" fill="rgb(46,48,35)" d="M 1625.76 396.666 L 1628.44 394.676 C 1636.53 396.169 1641.48 395.766 1646.75 396.837 L 1645.47 398.837 L 1646.39 399.514 L 1650.02 397.327 C 1649.34 397.048 1669.57 415.473 1670.26 416.3 C 1673.03 418.91 1677.63 423.026 1680.05 425.747 C 1676.19 426.786 1677.48 426.987 1674 425.997 C 1669.53 429.047 1670.52 429.923 1667.23 434.062 C 1651.6 417.566 1643.77 410.216 1625.76 396.666 z"/>
<path transform="translate(0,0)" fill="rgb(31,32,20)" d="M 1670.26 416.3 C 1673.03 418.91 1677.63 423.026 1680.05 425.747 C 1676.19 426.786 1677.48 426.987 1674 425.997 C 1671.88 420.582 1670.66 425.871 1670.26 416.3 z"/>
<path transform="translate(0,0)" fill="rgb(31,32,20)" d="M 1286.89 1054.99 C 1298.88 1059.53 1325.85 1066.45 1334.15 1070.36 C 1319.51 1069.73 1296.64 1065.94 1282.68 1060.9 C 1284.99 1060.65 1287.04 1060.41 1289.34 1060.04 C 1289.61 1057.68 1288.77 1057.58 1286.89 1054.99 z"/>
<path transform="translate(0,0)" fill="rgb(246,243,229)" d="M 1156.32 759.222 L 1153.26 761.529 L 1151.08 760.636 C 1148.29 756.423 1148.22 755.172 1147.33 750.388 L 1148.11 749.871 C 1151.41 750.086 1154.49 749.9 1157.79 749.78 C 1159.05 752.767 1160.93 756.09 1160.49 759.152 C 1157.83 760.127 1159.17 760.048 1156.32 759.222 z"/>
<path transform="translate(0,0)" fill="rgb(211,194,175)" d="M 1112.73 666.486 C 1114.93 666.62 1114.91 666.753 1116.95 667.683 C 1119.1 672.328 1122.27 677.688 1121.89 682.498 C 1119.16 683.214 1120.45 683.295 1117.87 682.341 C 1115.15 678.224 1114.2 671.746 1112.73 666.486 z"/>
<path transform="translate(0,0)" fill="rgb(42,43,32)" d="M 1340.99 289.353 L 1340.67 288.238 L 1342.94 286.551 L 1342.73 285.696 C 1339.13 284.534 1336.94 283.797 1333.52 282.209 L 1333.99 281.149 C 1337.46 280.188 1347.09 281.244 1351.25 281.504 C 1358.08 281.932 1375.23 278.254 1380.45 280.828 C 1378.99 283.268 1369.25 282.024 1364.13 284.211 C 1367.22 284.747 1367.89 284.662 1371.06 284.489 L 1372.03 286.039 C 1362.18 287.484 1351 288.366 1340.99 289.353 z"/>
<path transform="translate(0,0)" fill="rgb(246,243,229)" d="M 1063.93 429.656 L 1064.79 430.267 C 1066.78 434.058 1064.65 439.062 1061.7 441.828 L 1060.78 442.652 L 1059.67 439.352 C 1060.04 434.305 1060.93 433.492 1063.93 429.656 z"/>
<path transform="translate(0,0)" fill="rgb(31,32,20)" d="M 1742.83 433.423 C 1745.84 434.004 1748.07 434.959 1748.37 438.165 L 1747.01 439.341 L 1740.29 437.108 L 1740.23 435.477 L 1742.83 433.423 z"/>
<path transform="translate(0,0)" fill="rgb(42,43,32)" d="M 1509.95 296.378 C 1514.31 296.026 1519.5 295.456 1523.63 296.562 L 1523.57 298.333 C 1517.55 298.241 1515.84 297.783 1509.95 296.378 z"/>
<path transform="translate(0,0)" fill="rgb(46,48,35)" d="M 1839.94 1028.17 C 1862.73 1026.41 1865.12 1034.04 1880.81 1046.65 C 1925.22 1082.31 1968.65 1119.08 2011.8 1156.22 C 2025.2 1167.75 2039.95 1178.3 2053.38 1189.87 C 2064.75 1199.58 2074.04 1210.71 2086.56 1219.02 C 2092.12 1222.64 2092.45 1228.9 2093.12 1235.1 C 2114.13 1256.38 2113.94 1246.52 2136.42 1260.17 C 2147.64 1268.1 2157.72 1283.97 2159.2 1297.4 C 2164.73 1347.49 2122.01 1398.95 2073.24 1406.33 C 2056.77 1408.62 2044.16 1403.4 2031.77 1392.59 C 1941.34 1313.69 1853.58 1231.55 1765.28 1150.33 C 1740.69 1127.71 1767.09 1101.69 1782.96 1083.18 C 1799.28 1064.14 1817.73 1039.7 1839.94 1028.17 z"/>
<path transform="translate(0,0)" fill="rgb(61,61,51)" d="M 2101.18 1309.81 L 2102.97 1309.57 C 2106.01 1311.64 2107.39 1314.02 2109.57 1316.99 L 2108.89 1318.49 L 2107.92 1318.79 C 2106.34 1317.3 2101.44 1311.59 2101.18 1309.81 z"/>
<path transform="translate(0,0)" fill="rgb(61,61,51)" d="M 1969.92 1236.65 L 1970.88 1237.63 C 1969.48 1241.53 1970.07 1243.45 1967.94 1248.64 C 1964.27 1245.49 1967.2 1239.67 1969.92 1236.65 z"/>
<path transform="translate(0,0)" fill="rgb(61,61,51)" d="M 2047.47 1272.16 L 2047.99 1272.3 C 2048.7 1278.52 2051.39 1276.36 2049.88 1282.03 C 2047.49 1280.49 2047.64 1280.4 2046.45 1277.94 C 2046.51 1275.29 2046.38 1274.65 2047.47 1272.16 z"/>
<path transform="translate(0,0)" fill="rgb(61,61,51)" d="M 1979.14 1262.08 L 1980.76 1261.53 C 1984.22 1263.22 1984.28 1263.71 1986.42 1267.13 C 1984 1266.46 1979.89 1264.52 1979.14 1262.08 z"/>
<path transform="translate(0,0)" fill="rgb(61,61,51)" d="M 1925.88 1219.8 C 1929.63 1221.38 1933.18 1222.8 1936.8 1224.69 C 1930.09 1225.22 1929.68 1225.54 1925.88 1219.8 z"/>
<path transform="translate(0,0)" fill="rgb(246,243,229)" d="M 882.419 1244.6 C 884.95 1246.77 885.007 1247.84 886.177 1251.13 C 885.717 1256.74 884.253 1256.3 879.428 1257.04 L 877.894 1257.37 L 876.509 1256.39 C 877.175 1252.5 880.286 1248.15 882.419 1244.6 z"/>
<path transform="translate(0,0)" fill="rgb(211,194,175)" d="M 942.517 818.602 L 946.048 820.012 C 948.063 823.574 947.369 824.181 947.338 828.631 C 943.128 825.929 942.976 823.421 942.517 818.602 z"/>
<path transform="translate(0,0)" fill="rgb(211,194,175)" d="M 1587.78 39.2379 L 1590.19 40.3111 C 1592.25 43.6166 1591.46 44.0907 1591.19 48.5464 L 1589.62 48.4345 C 1588.59 44.9855 1588.31 42.7494 1587.78 39.2379 z"/>
</svg>