<svg version="1.1" xmlns="http://www.w3.org/2000/svg" style="display: block;" viewBox="0 0 2048 2048" width="1024" height="1024" preserveAspectRatio="none">
<defs>
	<linearGradient id="Gradient1" gradientUnits="userSpaceOnUse" x1="1089.15" y1="861.729" x2="1085.69" y2="864.04">
		<stop class="stop0" offset="0" stop-opacity="1" stop-color="rgb(255,255,255)"/>
		<stop class="stop1" offset="1" stop-opacity="1" stop-color="rgb(255,255,255)"/>
	</linearGradient>
</defs>
<path transform="translate(0,0)" fill="rgb(255,255,255)" d="M 983.895 318.566 C 984.755 318.505 985.616 318.453 986.478 318.41 C 1132.49 311.868 1275.23 363 1383.88 460.771 C 1605.32 660.637 1634.39 985.339 1450.36 1218.17 C 1447.61 1221.65 1445.62 1236.27 1444.44 1241.2 C 1439.11 1263.5 1427.31 1283.06 1411.7 1299.69 C 1385.38 1327.85 1351.94 1353.22 1312.49 1357.51 C 1304.95 1358.33 1286.32 1356.9 1281.35 1359.28 C 1264.07 1367.56 1248.42 1377.01 1230.59 1384.53 C 1168.46 1410.84 1102.15 1425.93 1034.75 1429.1 L 1033.13 1429.31 C 1018.02 1431.1 989.313 1429.5 973.826 1428.5 C 865.896 1421.55 754.378 1379.12 669.543 1312.55 C 548.462 1217.55 469.085 1084.84 454.074 930.587 C 439.116 776.875 480.888 640.318 578.405 520.275 C 660.103 421.303 773.447 353.551 899.304 328.453 C 933.67 321.638 951.379 321.887 983.895 318.566 z"/>
<path transform="translate(0,0)" fill="rgb(28,40,38)" d="M 989.09 352.135 C 1276.68 340.242 1519.55 563.531 1531.82 851.101 C 1544.09 1138.67 1321.12 1381.84 1033.57 1394.49 C 745.481 1407.16 501.761 1183.69 489.467 895.581 C 477.172 607.475 700.968 364.05 989.09 352.135 z"/>
<path transform="translate(0,0)" fill="rgb(255,255,255)" d="M 978.313 366.377 C 1001.61 365.17 1027.66 365.083 1050.85 367.091 C 1095.23 370.985 1138.98 380.25 1181.13 394.685 C 1186.89 396.616 1200.08 400.559 1203.53 404.663 L 1202.55 407.552 C 1208.4 408.763 1203.54 404.776 1207.83 405.374 C 1212.14 405.973 1222.55 411.076 1226.46 412.859 C 1273.93 434.912 1317.76 464.081 1356.43 499.359 C 1457.23 589.997 1517.45 717.283 1523.61 852.698 C 1529.33 984.407 1482.77 1113.04 1394.08 1210.57 C 1322.17 1290.74 1226.92 1346.32 1121.75 1369.49 C 1099.12 1374.53 1072.93 1379.13 1049.75 1380.25 C 917.78 1390.67 786.955 1349.14 685.157 1264.51 C 578.04 1174.55 511.091 1053.29 499.022 913.232 C 488.403 780.223 530.959 648.429 617.361 546.748 C 685.975 465.752 778.054 408.069 880.87 381.67 C 916.697 372.635 941.996 369.461 978.313 366.377 z"/>
<path transform="translate(0,0)" fill="rgb(28,40,38)" d="M 985.63 376.257 C 1260.21 362.44 1494 573.847 1507.8 848.433 C 1521.59 1123.02 1310.17 1356.79 1035.58 1370.56 C 761.024 1384.33 527.285 1172.94 513.493 898.382 C 499.7 623.828 711.077 390.072 985.63 376.257 z"/>
<path transform="translate(0,0)" fill="rgb(255,255,255)" d="M 999.834 510.763 C 1200.25 505.036 1367.36 662.862 1373.08 863.276 C 1378.81 1063.69 1220.98 1230.8 1020.56 1236.52 C 820.153 1242.24 653.05 1084.42 647.326 884.006 C 641.602 683.596 799.424 516.49 999.834 510.763 z"/>
<path transform="translate(0,0)" fill="rgb(28,40,38)" d="M 997.656 524.125 C 1190.77 517.15 1352.95 668.096 1359.83 861.214 C 1366.71 1054.33 1215.69 1216.44 1022.57 1223.23 C 829.579 1230.01 667.607 1079.11 660.73 886.126 C 653.853 693.14 804.674 531.095 997.656 524.125 z"/>
<path transform="translate(0,0)" fill="rgb(255,255,255)" d="M 987.417 530.197 C 1177.13 517.555 1341.17 661.087 1353.83 850.796 C 1366.49 1040.51 1222.98 1204.56 1033.27 1217.25 C 843.536 1229.93 679.446 1086.39 666.782 896.653 C 654.118 706.914 797.677 542.84 987.417 530.197 z"/>
<path transform="translate(0,0)" fill="rgb(28,40,38)" d="M 983.136 536.24 C 1169.51 521.213 1332.79 660.105 1347.85 846.481 C 1362.91 1032.86 1224.04 1196.16 1037.67 1211.24 C 851.251 1226.33 687.906 1087.43 672.847 901.011 C 657.787 714.593 796.716 551.27 983.136 536.24 z"/>
<path transform="translate(0,0)" fill="rgb(255,255,255)" d="M 1035.94 689.847 L 1173.97 689.937 L 1174.01 711.328 C 1160.42 713.541 1151.68 713.405 1141.59 722.994 C 1136.44 739.637 1138.7 793.809 1138.72 813.945 C 1138.4 849.139 1138.7 884.335 1139.61 919.519 C 1139.86 933.32 1138.25 964.434 1142.96 977.693 C 1145.2 983.997 1166.54 988.014 1174.07 989.817 L 1174.32 1010.27 L 1164.18 1010.6 L 1035.46 1010.76 C 1035.42 1003.2 1035.62 996.324 1035.94 988.768 C 1044.82 987.28 1057.22 986.567 1064.27 980.63 C 1075.2 971.415 1068.29 886.118 1070.87 866.133 C 1070.92 865.736 1070.99 865.341 1071.04 864.945 C 1056.93 863.932 1038.52 864.328 1024.17 864.306 C 1000.11 864.173 976.037 864.256 951.971 864.555 C 951.933 882.57 949.257 967.735 955.372 977.51 C 960.55 985.787 977.185 987.559 986.049 989.8 L 986.123 1010.38 C 971.512 1011.31 950.481 1010.68 935.3 1010.69 C 906.548 1010.82 877.796 1010.74 849.045 1010.47 C 849.103 1002.91 849.392 996.141 848.211 988.659 C 857.74 987.046 878.746 985.603 881.146 974.759 C 885.132 956.75 883.976 937.448 884 919.012 L 884.122 858.714 C 884.184 819.297 884.451 779.896 883.691 740.489 C 883.2 714.98 870.492 714.825 848.399 711.563 C 847.935 704.405 848.003 697.222 848.601 690.074 C 863.4 689.336 882.453 689.916 897.494 689.934 L 986.03 689.901 L 986.022 711.134 C 975.233 713.119 967.52 713.719 957.881 719.229 C 949.517 731.906 951.768 752.505 951.792 767.599 L 951.964 828.011 L 1070.13 828.116 C 1070.14 810.409 1073.02 734.084 1066.89 723.026 C 1062.05 714.309 1044.42 713.039 1035.48 710.661 L 1035.94 689.847 z"/>
<path transform="translate(0,0)" fill="rgb(255,255,255)" d="M 1083.87 858.99 C 1087.09 856.018 1087.62 854.925 1089.66 851 C 1097.29 848.411 1105.71 845.781 1113.45 849.101 C 1115.86 851.865 1115.28 850.35 1115.83 853.538 L 1114.93 853.586 L 1111.87 849.879 C 1107.73 855.779 1109.5 865.032 1097.62 869.571 C 1094.39 869.4 1094.53 869.254 1091.61 867.743 C 1087.65 864.869 1083.94 865.993 1083.87 858.99 z"/>
<path transform="translate(0,0)" fill="url(#Gradient1)" d="M 1083.87 858.99 C 1090.06 861.035 1090.22 861.397 1091.61 867.743 C 1087.65 864.869 1083.94 865.993 1083.87 858.99 z"/>
<path transform="translate(0,0)" fill="rgb(255,255,255)" d="M 909.954 868.708 C 917.44 868.149 925.108 878.715 917.131 886.612 C 913.991 886.518 913.285 887.36 911.038 885.15 C 905.699 879.898 903.971 874.382 909.954 868.708 z"/>
<path transform="translate(0,0)" fill="rgb(28,40,38)" d="M 920.673 858.053 C 922.991 858.836 922.958 859.057 925.078 860.426 C 926.583 863.437 926.551 861.965 925.968 864.866 C 923.003 865.098 920.657 860.993 920.673 858.053 z"/>
<path transform="translate(0,0)" fill="rgb(219,121,59)" d="M 1009.74 1012.44 C 1023.75 1011.9 1037.53 1016.09 1048.87 1024.33 C 1061.63 1033.62 1070.01 1047.52 1072.81 1063.06 C 1079.72 1101.44 1038.31 1147.35 1016.14 1177.79 C 1015.4 1178.43 1014.48 1178.86 1013.6 1179.35 C 1002.96 1172.96 969.01 1116.36 961.577 1102.72 C 939.144 1061.57 962.977 1017.55 1009.74 1012.44 z"/>
<path transform="translate(0,0)" fill="rgb(28,40,38)" d="M 1008.25 1041.78 C 1025.35 1038.85 1041.66 1050.12 1044.98 1067.15 C 1048.29 1084.18 1037.39 1100.74 1020.44 1104.43 C 1009.13 1106.9 997.373 1103.05 989.713 1094.37 C 982.052 1085.69 979.69 1073.55 983.538 1062.63 C 987.386 1051.72 996.841 1043.74 1008.25 1041.78 z"/>
<path transform="translate(0,0)" fill="rgb(234,131,67)" d="M 972.404 1072.04 L 977.839 1072.03 L 978.878 1073.77 L 978.244 1074.99 L 973.977 1074.23 L 973.166 1074.83 C 976.127 1080.86 976.365 1082.68 975.403 1089.31 L 973.723 1089.93 C 965.726 1092.29 964.882 1089.47 960.42 1082.03 C 965.834 1077.83 967.362 1074.77 972.404 1072.04 z"/>
<path transform="translate(0,0)" fill="rgb(234,131,67)" d="M 1056.08 1063.63 L 1058.19 1064.73 C 1058.94 1066.46 1059.5 1068.2 1060.02 1070 C 1062.39 1071.82 1063.9 1072.69 1065.42 1075.29 C 1063.05 1076.8 1060.23 1076.29 1056.88 1076.41 C 1053.5 1076.05 1054.92 1076.66 1052.35 1074.87 C 1052.55 1073.47 1052.77 1072.12 1053.06 1070.73 L 1049.09 1067.33 C 1050.94 1064.77 1052.45 1064.97 1056.08 1063.63 z"/>
<path transform="translate(0,0)" fill="rgb(234,131,67)" d="M 996.68 1130.09 L 997.63 1130.04 C 1000.33 1136.56 1006.28 1131.98 1009.53 1133.3 L 1010.2 1135.54 C 1008.73 1138.56 1009.73 1137.23 1006.72 1139.38 C 1001.46 1134.62 994.753 1138.47 990.902 1133.18 L 992.047 1131.03 L 993.353 1130.78 L 994.406 1131.35 L 996.68 1130.09 z"/>
<path transform="translate(0,0)" fill="rgb(234,131,67)" d="M 982.339 1107.94 C 988.074 1107.8 992.586 1107.43 994.822 1113.63 L 993.889 1115.31 L 992.255 1114.57 C 990.258 1117.44 990.507 1117.39 987.274 1118.64 C 984.033 1116.83 983.594 1112.21 982.339 1107.94 z"/>
<path transform="translate(0,0)" fill="rgb(234,131,67)" d="M 999.156 1116.9 C 1002.21 1117.21 1002.25 1116.99 1004.79 1118.58 C 1006.7 1122.86 1005.99 1124.64 1005.4 1129.52 L 1003.38 1130.35 C 1001.54 1128.38 998.994 1126.3 998.287 1124.01 C 1001.73 1123.53 1000.45 1124.33 1002.75 1122.39 L 1002.21 1120.41 L 998.819 1119.45 L 999.156 1116.9 z"/>
<path transform="translate(0,0)" fill="rgb(234,131,67)" d="M 1028.54 1027.8 C 1033.54 1029.79 1038.93 1033.45 1040.49 1038.67 C 1035.71 1036.04 1028.68 1033.45 1028.54 1027.8 z"/>
<path transform="translate(0,0)" fill="rgb(255,255,255)" d="M 997.563 383.474 C 1036.88 382.669 1094.75 386.995 1132.07 399.266 L 1132.55 400.468 C 1128.4 404.551 1118.4 401.644 1113 400.511 C 1032.2 383.55 945.377 385.727 865.77 410.574 C 739.764 448.986 634.638 536.705 574.283 653.795 C 516.297 765.062 504.75 894.768 542.168 1014.53 C 581.647 1138.21 668.259 1241.35 783.244 1301.62 C 822.094 1321.76 856.847 1335.25 899.427 1345.58 C 1114.29 1397.72 1346.32 1291.17 1446.99 1093.59 C 1505.65 980.02 1516.53 847.73 1477.22 726.105 C 1436.02 599.187 1345.51 500.354 1227.5 439.997 C 1210.4 431.169 1190.26 423.115 1172.1 416.623 C 1159.15 411.994 1145.35 409.713 1133.38 402.93 L 1133.08 401.453 C 1140.77 400.305 1162.02 406.866 1169.72 409.468 C 1254.44 438.075 1330.41 490.431 1388.38 558.207 C 1458.81 639.621 1500.12 742.169 1505.81 849.669 C 1517.73 1123.58 1305.43 1350.08 1033.05 1363.99 C 764.317 1377.72 524.561 1160.19 515.256 890.969 C 510.588 760.298 558.721 633.249 648.799 538.472 C 740.132 440.795 864.602 387.996 997.563 383.474 z"/>
<path transform="translate(0,0)" fill="rgb(255,255,255)" d="M 1406.58 682.311 C 1425.74 681.162 1433.72 698.474 1436.46 714.332 C 1429.69 733.864 1420.28 737.095 1401.68 742.439 C 1386.86 743.065 1373.62 735.606 1370.66 720.27 C 1369.17 712.752 1370.89 704.956 1375.39 698.755 C 1383.17 687.814 1394.09 684.287 1406.58 682.311 z"/>
<path transform="translate(0,0)" fill="rgb(28,40,38)" d="M 1404.45 696.193 C 1410.34 695.852 1421.82 696.881 1423.68 702.911 C 1428.16 717.448 1409.54 725.185 1401.41 728.554 C 1372.01 733.359 1376.64 706.279 1404.45 696.193 z"/>
<path transform="translate(0,0)" fill="rgb(255,255,255)" d="M 709.68 542.432 C 728.886 543.104 748.069 565.64 741.174 584.801 C 736.826 596.885 724.635 609.471 713.36 615.466 C 710.488 614.819 711.233 614.667 709.033 611.364 C 709.36 609.661 709.603 607.749 709.864 606.016 C 707.526 599.228 688.099 578.32 681.166 573.56 C 679.629 572.505 678.868 573.436 676.231 574.296 C 672.827 573.517 674.478 574.264 671.702 570.719 C 671.238 562.208 688.759 552.384 694.912 547.338 C 699.264 543.769 704.147 542.953 709.68 542.432 z"/>
<path transform="translate(0,0)" fill="rgb(28,40,38)" d="M 704.626 555.034 C 711.504 554.816 719.736 558.796 723.841 564.105 C 734.182 577.477 731.647 586.852 720.094 596.519 C 712.692 586.992 699.549 573.459 691.071 564.243 C 695.957 559.223 698.331 557.977 704.626 555.034 z"/>
<path transform="translate(0,0)" fill="rgb(255,255,255)" d="M 1040.52 420.62 C 1043.08 420.499 1041.92 420.219 1043.97 421.817 L 1043.88 425.523 C 1042.14 428.098 1038.94 432.197 1037.82 434.885 C 1033.62 444.929 1032.03 479.406 1025.04 485.741 C 1021.03 487.211 1017.76 486.594 1013.45 486.33 C 1009.52 473.477 1005.67 460.601 1001.89 447.704 C 998.499 461.096 996.248 473.09 993.661 486.702 C 988.936 486.862 983.985 487.329 979.252 487.695 C 975.332 471.756 968.823 449.475 961.787 434.613 C 958.92 428.557 957.971 432.609 958.248 423.5 C 963.823 423.175 975.021 421.657 979.968 422.648 C 984.321 429.524 977.464 430.873 978.243 435.735 C 980.053 447.036 984.554 458.463 986.947 470.013 C 988.875 463.536 995.867 438.17 994.248 432.796 C 992.6 432.393 991.578 432.188 989.866 431.904 L 988.207 431.638 L 987.069 429.58 C 986.882 426.107 986.647 426.22 988.314 423.242 C 991.901 421.173 1002.96 421.745 1008 421.648 C 1011.96 438.583 1015.41 453.547 1021.36 469.956 C 1022.42 461.356 1028.04 436.093 1027.45 431.292 C 1022.82 427.883 1021.65 428.046 1023.36 422.575 C 1026.66 420.688 1036.1 420.811 1040.52 420.62 z"/>
<path transform="translate(0,0)" fill="rgb(255,255,255)" d="M 646.399 1060.21 C 678.205 1057.53 691.752 1106.19 643.881 1118.74 C 637.015 1120.1 629.89 1118.85 623.899 1115.23 C 604.396 1103.68 612.615 1073.77 630.667 1065.49 C 637.375 1062.41 639.259 1061.56 646.399 1060.21 z"/>
<path transform="translate(0,0)" fill="rgb(28,40,38)" d="M 647.553 1073.06 C 653.329 1072.38 659.491 1073.41 663.338 1078.14 C 668.545 1092.61 650.365 1102.51 639.329 1106.51 C 629.233 1109.24 620.33 1101.03 625.813 1090.39 C 631.28 1079.78 637.227 1077.1 647.553 1073.06 z"/>
<path transform="translate(0,0)" fill="rgb(255,255,255)" d="M 1362.13 1056.41 C 1365.32 1058.11 1365.81 1058.1 1368.15 1060.94 C 1368.25 1061.9 1368.58 1065.83 1369.23 1066.39 C 1377.64 1073.53 1390.41 1080.22 1399.94 1085.62 C 1403.2 1087.48 1409.68 1085.74 1413.97 1089.55 C 1413.71 1093.85 1406.59 1105.94 1402.89 1107.95 C 1399.39 1107.59 1400.88 1108.25 1398.28 1105.88 C 1396.2 1096.5 1393.14 1096.31 1385.25 1091.69 C 1381.39 1089.43 1377.34 1087.32 1373.41 1085.18 C 1386.44 1106.95 1420.17 1134.49 1367.34 1118.64 C 1361.53 1116.9 1355.01 1115.46 1349.11 1113.93 C 1354.56 1117.26 1360.47 1121.47 1365.8 1125.1 C 1369.44 1127.39 1372.02 1129.47 1375.98 1131.72 C 1380.4 1129.37 1383.23 1129.41 1386.16 1133.38 C 1385.37 1137.49 1379.21 1143.72 1376.31 1147.2 C 1374.54 1149.33 1373.9 1148.74 1371.64 1148.56 C 1368.44 1144.63 1370.87 1141.56 1369.77 1140.48 C 1363.9 1134.71 1341.73 1121.75 1334.97 1118.1 C 1331.79 1119.15 1331.02 1119.6 1327.6 1119.41 C 1325.19 1117.12 1325.95 1118.47 1325.28 1115.21 C 1327.43 1109.46 1331.62 1104.27 1335.23 1099.18 C 1347.91 1101.05 1364.52 1106.18 1378.68 1108.73 C 1370.2 1096.85 1361.12 1085.4 1351.49 1074.42 C 1355.31 1068.37 1358.61 1062.64 1362.13 1056.41 z"/>
<path transform="translate(0,0)" fill="rgb(255,255,255)" d="M 1134.57 438.554 C 1154.02 444.261 1170.73 445.23 1176.2 467.051 C 1172.69 474.326 1171.19 474.725 1165.9 480.208 C 1163.82 482.363 1170.11 491.502 1168.44 496.666 C 1166.32 503.204 1160.73 506.642 1155.02 509.412 C 1140.75 511.413 1125.53 503.373 1111.45 498.327 C 1115.44 489.621 1119.55 490.949 1120.87 488.08 C 1125.64 477.71 1136.4 457.665 1133.29 446.047 C 1132.6 443.444 1133.99 440.69 1134.57 438.554 z"/>
<path transform="translate(0,0)" fill="rgb(28,40,38)" d="M 1140.43 477.694 C 1146.47 480.308 1151.89 481.718 1155.02 487.369 C 1155.48 492.885 1153.3 494.724 1149.81 498.976 C 1143.4 499.295 1138.86 497.131 1132.82 494.993 C 1134.99 488.946 1137.69 483.495 1140.43 477.694 z"/>
<path transform="translate(0,0)" fill="rgb(28,40,38)" d="M 1147.94 454.208 C 1159.39 456.61 1166.68 459.967 1157.68 472.127 C 1152.04 472.061 1147.7 472.867 1144.58 467.932 C 1144.13 463.28 1146.31 458.773 1147.94 454.208 z"/>
<path transform="translate(0,0)" fill="rgb(255,255,255)" d="M 1270.05 1176.01 C 1288.87 1176.59 1283.36 1195.16 1287.24 1196.37 C 1319.91 1206.58 1301.59 1230.66 1280.37 1242.43 C 1277.2 1244.19 1275.47 1246.56 1269.97 1245.12 L 1268.66 1242.06 C 1269.13 1239.91 1269.3 1238.7 1269.55 1236.5 C 1265 1227.07 1254.05 1213.92 1246.96 1205.71 C 1244.98 1203.42 1242.48 1204.15 1238.78 1204.15 C 1235.55 1201.88 1236.91 1203.33 1235.23 1199.09 C 1238.21 1192.2 1262.56 1178.06 1270.05 1176.01 z"/>
<path transform="translate(0,0)" fill="rgb(28,40,38)" d="M 1280.54 1207.9 C 1283.01 1207.84 1283.52 1207.97 1285.99 1208.27 C 1289.75 1210.49 1290.88 1213.54 1293.07 1217.43 C 1288.43 1222.97 1287.37 1224 1281.66 1228.42 C 1276.2 1226.51 1272.21 1220 1272.63 1214.03 C 1275.16 1209.95 1275.71 1210.62 1280.54 1207.9 z"/>
<path transform="translate(0,0)" fill="rgb(28,40,38)" d="M 1264.52 1189.88 C 1269.26 1189.78 1270.18 1189.61 1273.55 1192.98 C 1275.74 1200.62 1270.65 1203.53 1265 1207.14 C 1261.71 1205.46 1257.8 1198.44 1255.67 1195.1 C 1258.26 1193.39 1261.79 1191.47 1264.52 1189.88 z"/>
<path transform="translate(0,0)" fill="rgb(255,255,255)" d="M 1248.27 494.118 C 1275.4 491.472 1275.74 518.386 1265.64 521.338 C 1260.2 516.292 1262.72 505.216 1254.7 503.912 C 1251.59 505.339 1251.43 505.966 1249.24 508.572 C 1247.87 513.517 1248.94 536.329 1253.25 539.162 C 1254.51 537.618 1255.08 531.268 1255.95 527.934 L 1257.23 527.387 C 1261.82 529.431 1275.13 535.932 1274.44 541.137 C 1270.48 544.906 1268.8 544.514 1264.23 543.23 C 1260.54 546.871 1256.9 550.559 1253.3 554.291 L 1255.62 557.766 C 1257.71 560.895 1258.55 561.395 1258.54 565.228 C 1256.27 569.338 1257.83 568.018 1254.33 570.023 C 1247.66 568.568 1243.89 555.603 1242.74 555.27 C 1234.18 552.88 1219.06 552.22 1216.28 541.459 C 1211.35 522.318 1220.11 517.455 1235.27 512.471 C 1242.18 505.694 1233.41 503.445 1248.27 494.118 z"/>
<path transform="translate(0,0)" fill="rgb(28,40,38)" d="M 1235.72 523.611 C 1239.18 527.176 1242.24 540.083 1239.46 544.789 L 1235.14 545.336 C 1225.45 537.243 1226.67 531.233 1235.72 523.611 z"/>
<path transform="translate(0,0)" fill="rgb(255,255,255)" d="M 581.995 710.185 C 585.403 711.083 585.327 710.905 588.123 712.96 C 588.668 714.428 589.962 718.172 591.18 718.909 C 601.131 724.93 615.477 726.171 625.493 731.517 C 633.549 735.816 629.409 730.055 637.295 730.066 C 638.616 731.256 640.354 732.277 639.79 734.319 C 638.15 740.257 635.651 749.298 631.602 753.775 L 630.071 753.75 C 627.866 750.811 627.339 749.236 625.895 745.93 C 620.463 742.836 615.058 741.705 609.02 740.012 C 607.056 747.395 604.953 752.018 601.909 759.079 C 606.086 760.652 610.286 762.159 614.472 763.662 C 619.663 765.527 620.763 762.852 626.573 759.604 L 628.965 762.51 L 627.015 759.525 L 628.906 761.495 C 630.056 767.745 628.016 771.81 625.932 777.769 C 625.186 780.513 624.578 782.199 623.61 784.836 C 620.453 786.881 622.269 786.26 617.669 785.667 C 614.886 783.135 615.757 783.678 614.905 779.038 C 610.529 773.842 583.731 767.443 575.989 764.31 C 575.612 764.157 569.37 766.644 568.217 767.113 C 564.407 766.445 566.003 767.28 563.282 764.472 C 563.406 758.933 567.522 750.301 569.993 745.234 L 572.266 745.073 C 580.756 749.004 580.831 752.915 590.863 756.264 L 592.45 756.786 L 599.321 736.566 C 599.565 736.677 596.109 735.009 596.42 735.241 C 590.527 730.856 583.177 733.977 577.436 731.505 C 575.203 726.107 579.834 716.318 581.995 710.185 z"/>
<path transform="translate(0,0)" fill="rgb(255,255,255)" d="M 686.978 1105.41 C 693.15 1107.58 700.199 1118.05 704.166 1123.35 C 720.479 1145.14 712.555 1155.61 687.416 1157.11 C 678.222 1162.65 681.841 1180.97 673.722 1182.23 C 669.525 1180.18 667.717 1176.89 664.846 1173.07 C 667.202 1168.91 668.901 1164.75 670.817 1160.37 C 671.78 1158.56 672.696 1156.72 673.563 1154.86 C 675.237 1151.21 676.046 1147.95 674.638 1144.08 L 673.373 1143.57 C 660.645 1146.8 662.914 1159.04 658.495 1162.21 C 654.386 1160.54 652.042 1155.29 648.324 1152.77 C 642.815 1149.04 640.164 1142.54 648.515 1139.69 C 651.085 1140.85 651.236 1141.07 653.982 1141.45 C 660.648 1137.39 678.781 1121.23 683.582 1114.57 C 684.806 1112.87 681.324 1112.6 686.978 1105.41 z"/>
<path transform="translate(0,0)" fill="rgb(28,40,38)" d="M 691.633 1125.79 C 703.19 1131.09 701.04 1141.21 689.976 1146.59 C 684.144 1143.54 683.143 1141.84 678.803 1137.01 C 682.758 1132.56 686.988 1129.49 691.633 1125.79 z"/>
<path transform="translate(0,0)" fill="rgb(255,255,255)" d="M 765.754 1186.51 C 770.178 1187.83 782.796 1195.73 784.779 1200.06 L 783.367 1203 C 779.74 1205.09 779.924 1204.31 774.967 1204.21 C 772.241 1206.78 769.637 1212.77 767.825 1216.34 C 772.831 1219.52 779.525 1224.78 784.445 1228.44 C 796.071 1213.29 788.851 1214.23 793.408 1206.44 C 798.893 1205.57 809.342 1213.1 814.544 1216.28 C 813.224 1218.67 812.48 1219.82 810.903 1222.05 C 810.43 1222.13 809.958 1222.2 809.486 1222.28 C 804.973 1222.05 801.401 1227.51 798.389 1231.93 C 793.753 1238.73 785.605 1249.52 782.349 1257.33 C 782.255 1257.55 782.968 1262.03 783.041 1262.44 L 783.322 1263.95 C 781.11 1266.8 782.446 1265.56 778.602 1267.18 L 759.806 1255.72 C 761.292 1252.8 761.442 1252.11 763.715 1249.7 C 774.679 1248.52 774.591 1245.49 779.686 1236.53 C 773.131 1232.64 768.55 1229.14 762.439 1224.53 C 760.218 1228.45 754.973 1233.82 753.348 1237.28 C 752.366 1239.38 757.167 1246.3 752.001 1249.81 C 748.255 1249.47 736.309 1241.02 733.515 1237.85 C 733.474 1233.66 732.842 1235.4 734.905 1232.28 L 741.578 1231.33 C 748.271 1224.84 760.103 1205.37 764.315 1196.86 C 762.382 1190.43 762.524 1192.06 765.754 1186.51 z"/>
<path transform="translate(0,0)" fill="rgb(255,255,255)" d="M 627.373 990.372 L 629.657 990.931 C 632.62 993.175 635.58 1004.12 636.97 1008.35 C 629.608 1015.66 617.659 1033.3 611.457 1042.3 C 619.215 1039.79 629.422 1036.88 636.496 1032.92 C 638.444 1031.83 638.036 1030.5 638.553 1027.6 C 641.31 1025.2 639.737 1026.06 643.624 1025.31 C 648.146 1027.52 653.394 1038.1 649.645 1044 C 645.005 1045.82 642.211 1041.97 640.835 1042.4 C 627.054 1046.64 606.177 1057.82 592.865 1060.44 C 590.681 1057.71 590.655 1057.93 589.809 1054.59 C 591.107 1046.66 610.477 1022.25 616.426 1014.12 C 609.762 1017.35 595.033 1021.36 590.779 1025.3 C 588.746 1031.98 588.688 1030.81 582.499 1034.23 C 579.946 1028.5 575.226 1018.67 574.307 1012.91 L 576.505 1010.84 C 580.937 1010.31 580.476 1011.63 585.65 1013.68 C 596.116 1009.62 610.913 1005 620.357 999.274 C 624.253 996.91 619.223 996.359 627.373 990.372 z"/>
<path transform="translate(0,0)" fill="rgb(255,255,255)" d="M 642.874 602.841 C 661.311 606.899 679.635 617.336 698.511 619.78 C 700.906 620.09 701.355 615.56 706.05 620.078 C 707.417 626.533 698.178 638.749 692.877 641.662 C 690.069 640.107 690.26 639.944 688.413 637.224 C 689.375 634.554 689.402 635.526 689.17 632.942 C 686.186 631.116 686.031 630.775 682.507 630.147 C 677.538 631.589 673.343 638.999 670.08 643.526 C 670.238 647.009 669.756 645.374 671.98 648.457 C 679.957 649.778 679.195 649.569 684.238 654.931 C 681.135 659.767 676.182 669.966 670.581 670.692 C 662.87 667.64 669.478 664.861 666.922 660.89 C 656.662 644.948 645.566 629.523 635.07 613.761 C 638.92 609.6 640.556 608.181 642.874 602.841 z"/>
<path transform="translate(0,0)" fill="rgb(28,40,38)" d="M 649.756 617.378 C 656.251 619.604 665.733 621.724 670.626 625.534 C 670.667 628.476 669.63 628.45 666.927 631.407 C 666.034 632.45 664.747 633.718 663.772 634.741 C 658.675 633.324 652.997 622.207 649.756 617.378 z"/>
<path transform="translate(0,0)" fill="rgb(255,255,255)" d="M 1209.17 1213.88 C 1213.42 1214.44 1240.75 1243.83 1246.43 1248.23 C 1251 1251.78 1255.76 1251.35 1258.09 1256.51 C 1256.33 1261.04 1244.92 1266.61 1240.21 1267.24 C 1237.17 1264.48 1238.83 1260.71 1237.03 1256.58 C 1237.03 1256.58 1232.58 1252.33 1232.16 1251.93 L 1223.71 1257.12 C 1220.14 1259.16 1217.12 1260.3 1215.91 1263.56 C 1218.22 1269.19 1225.48 1270.1 1224.98 1275.71 C 1220.88 1279.28 1212.65 1287.32 1207.3 1284.74 C 1207.13 1284.4 1199.32 1227.44 1197.74 1220.24 L 1209.17 1213.88 z"/>
<path transform="translate(0,0)" fill="rgb(28,40,38)" d="M 1209.68 1230.5 C 1213.28 1232.48 1223.97 1241.46 1224.48 1245.3 L 1222.43 1246.91 L 1213.54 1252.22 C 1212.75 1245.16 1211.07 1237.53 1209.68 1230.5 z"/>
<path transform="translate(0,0)" fill="rgb(255,255,255)" d="M 1302.88 1137.6 C 1316.13 1140.87 1341.35 1157.76 1356.02 1161.07 C 1362.92 1162.62 1359.91 1160.82 1365.62 1166.23 C 1362.03 1169.29 1352.52 1179.27 1349.3 1180.48 C 1344.58 1175.35 1347.27 1173.13 1339.69 1167.57 C 1333.75 1171.62 1331.72 1173.76 1326.63 1178.79 C 1324.19 1181.61 1324.65 1181.68 1325.41 1184.74 C 1330.25 1189.2 1332.66 1185.79 1338.76 1193.24 C 1335.46 1197.14 1328.38 1207.11 1323.17 1205.78 C 1320.5 1203.03 1321.04 1203.93 1320.4 1200.76 C 1317.51 1186.38 1302.34 1161.16 1294.72 1147.94 C 1297.6 1145 1300.39 1140.96 1302.88 1137.6 z"/>
<path transform="translate(0,0)" fill="rgb(28,40,38)" d="M 1308.96 1152.51 C 1314.19 1155.19 1326.06 1158.54 1326.93 1164.25 L 1323.84 1168.46 L 1321.08 1171.07 C 1316.39 1169.61 1312.25 1158.23 1308.96 1152.51 z"/>
<path transform="translate(0,0)" fill="rgb(255,255,255)" d="M 889.831 1248.83 C 895.473 1249.98 898.552 1250.39 903.898 1252.69 C 903.971 1267.73 904.765 1283.6 905.357 1298.68 C 905.627 1305.55 909.203 1309.54 908.645 1316.09 C 907.664 1317.28 907.467 1318.09 906.146 1317.95 C 901.88 1317.5 888.891 1313.41 886.17 1311.01 C 886.793 1305.3 893.688 1304.07 892.389 1296.76 C 890.183 1294.22 888.993 1294.15 885.785 1293.14 L 884.676 1292.8 L 883.514 1292.49 C 878.699 1291.26 876.639 1290.19 872.446 1292.66 C 869.294 1298.31 875.751 1302.86 869.608 1306.58 C 865.203 1305.96 852.631 1304.49 851.299 1300.02 C 853.432 1295.49 859.315 1293.27 863.668 1287.13 C 872.77 1274.29 881.299 1262.07 889.831 1248.83 z"/>
<path transform="translate(0,0)" fill="rgb(28,40,38)" d="M 891.275 1265.62 C 892.907 1269.71 894.383 1282.75 891.028 1285.63 L 887.41 1284.76 C 884.753 1283.4 884.432 1283.58 882.88 1281.14 C 883.609 1275.32 887.801 1270.64 891.275 1265.62 z"/>
<path transform="translate(0,0)" fill="rgb(255,255,255)" d="M 1099.67 1256.24 L 1101.92 1256.01 C 1107.08 1259.6 1117.65 1283.69 1122.05 1290.14 C 1126.16 1296.18 1132.06 1301.62 1136.09 1307.63 C 1137.24 1309.35 1136.61 1310.48 1136.16 1312.05 C 1132.68 1314.86 1119.54 1317.85 1115.81 1316.1 C 1113.39 1310.14 1120.05 1309.04 1114.1 1300.93 L 1112.34 1300.16 L 1096.9 1303.48 C 1091.17 1310.94 1100.31 1311.95 1098.65 1319.73 C 1095.27 1322.57 1084.07 1325.48 1080.21 1323.74 C 1079.24 1320.59 1079.34 1320.8 1079.89 1317.52 C 1081.36 1315.72 1083.84 1312.78 1084.08 1310.6 C 1085.99 1293.7 1088.17 1275.29 1089.46 1258.47 L 1099.67 1256.24 z"/>
<path transform="translate(0,0)" fill="rgb(28,40,38)" d="M 1098.13 1272.41 C 1101.42 1274.64 1108.91 1287.67 1107.22 1291.24 L 1096.45 1293.58 C 1097.21 1286.24 1097.81 1279.77 1098.13 1272.41 z"/>
<path transform="translate(0,0)" fill="rgb(255,255,255)" d="M 1380.69 1017.61 C 1396.32 1018.4 1412.52 1020.52 1428.31 1020.44 C 1433.83 1020.41 1441.13 1017.49 1444.36 1019.77 C 1444.64 1024.42 1440.79 1038.15 1436.1 1040.25 C 1427.93 1039.36 1423.9 1021.21 1415.09 1049.32 C 1414.52 1051.12 1416.19 1052.7 1417.19 1054.33 L 1420.11 1056.55 C 1422.49 1054.68 1422.43 1054.75 1425.26 1053.65 C 1429.15 1054.8 1427.39 1053.84 1430.42 1057.14 C 1430.17 1063.71 1425.51 1073.79 1418.07 1074.34 C 1414.25 1071.43 1417.6 1068.24 1411.65 1062.61 C 1399.86 1051.46 1387.19 1041.42 1375.02 1030.61 C 1376.71 1026.2 1378.74 1021.91 1380.69 1017.61 z"/>
<path transform="translate(0,0)" fill="rgb(28,40,38)" d="M 1390.13 1029.9 C 1396.85 1030.23 1405.75 1031.67 1412.6 1032.6 L 1408 1041.95 L 1406.56 1044.21 C 1402.41 1043.36 1393.41 1033.29 1390.13 1029.9 z"/>
<path transform="translate(0,0)" fill="rgb(255,255,255)" d="M 1066.62 424.712 C 1081.22 427.506 1095.85 430.092 1110.51 432.47 C 1110.06 437.474 1110.1 442.751 1107.5 446.861 C 1101.57 449.136 1098.61 443.006 1093.22 440.667 C 1091.47 439.905 1085.04 439.804 1082.88 439.728 C 1082.21 445.36 1081.36 449.22 1080.13 454.678 C 1086.32 455.2 1095.66 454.904 1099.66 459.282 C 1100.22 463.244 1099.76 462.569 1098.14 466.863 C 1095.72 467.774 1082.76 465.068 1079.15 464.462 C 1077.57 470.156 1076.76 474.44 1075.69 480.229 C 1080.57 481.601 1085.32 483.039 1090.42 483.286 C 1095.27 483.52 1097.36 477.404 1102.33 478.668 C 1104.53 483.189 1101.53 490.963 1100.12 495.839 C 1086.94 492.781 1073.79 491.356 1060.58 488.585 C 1054.06 487.219 1063.59 470.859 1064.53 465.198 C 1066.15 455.479 1072.11 442.583 1066.27 432.376 C 1064.86 429.91 1066.22 426.779 1066.62 424.712 z"/>
<path transform="translate(0,0)" fill="rgb(255,255,255)" d="M 819.807 461.932 C 823.4 463.154 827.617 475.017 826.104 478.635 C 823.293 479.554 819.529 477.749 816.488 476.714 C 811.521 477.678 807.21 480.476 802.69 482.929 C 804.615 487.365 807.641 492.411 810.036 496.7 C 816.046 493.626 824.707 487.825 831.127 492.28 L 831.058 493.938 C 826.801 501.406 822.674 502.195 814.648 506.048 C 816.944 511.27 819.001 516.918 821.06 522.262 C 846.214 510.016 831.543 510.896 840.016 502.799 C 844.584 504.755 845.899 509.204 847.98 513.691 C 849.201 515.938 849.254 515.775 849.35 518.299 C 845.789 522.547 812.557 538.729 809 537.906 C 806.136 533.886 810.121 525.234 805.874 518.031 C 800.826 509.471 796.691 495.307 789.326 488.317 C 783.046 487.634 783.673 485.868 781.032 480.432 C 794.42 474.62 806.736 468.456 819.807 461.932 z"/>
<path transform="translate(0,0)" fill="rgb(255,255,255)" d="M 1382.78 615.514 C 1388.62 616.711 1403.92 644.341 1408.39 651.302 C 1403.48 655.049 1399.01 659.197 1392.86 659.849 C 1390.85 656.315 1394.72 651.243 1393.15 647.622 C 1391.54 643.932 1387.86 639.419 1385.45 636.163 L 1373.34 644.854 C 1377.69 652.375 1381.51 655.048 1381.03 663.761 L 1378.99 665.176 C 1371.86 663.528 1367.52 656.043 1363.58 650.462 L 1352.95 657.195 L 1350.83 658.813 C 1350.81 663.619 1356.29 669.444 1359.49 673.05 C 1363.44 673.824 1366.44 674.059 1368.66 677.042 C 1367.22 681.987 1359.23 684.883 1354.79 687.008 C 1351.09 681.103 1332.39 654.247 1332.36 650.833 C 1334.59 648.175 1373.25 633.691 1378.4 625.432 C 1380.37 622.27 1376.74 621.737 1382.78 615.514 z"/>
<path transform="translate(0,0)" fill="rgb(255,255,255)" d="M 612.581 650.871 C 617.622 653.488 622.637 656.155 627.625 658.871 C 626.174 661.319 625.563 662.131 623.78 664.366 C 613.075 666.587 613.46 669.477 609.345 678.793 C 614.029 680.622 619.264 683.391 623.834 685.641 C 624.933 683.401 626.047 681.167 627.174 678.94 C 629.385 674.481 631.097 670.912 636.282 669.501 L 637.747 670.667 C 639.23 678.827 635.891 682.726 631.901 690.326 L 647.111 698.436 C 649.473 694.544 654.704 687.134 653.754 682.998 C 650.973 680.532 651.503 681.726 650.472 678.61 C 652.291 674.74 653.636 673.395 657.867 673.028 L 662.159 676.991 C 664.165 678.024 666.142 679.367 668.063 680.582 C 663.004 690.558 653.888 710.258 646.962 719.178 C 646.276 720.062 644.971 719.57 643.514 719.413 C 641.187 715.955 641.929 716.431 641.516 711.661 C 636.724 707.532 630.772 704.796 625.393 701.479 C 615.177 695.18 611.173 691.604 598.882 692.121 L 597.201 692.199 C 593.69 690.456 593.899 691.251 592.37 688.436 C 594.646 681.739 608.462 656.575 612.581 650.871 z"/>
<path transform="translate(0,0)" fill="rgb(255,255,255)" d="M 1334.74 571.277 C 1353.9 568.894 1360.86 581.632 1365.96 597.767 C 1361.85 601.155 1357.34 605.8 1352.13 605.575 C 1350.08 602.009 1352.78 595.713 1351.62 591.055 C 1350.65 587.119 1346.72 582.038 1342.04 583.404 C 1334.33 585.652 1337.89 595.102 1339.84 600.676 C 1346.27 619.067 1344.27 628.199 1323.24 631.319 C 1306.28 627.492 1301.78 617.723 1296.65 602.353 C 1301.5 598.779 1304.98 593.725 1309.56 592.311 C 1313.77 593.417 1312.9 593.669 1316.45 597.412 L 1309.83 605.969 C 1313.18 612.232 1317.48 620.062 1325.69 620.697 C 1339.37 610.247 1306.65 589.07 1334.74 571.277 z"/>
<path transform="translate(0,0)" fill="rgb(255,255,255)" d="M 944.94 1261.38 C 957.903 1261.19 961.86 1263.85 972.487 1270.69 C 970.136 1276.6 971.153 1282.76 966.802 1285.88 C 957.435 1284.24 963.198 1276.77 954.622 1271.12 C 948.561 1270.01 944.873 1272.27 942.355 1277.62 C 943.488 1284.46 996.469 1310.33 951.612 1325.92 C 938.645 1326 933.843 1323.89 923.72 1316.77 C 924.142 1311.39 924.069 1303.88 927.737 1299.99 C 935.277 1299.24 935.03 1308.31 937.847 1312.71 C 942.391 1314.96 949.535 1315.54 953.351 1311.8 C 954.395 1306.24 951.987 1302.12 946.986 1300.61 C 927.114 1294.58 921.467 1266.87 944.94 1261.38 z"/>
<path transform="translate(0,0)" fill="rgb(255,255,255)" d="M 820.579 1222.38 C 829.431 1223.23 852.512 1235.86 861.299 1240.27 C 858.888 1245.57 856.485 1253.6 850.42 1254.7 C 849.028 1251.22 850.323 1249.21 848.817 1245.18 C 844.155 1241.98 839.989 1240.86 834.668 1238.98 C 832.789 1243.09 831.027 1248.34 829.436 1252.66 C 835.94 1255.51 844.559 1257.81 845.552 1265.75 L 843.974 1267.04 C 835.643 1268.64 832.449 1265.74 824.611 1261.72 L 818.935 1272.66 C 818.167 1274.89 818.204 1273.75 819.343 1276.14 C 832.621 1285.05 831.29 1278.5 841.921 1281.58 L 842.89 1283.4 C 842.458 1288.2 839.523 1292.28 837.064 1296.61 C 828.988 1292.8 803.406 1281.33 797.371 1276.57 L 797.52 1274.3 C 800.456 1271.46 799.694 1272.34 804.453 1271.43 C 809.55 1266.48 820.767 1240.24 822.528 1232.18 C 822.951 1230.24 819.16 1230.85 820.579 1222.38 z"/>
<path transform="translate(0,0)" fill="rgb(255,255,255)" d="M 889.818 436.116 L 890.868 436.286 C 892.802 438.167 892.543 438.405 893.129 441.137 C 889.584 451.307 879.513 483.121 888.084 490.528 C 891.35 493.35 895.987 497.273 896.828 500.508 C 894.418 504.812 877.298 509.417 872.782 507.245 C 872.788 505.709 872.835 504.337 873.342 502.872 C 877.524 490.798 871.689 484.132 863.131 475.914 C 856.656 469.891 840.772 461.366 841.033 454.703 C 844.347 450.329 854.302 447.426 859.545 446.464 C 867.969 450.946 861.655 454.524 861.705 458.044 C 866.115 463.208 870.679 467.456 875.564 472.155 C 876.057 466.193 877.453 456.374 876.913 451.046 C 873.285 448.009 868.694 444.871 874.639 441.47 C 878.733 439.128 885.277 437.48 889.818 436.116 z"/>
<path transform="translate(0,0)" fill="rgb(255,255,255)" d="M 724.823 1147.74 C 737.237 1158.34 749.203 1170.59 761.383 1180.47 C 758.233 1184.91 754.543 1191.19 749.627 1193.17 C 744.417 1189.8 750.041 1182.65 740.784 1177.42 C 735.076 1180.02 717.525 1201.53 711.943 1208.02 C 714.647 1210.94 716.303 1212.1 714.384 1215.96 L 711.834 1216.56 C 704.335 1214.32 695.984 1207.6 692.29 1200.92 L 693.508 1197.87 C 697.016 1195.82 697.192 1196.89 702.508 1197.6 C 709.574 1193.19 724.406 1175.26 729.832 1168.03 C 725.995 1161.01 721.797 1165.43 715.064 1161.52 L 714.842 1159.26 C 717.115 1154.32 720.81 1151.52 724.823 1147.74 z"/>
<path transform="translate(0,0)" fill="rgb(255,255,255)" d="M 982.587 1266.51 C 994.919 1268.21 1019.22 1267.89 1032.01 1268 C 1032.21 1272.84 1033.48 1282.08 1029.92 1285.41 C 1026.82 1284.89 1023.61 1280.56 1018.73 1277.94 C 1015.55 1277.91 1016.93 1277.42 1014.5 1279.58 C 1013.52 1286.51 1011.84 1313.84 1014.76 1319.15 C 1018.17 1322.04 1020.57 1323.2 1019.02 1327.84 C 1014.2 1331.42 998.792 1332.13 994.75 1328.22 C 993.945 1325.13 993.692 1325.2 994.549 1322.2 C 996.151 1321.27 997.768 1320.36 999.399 1319.48 C 1000.87 1312.72 1001.7 1285.69 1000.43 1278.91 L 998.839 1278.24 C 991.829 1278.4 990.009 1280.99 983.814 1282.33 L 982.334 1281.1 C 981.116 1276.48 982.092 1271.39 982.587 1266.51 z"/>
<path transform="translate(0,0)" fill="rgb(255,255,255)" d="M 745.872 503.718 C 747.76 504.314 748.374 505.173 750.057 506.551 C 751.563 510.552 750.953 509.581 749.444 514.711 C 751.27 521.505 768.348 543.904 773.29 550.59 C 776.733 548.173 782.95 544.326 785.145 541.115 L 783.932 536.147 C 784.985 532.372 785.463 530.781 789.321 530.677 C 794.097 533.49 797.21 540.041 800.28 545.054 L 789.885 552.814 C 783.698 557.271 772.247 566.146 765.367 568.642 C 757.681 566.063 763.01 560.313 761.675 557.999 C 755.421 547.159 744.744 532.279 737.33 522.79 L 735.008 523.739 C 732.048 522.724 729.51 519.077 727.326 516.526 C 733.637 512.447 739.822 508.175 745.872 503.718 z"/>
<path transform="translate(0,0)" fill="rgb(255,255,255)" d="M 1152.16 1240.89 C 1154.3 1241.73 1154.43 1242.37 1156.22 1244.23 C 1156.68 1248.09 1155.53 1248.69 1153.61 1252.91 C 1154.79 1260 1164.45 1284.52 1167.85 1291.67 C 1190.24 1283.67 1178.04 1282.71 1185.4 1275.42 C 1190.2 1277.13 1193.35 1288.27 1195.08 1292.93 L 1182.7 1297.27 C 1174.3 1300.65 1163.12 1305.01 1154.59 1307.39 C 1153.01 1303.9 1152.68 1295.64 1151.88 1291.37 C 1150.38 1283.41 1143.93 1262.71 1139.58 1256.76 C 1136.17 1255.91 1136.1 1255.9 1132.99 1254.26 C 1131.44 1250.98 1131.71 1252.71 1132.58 1248.85 L 1152.16 1240.89 z"/>
<path transform="translate(0,0)" fill="rgb(255,255,255)" d="M 1509.35 1378.52 C 1516.43 1385.26 1526.01 1396.42 1532.75 1403.85 L 1576.86 1452.78 L 1686.06 1573.1 L 1788.52 1687.52 C 1803.34 1704.14 1818.68 1720.65 1833.28 1737.45 C 1840.36 1745.59 1843.78 1755.8 1846.71 1766.03 L 1846.98 1768.11 C 1846.97 1771.78 1846.91 1775.45 1846.82 1779.11 C 1845.75 1816.02 1815.96 1845.91 1778.7 1844.14 C 1764.59 1843.36 1751.15 1837.91 1740.48 1828.64 C 1730.47 1819.81 1716 1800.23 1707.36 1789.3 L 1654.91 1723.02 L 1520.35 1556.29 L 1462.77 1485.27 C 1452.28 1472.33 1440.68 1456.92 1429.66 1444.84 C 1455.56 1424.18 1483.18 1397.78 1509.35 1378.52 z"/>
<path transform="translate(0,0)" fill="rgb(28,40,38)" d="M 1846.71 1766.03 L 1846.98 1768.11 C 1843.32 1768.09 1835.25 1768.46 1832.24 1766.86 C 1836.75 1765.53 1841.91 1765.97 1846.71 1766.03 z"/>
<path transform="translate(0,0)" fill="rgb(255,255,255)" d="M 1425.6 1302.7 C 1429.41 1305.03 1439.3 1315.47 1443.05 1319.28 C 1460.14 1336.63 1479.49 1351.25 1497.24 1367.73 C 1482.83 1382.44 1450.52 1407.97 1433.88 1421.66 L 1421.41 1433.01 C 1415.61 1425.1 1407.08 1410.19 1401.74 1401.39 C 1391.46 1384.17 1380.78 1367.2 1369.71 1350.49 C 1389.21 1335.61 1407.87 1319.65 1425.6 1302.7 z"/>
<path transform="translate(0,0)" fill="rgb(28,40,38)" d="M 1936.45 1886.51 C 1940.52 1889.17 1944.91 1909.13 1953.15 1917.25 C 1962.24 1926.19 1977.05 1929.12 1983.44 1935.95 L 1982.94 1937.87 C 1978.18 1940.81 1973.82 1941.72 1968.31 1943.75 C 1959.19 1947.1 1948.16 1962.06 1942.64 1969.93 C 1941.8 1971.12 1939.48 1980.52 1938.12 1983.62 L 1936.19 1983.83 C 1926.74 1970.67 1923.41 1954.97 1907.66 1946.05 C 1901.41 1942.52 1892.81 1941.02 1887.9 1936.75 C 1887.86 1936.1 1887.81 1935.44 1887.77 1934.79 C 1894.05 1930.23 1907.97 1926.55 1914.4 1921.86 C 1927.21 1912.5 1927.73 1898.81 1936.45 1886.51 z"/>
<path transform="translate(0,0)" fill="rgb(28,40,38)" d="M 457.783 1126.28 C 465.011 1125.73 470.382 1123.85 475.785 1129.06 C 477.666 1134.88 475.254 1139.97 473.395 1145.92 C 468.105 1145.87 461.015 1140.91 456.09 1138.11 C 456.511 1133.88 456.719 1130.41 457.783 1126.28 z"/>
<path transform="translate(0,0)" fill="rgb(161,145,120)" d="M 807.32 1546.3 C 812.643 1545.98 814.429 1545.58 818.708 1548.84 C 821.371 1556.44 814.52 1559.46 808.987 1562.88 C 803.442 1562.68 800.815 1561.66 797.963 1556.83 C 796.672 1549.12 801.084 1547.86 807.32 1546.3 z"/>
<path transform="translate(0,0)" fill="rgb(28,40,38)" d="M 937.78 1820.37 C 946.008 1821.44 949.802 1830.29 944.531 1837.41 C 932.539 1836.65 930.375 1828.67 937.78 1820.37 z"/>
<path transform="translate(0,0)" fill="rgb(28,40,38)" d="M 229.627 596.548 C 233.367 597.062 236.133 598.395 238.328 601.271 C 238.153 605.343 238.224 604.057 235.452 607.936 C 230.713 608.002 229.295 608.495 226.502 604.454 C 226.422 600.54 227.397 599.769 229.627 596.548 z"/>
<path transform="translate(0,0)" fill="rgb(28,40,38)" d="M 1706.86 1901.33 C 1712.75 1900.74 1717.05 1899.85 1721.9 1903.19 C 1724.08 1907 1723.57 1905.34 1723.05 1910.21 C 1718.78 1910.06 1709.2 1905.04 1706.86 1901.33 z"/>
<path transform="translate(0,0)" fill="rgb(28,40,38)" d="M 69.0773 75.9626 C 72.5593 76.7984 74.4646 76.9234 77.2278 79.2133 C 77.9976 83.1637 77.5474 82.3137 75.8328 86.7594 C 71.5941 87.0726 71.0639 86.9299 68.4501 84.0015 C 67.7207 80.1647 68.0624 79.6284 69.0773 75.9626 z"/>
<path transform="translate(0,0)" fill="rgb(28,40,38)" d="M 128 1012.93 C 137.083 1013.32 141.338 1024.76 142.798 1032.39 C 140.293 1031.3 129.029 1015.76 128 1012.93 z"/>
<path transform="translate(0,0)" fill="rgb(28,40,38)" d="M 453.939 1251.83 C 458.653 1257.21 458.91 1259.08 457.091 1265.95 C 452.242 1264.33 453.033 1265.25 451.084 1261.65 C 451.018 1257.67 452.327 1255.61 453.939 1251.83 z"/>
<path transform="translate(0,0)" fill="rgb(28,40,38)" d="M 1749.84 675.695 C 1755.85 681.041 1752.99 689.691 1749.13 695.3 L 1748.26 694.386 C 1750.23 689.213 1750.02 681.215 1749.84 675.695 z"/>
<path transform="translate(0,0)" fill="rgb(28,40,38)" d="M 1287.4 1479.43 C 1289.27 1480.71 1288.88 1480.61 1290.34 1482.51 C 1290.22 1485.95 1289.87 1485.36 1287.78 1488.76 C 1286.03 1487.98 1286.02 1487.81 1284.46 1486.66 C 1284.23 1483 1284.97 1483.31 1287.4 1479.43 z"/>
<path transform="translate(0,0)" fill="rgb(28,40,38)" d="M 1877.37 34.7213 C 1879.95 36.7453 1879.57 42.9176 1879.83 46.2803 C 1876.12 42.8159 1876.75 39.3198 1877.37 34.7213 z"/>
<path transform="translate(0,0)" fill="rgb(28,40,38)" d="M 1200.46 248.703 C 1201.02 251.185 1200.6 256.801 1200.52 259.628 C 1197.65 254.773 1198.29 253.543 1200.46 248.703 z"/>
</svg>