<svg xmlns="http://www.w3.org/2000/svg" width="1696.000000pt" height="1535.000000pt" viewBox="0 0 1696.000000 1535.000000">
  <path d="M8080 12910 c-107 -8 -150 -17 -188 -41 -16 -10 -27 -11 -39 -3 -23
13 -89 9 -109 -7 -13 -10 -17 -10 -23 0 -6 10 -17 10 -47 2 -21 -5 -73 -17
-114 -26 -153 -34 -266 -63 -295 -78 -16 -9 -61 -21 -100 -28 -38 -7 -101 -23
-140 -37 -38 -14 -138 -48 -220 -77 -162 -57 -261 -99 -425 -182 -57 -29 -112
-53 -122 -53 -9 0 -19 -8 -22 -17 -6 -20 -19 -29 -276 -191 -96 -61 -203 -133
-237 -159 -322 -252 -657 -587 -850 -853 -26 -36 -61 -80 -79 -98 -25 -26 -35
-48 -43 -95 -6 -33 -9 -63 -6 -65 2 -3 -1 -14 -7 -26 -14 -26 -19 -156 -6
-156 14 0 5 -110 -10 -122 -17 -15 -28 -2 -13 16 10 11 9 16 -4 23 -11 7 -17
28 -19 81 -2 40 -6 75 -9 78 -7 7 -35 -45 -41 -77 -10 -54 -24 -78 -45 -72
-25 6 -57 -38 -153 -207 -146 -257 -173 -324 -259 -635 -21 -77 -43 -153 -49
-170 -7 -16 -16 -43 -20 -60 -5 -16 -19 -64 -30 -105 -39 -133 -66 -257 -74
-340 -4 -30 -13 -100 -21 -155 -36 -242 -43 -366 -40 -775 2 -381 4 -416 29
-590 15 -102 38 -228 51 -280 13 -52 26 -115 30 -140 10 -66 51 -205 100 -333
14 -38 29 -98 34 -133 12 -85 62 -188 119 -246 43 -45 45 -48 29 -66 -22 -25
-21 -36 7 -91 28 -53 117 -240 170 -355 20 -44 59 -112 86 -150 27 -39 112
-165 189 -281 131 -196 258 -359 335 -430 18 -16 49 -55 69 -86 27 -42 43 -58
66 -62 16 -4 38 -18 48 -33 30 -44 95 -114 105 -114 20 0 88 -56 88 -72 0 -10
17 -26 38 -37 22 -11 46 -31 56 -45 9 -14 22 -26 28 -26 6 0 30 -20 52 -44 32
-33 61 -51 129 -77 51 -19 102 -47 120 -64 40 -39 85 -57 128 -53 43 4 45 17
9 56 -16 18 -35 42 -40 53 -6 10 -19 19 -29 19 -17 0 -37 27 -27 37 9 9 83
-50 112 -90 17 -23 44 -49 59 -57 16 -8 38 -25 48 -38 10 -12 26 -22 36 -22
10 0 18 -6 19 -12 1 -17 25 -79 37 -98 6 -8 17 -30 25 -48 11 -23 37 -46 90
-77 177 -105 519 -254 690 -301 47 -13 126 -35 175 -49 393 -110 685 -151
1005 -140 102 3 202 10 222 14 21 5 96 4 170 -1 403 -30 1073 147 1608 425
211 110 454 254 508 302 26 22 85 67 132 100 47 32 143 103 214 158 170 131
181 137 242 137 104 0 195 -67 413 -303 30 -32 64 -65 77 -74 27 -17 60 -10
75 18 5 11 36 50 67 87 32 37 69 83 82 102 13 19 49 62 79 95 31 34 92 103
136 155 44 51 113 129 153 172 39 43 72 87 72 97 0 25 -26 46 -180 149 -149
100 -243 186 -271 247 -42 91 -15 170 136 399 121 182 185 303 275 521 179
435 294 834 340 1185 7 46 13 87 15 90 10 15 36 269 42 396 7 176 -17 664 -42
819 -22 141 -55 298 -75 365 -11 36 -20 86 -20 112 0 106 -129 521 -224 721
-24 51 -69 145 -99 209 -31 64 -78 154 -106 201 -28 46 -51 87 -51 92 0 8 -56
103 -117 198 -57 89 -108 144 -155 168 -30 15 -45 34 -74 91 -37 74 -154 208
-181 208 -16 0 -43 58 -43 90 0 52 -106 139 -153 126 -12 -3 -32 3 -48 15 -15
10 -41 19 -58 19 -54 0 -37 19 42 44 32 10 17 36 -65 114 -130 121 -214 206
-224 223 -9 16 -321 253 -429 326 -120 81 -450 255 -635 336 -251 109 -609
220 -875 271 -325 62 -805 90 -1155 66z m630 -415 c214 -17 293 -27 428 -56
114 -25 342 -82 392 -99 291 -100 393 -142 631 -260 280 -141 539 -311 812
-538 192 -158 524 -511 620 -657 14 -22 44 -65 67 -95 22 -30 43 -62 47 -70 4
-8 10 -17 14 -20 4 -3 37 -54 73 -115 36 -60 69 -114 74 -120 11 -14 101 -180
133 -245 38 -79 168 -385 191 -450 109 -309 167 -543 207 -835 34 -250 41
-349 43 -630 3 -457 -38 -761 -160 -1175 -109 -374 -233 -664 -438 -1021 -393
-687 -1053 -1314 -1744 -1659 -113 -57 -364 -170 -376 -170 -3 0 -74 -24 -157
-54 -198 -70 -351 -109 -572 -145 -269 -44 -425 -55 -690 -48 -766 21 -1455
238 -2078 656 -293 197 -592 460 -815 719 -275 320 -533 731 -692 1102 -164
383 -258 698 -320 1071 -92 556 -60 1234 85 1812 115 456 261 811 480 1164 47
76 91 147 98 158 30 49 137 196 188 261 77 95 289 336 308 350 9 7 59 52 111
101 241 228 554 449 875 618 61 32 115 62 120 66 28 21 271 124 397 167 249
86 469 142 712 182 116 19 151 23 356 40 159 12 385 11 580 -5z m-3677 -1441
c3 -3 1 -17 -5 -30 -8 -17 -8 -27 2 -39 10 -12 10 -15 -3 -15 -9 0 -17 -10
-19 -22 -4 -33 -20 -28 -30 9 -7 26 -4 39 14 68 23 35 30 40 41 29z m7056
-457 c12 -15 5 -27 -16 -27 -7 0 -13 9 -13 20 0 23 13 26 29 7z m-7299 -55 c0
-10 -22 -32 -32 -32 -13 0 -9 28 5 33 19 8 27 8 27 -1z m-173 -139 c2 -6 -4
-10 -14 -9 -10 0 -22 -9 -28 -21 -11 -26 -21 -29 -28 -10 -6 17 2 30 28 45 22
13 37 11 42 -5z m8051 -1367 c22 -24 15 -45 -10 -29 -7 4 -22 6 -32 4 -14 -2
-17 2 -12 14 3 9 6 21 6 26 0 17 25 9 48 -15z m-8089 -2739 c6 -8 8 -17 4 -20
-12 -12 -53 -7 -53 6 0 28 30 37 49 14z m1041 -1463 c23 -14 50 -66 50 -98 0
-17 -30 -3 -46 21 -9 15 -28 39 -40 52 -37 39 -15 54 36 25z m157 -136 c7 -5
22 -7 34 -3 16 6 27 0 45 -21 31 -38 30 -40 -10 -41 -26 -1 -35 4 -39 19 -4
13 -12 18 -25 16 -22 -3 -52 18 -52 38 0 14 24 10 47 -8z" fill="#1C2826"/>
  <path d="M8060 12324 c-19 -2 -78 -9 -130 -14 -362 -41 -840 -179 -1175 -341
-337 -162 -686 -402 -960 -659 -90 -85 -311 -322 -359 -385 -17 -23 -66 -87
-108 -143 -84 -108 -195 -280 -257 -395 -86 -160 -201 -394 -201 -408 0 -8 -4
-19 -8 -24 -4 -6 -18 -37 -31 -70 -13 -33 -31 -80 -41 -105 -36 -89 -110 -352
-141 -497 -89 -427 -101 -532 -103 -888 0 -260 3 -321 22 -460 83 -594 252
-1093 520 -1540 252 -420 591 -797 977 -1087 235 -176 567 -358 854 -468 260
-99 761 -212 761 -171 0 5 -28 16 -63 24 -453 114 -985 368 -1367 653 -397
295 -774 700 -996 1069 -123 203 -237 427 -303 592 -54 137 -136 401 -171 553
-138 598 -109 1313 80 1947 91 308 280 715 450 973 20 30 39 62 42 71 28 75
405 523 544 644 37 33 95 84 129 114 174 155 507 376 753 500 346 175 771 297
1217 352 158 19 211 21 430 16 342 -8 584 -43 895 -129 80 -22 168 -46 195
-54 147 -40 409 -154 615 -268 185 -102 356 -218 635 -430 96 -73 339 -320
428 -436 198 -258 299 -403 372 -535 15 -27 31 -54 35 -60 15 -20 122 -232
156 -310 59 -135 163 -419 199 -548 42 -144 106 -460 130 -637 27 -192 32
-604 10 -816 -32 -313 -78 -541 -171 -844 -243 -786 -730 -1493 -1369 -1986
-599 -462 -1228 -713 -1970 -785 -237 -23 -631 -3 -907 46 -508 89 -1097 338
-1538 649 -303 214 -557 440 -758 676 -145 169 -243 271 -254 264 -5 -3 -3
-14 4 -24 7 -10 48 -70 90 -132 387 -567 937 -1026 1573 -1310 338 -151 713
-256 1095 -305 187 -24 689 -23 875 1 755 98 1430 400 2020 905 308 264 528
509 747 831 389 571 640 1265 720 1985 16 150 16 643 0 780 -65 536 -195 987
-413 1440 -79 165 -149 289 -254 450 -174 267 -545 686 -590 668 -13 -4 -16
-3 -11 6 6 8 -13 33 -52 70 -46 44 -63 54 -67 43 -3 -9 0 -19 7 -24 8 -6 4 -7
-12 -2 -31 8 -39 15 -22 21 23 8 12 30 -37 74 -256 232 -685 488 -1051 626
-203 77 -480 158 -640 188 -252 46 -390 58 -705 60 -170 2 -326 1 -345 -1z" fill="#1C2826"/>
  <path d="M8070 11813 c-429 -30 -771 -120 -1170 -310 -576 -274 -1111 -784
-1435 -1368 -236 -427 -368 -848 -415 -1335 -15 -149 -10 -484 6 -500 18 -18
22 -3 38 131 49 405 92 611 192 909 58 171 86 238 206 480 290 588 760 1095
1338 1445 265 160 664 327 930 389 159 37 196 45 230 50 19 3 78 12 130 21 52
8 155 21 228 29 124 13 166 25 149 43 -16 15 -293 26 -427 16z" fill="#1C2826"/>
  <path d="M6353 10365 c-20 -15 -25 -228 -6 -255 7 -10 65 -34 141 -59 210 -66
234 -102 254 -376 12 -169 15 -1915 3 -2175 -3 -74 -8 -190 -10 -257 -5 -169
-19 -233 -61 -282 -37 -43 -125 -84 -247 -116 -44 -12 -72 -25 -78 -38 -14
-26 -23 -154 -15 -210 8 -53 30 -65 111 -61 234 11 624 18 830 15 138 -3 365
-5 505 -5 l255 -1 3 126 c3 151 7 146 -132 189 -53 16 -112 36 -129 45 -41 19
-86 61 -96 89 -22 55 -35 305 -47 897 -7 331 -7 336 14 357 31 31 123 37 517
32 116 -1 373 -1 572 -1 365 2 427 -3 453 -34 10 -12 12 -122 7 -518 -7 -547
-18 -703 -58 -758 -29 -41 -88 -72 -204 -109 -137 -44 -138 -45 -143 -178 -4
-102 -3 -111 17 -131 19 -19 30 -21 84 -16 197 16 789 23 1017 12 239 -11 563
-13 578 -4 8 6 12 45 12 137 l0 129 -30 16 c-17 9 -69 27 -116 41 -104 30
-175 65 -203 99 -31 40 -48 118 -56 250 -12 217 -16 2015 -5 2295 15 357 33
433 114 487 33 21 139 58 197 68 20 4 51 15 68 26 l31 19 0 119 c0 94 -3 121
-15 131 -11 9 -50 13 -128 11 -587 -8 -1200 -7 -1340 1 -228 15 -217 22 -217
-131 0 -115 1 -120 25 -139 13 -11 64 -32 112 -47 139 -43 197 -82 222 -146
31 -83 45 -319 46 -782 l0 -329 -27 -23 c-17 -14 -45 -25 -80 -28 -29 -4 -357
-6 -728 -4 -612 2 -678 4 -701 19 -26 16 -26 18 -32 185 -6 154 2 463 22 803
9 164 22 197 95 245 50 32 146 68 217 79 60 10 72 32 76 144 2 53 1 106 -1
118 -7 27 -50 46 -90 40 -97 -15 -845 -25 -1111 -15 -353 14 -477 15 -492 4z
m3028 -241 c11 -14 10 -15 -11 -12 -13 1 -25 9 -28 16 -5 17 23 15 39 -4z
m275 -173 c-9 -10 -16 -21 -16 -26 0 -12 -31 -45 -43 -45 -6 0 -3 8 5 18 9 9
23 32 32 50 9 18 21 30 27 26 7 -4 5 -12 -5 -23z m24 -265 c0 -2 -16 -13 -35
-25 -25 -14 -35 -17 -35 -7 0 7 10 18 23 24 23 11 47 15 47 8z m-2400 -536 c0
-5 -4 -10 -9 -10 -5 0 -11 -12 -13 -27 -2 -22 -9 -29 -30 -31 -16 -2 -28 1
-28 7 0 14 37 51 50 51 6 0 10 5 10 10 0 6 5 10 10 10 6 0 10 -4 10 -10z m-18
-394 c7 -14 6 -21 -3 -27 -23 -15 -30 -10 -23 16 5 20 -1 32 -30 58 -20 19
-36 37 -36 42 0 12 79 -64 92 -89z m56 -96 c24 -6 52 -8 62 -5 24 8 28 -20 4
-29 -14 -5 -13 -9 4 -33 23 -34 54 -93 48 -93 -6 0 -76 98 -76 106 0 14 -44
44 -65 44 -11 0 -30 7 -41 16 -22 17 -27 18 64 -6z m203 -66 c11 -14 10 -18
-6 -30 -11 -8 -24 -13 -30 -11 -16 6 -18 39 -3 48 18 12 24 11 39 -7z m-290
-40 c12 -34 4 -43 -12 -12 -6 12 -17 26 -23 30 -7 5 -4 8 7 8 10 0 22 -11 28
-26z m2269 -719 c21 7 28 -9 10 -20 -6 -4 -10 -16 -8 -27 2 -12 -3 -23 -11
-26 -10 -3 -12 1 -9 16 4 12 -2 26 -13 36 -11 9 -19 21 -19 27 0 8 4 8 15 -1
8 -6 23 -9 35 -5z m360 -343 c0 -5 -11 -19 -25 -32 -28 -27 -36 -8 -8 22 17
19 33 24 33 10z m-417 -58 c-3 -9 0 -20 8 -25 8 -5 9 -9 3 -9 -19 0 -47 27
-40 38 11 18 36 15 29 -4z m283 -18 c13 -10 23 -11 31 -4 18 15 16 0 -2 -19
-13 -12 -20 -13 -45 -1 -31 13 -35 19 -23 31 9 10 17 9 39 -7z m56 -126 c10
-19 26 -38 36 -41 15 -6 15 -8 1 -13 -23 -10 -92 33 -85 51 3 8 6 21 6 30 0
24 22 10 42 -27z m-172 -114 c0 -8 6 -16 13 -19 6 -2 8 -8 4 -13 -4 -4 -18 -2
-30 5 -15 10 -22 10 -25 2 -5 -14 -32 -15 -32 -1 0 6 -1 13 -2 17 -3 6 25 16
65 22 4 0 7 -5 7 -13z m104 -43 c-1 -16 -3 -32 -3 -36 -1 -5 -6 -5 -11 -2 -6
4 -8 10 -5 15 3 5 1 12 -5 15 -8 5 -7 11 1 21 17 21 25 17 23 -13z m-296 0
c-2 -10 -11 -19 -21 -21 -16 -3 -17 -1 -7 17 13 25 33 28 28 4z m422 -68 c-7
-8 -19 -15 -26 -15 -12 0 -11 5 2 26 11 17 20 22 27 15 7 -7 6 -15 -3 -26z
m-60 1 c0 -2 3 -11 6 -20 4 -10 1 -16 -9 -16 -17 0 -40 24 -30 33 7 8 33 10
33 3z m-280 -36 c12 -16 18 -30 13 -30 -4 0 -14 9 -21 20 -7 12 -23 20 -40 20
-21 0 -24 2 -12 10 25 16 37 12 60 -20z m375 -41 c0 -7 -8 -15 -17 -17 -18 -3
-25 18 -11 32 10 10 28 1 28 -15z m122 -185 c3 -8 -1 -22 -10 -31 -14 -14 -16
-13 -26 6 -7 12 -9 26 -6 31 10 15 35 12 42 -6z" fill="#1C2826"/>
  <path d="M8243 6171 c-144 -41 -282 -159 -352 -301 -62 -126 -77 -255 -45
-388 21 -89 144 -340 235 -477 76 -117 250 -344 293 -384 25 -23 25 -23 55 -5
62 40 238 279 378 514 150 252 190 382 171 559 -11 104 -32 159 -92 250 -71
106 -180 189 -306 231 -78 26 -247 27 -337 1z m132 -11 c4 -6 -12 -9 -42 -9
-47 2 -47 2 -13 9 19 4 38 8 42 9 4 0 10 -3 13 -9z m143 -316 c95 -47 147
-135 140 -238 -9 -144 -113 -241 -259 -241 -56 0 -73 5 -114 30 -153 95 -179
279 -56 402 77 77 191 96 289 47z m-62 -513 c-19 -7 -106 -3 -115 5 -2 2 27 4
65 3 42 0 62 -3 50 -8z" fill="#1C2826"/>
  <path d="M12731 5052 c-76 -38 -202 -155 -343 -317 -396 -456 -453 -542 -453
-670 1 -102 32 -153 170 -278 60 -55 157 -143 215 -197 58 -53 161 -146 230
-206 68 -60 149 -135 178 -166 30 -32 102 -99 160 -150 59 -51 187 -169 286
-263 282 -268 373 -350 496 -453 63 -53 169 -149 235 -214 66 -64 150 -140
185 -169 94 -75 178 -148 326 -284 391 -359 440 -389 629 -389 115 0 176 15
305 77 168 80 271 161 391 305 106 127 160 238 204 416 28 114 33 150 30 228
-5 152 -59 271 -178 386 -93 91 -110 102 -189 118 -102 21 -167 55 -236 125
-50 51 -61 68 -67 107 -9 61 -31 89 -119 156 -41 31 -92 76 -113 100 -40 46
-178 166 -347 301 -28 23 -105 84 -171 137 -66 53 -151 126 -190 162 -38 37
-124 108 -190 159 -65 51 -146 118 -180 150 -33 32 -102 92 -154 135 -52 42
-125 104 -163 137 -38 33 -106 89 -151 125 -173 136 -304 243 -356 292 -175
163 -311 206 -440 140z" fill="#1C2826"/>
  <path d="M13976 6193 c-22 -3 -26 -7 -15 -14 10 -6 6 -9 -16 -9 -24 0 -27 2
-15 11 12 9 12 10 -3 5 -10 -3 -25 -6 -33 -6 -9 0 -12 -4 -9 -10 3 -5 0 -10
-7 -10 -27 -1 -128 -48 -166 -79 -42 -33 -58 -39 -46 -18 4 6 -3 3 -15 -8 -13
-11 -27 -30 -32 -42 -5 -13 -15 -23 -24 -23 -8 0 -14 -3 -13 -7 3 -10 -33 -66
-49 -76 -7 -4 -13 -19 -13 -32 0 -14 -4 -25 -10 -25 -5 0 -10 -9 -10 -21 0
-13 -4 -18 -12 -13 -7 5 -8 3 -3 -6 4 -7 2 -16 -6 -21 -10 -6 -10 -9 -2 -9 7
0 10 -7 7 -15 -4 -8 -11 -12 -16 -8 -7 4 -8 -7 -4 -32 4 -22 4 -35 -2 -31 -5
3 -10 -19 -10 -51 0 -41 2 -53 10 -42 7 11 8 9 3 -6 -17 -45 -18 -68 -5 -60
10 6 12 4 7 -10 -4 -9 -2 -24 5 -32 19 -24 39 -88 28 -91 -5 -2 -3 -11 6 -19
8 -9 13 -22 10 -30 -3 -8 -1 -11 4 -8 6 3 11 1 11 -4 1 -6 2 -15 3 -20 0 -6 7
-16 14 -22 6 -7 12 -23 12 -36 0 -13 4 -23 10 -23 5 0 14 -17 20 -38 5 -21 22
-49 36 -63 14 -13 37 -46 51 -73 14 -27 30 -55 37 -62 27 -31 36 -44 36 -50 0
-3 14 -24 31 -45 17 -21 28 -43 25 -48 -4 -5 -1 -13 5 -17 8 -5 9 -3 4 7 -4 8
2 4 14 -9 12 -12 19 -27 16 -32 -4 -6 -1 -9 7 -8 7 2 12 -4 10 -14 -1 -9 3
-20 9 -24 8 -5 9 -3 4 7 -5 8 1 5 13 -5 12 -11 22 -27 22 -38 0 -10 7 -18 15
-18 8 0 23 -12 32 -27 22 -34 54 -62 70 -63 6 0 18 7 27 15 17 18 30 20 20 3
-4 -7 -3 -8 4 -4 7 4 12 13 12 21 0 7 7 15 15 19 8 3 15 12 15 21 0 8 4 15 9
15 5 0 13 9 16 20 3 11 13 20 20 20 8 0 12 6 9 13 -2 7 4 22 16 32 11 10 20
24 20 31 0 7 5 16 12 20 7 4 8 3 4 -4 -4 -7 -2 -12 3 -12 6 0 11 9 11 21 0 11
5 17 10 14 9 -5 15 15 11 38 -1 4 6 10 14 13 8 4 15 12 15 20 0 8 7 14 15 14
8 0 14 3 13 8 -1 4 4 21 11 37 6 17 14 36 16 44 3 7 12 10 20 7 9 -3 15 -1 14
7 -2 23 13 57 27 57 8 0 11 8 9 21 -3 15 0 19 10 15 9 -3 12 0 8 10 -3 7 0 14
6 14 6 0 11 7 11 15 0 24 22 65 35 65 7 0 12 6 11 13 -2 23 28 87 41 87 7 0
13 3 14 8 3 31 10 54 28 99 19 48 19 52 3 47 -14 -5 -14 -3 2 10 17 13 20 29
19 94 0 83 -16 170 -39 213 -7 14 -11 29 -7 33 3 3 1 6 -6 6 -6 0 -16 12 -21
26 -6 14 -14 22 -20 19 -5 -3 -10 0 -10 8 0 8 -13 32 -29 54 -16 23 -27 44
-23 49 4 4 2 4 -4 1 -6 -3 -36 14 -68 39 -60 48 -148 94 -178 94 -10 0 -18 7
-18 15 0 8 -4 15 -10 15 -5 0 -10 -4 -10 -10 0 -5 -5 -10 -11 -10 -6 0 -9 7
-5 15 4 10 -1 15 -15 15 -11 0 -17 -4 -14 -10 3 -5 2 -10 -4 -10 -5 0 -11 5
-13 11 -4 12 -77 20 -122 12z m111 -328 c18 -3 45 -12 60 -20 15 -8 34 -15 41
-15 6 0 12 -5 12 -11 0 -6 11 -20 25 -31 14 -11 25 -28 25 -39 0 -10 5 -19 11
-19 5 0 8 -4 5 -9 -3 -5 1 -14 8 -20 17 -14 31 -85 20 -102 -4 -7 -8 -28 -9
-48 -1 -19 -7 -37 -13 -39 -7 -2 -12 -12 -12 -21 0 -24 -42 -71 -63 -71 -10 0
-16 -4 -13 -9 7 -11 -22 -36 -31 -28 -3 4 -12 -1 -18 -10 -10 -14 -32 -18 -96
-20 -58 -2 -79 0 -69 7 13 8 12 10 -5 11 -11 1 -24 1 -29 0 -17 -3 -46 11 -41
20 3 5 -1 6 -9 3 -9 -3 -16 -1 -16 5 0 6 -7 11 -15 11 -8 0 -15 5 -15 11 0 5
6 7 13 3 6 -4 -5 9 -26 29 -21 20 -36 41 -33 46 4 5 -4 11 -16 13 -22 3 -23 8
-26 90 -3 79 -2 88 17 100 12 7 21 23 21 35 0 12 8 27 19 32 10 6 22 22 25 36
7 27 59 55 108 59 15 1 30 4 33 7 5 6 64 3 112 -6z" fill="#E07B3C"/>
</svg>